<svg width="837" height="333" viewBox="0 0 837 333" xmlns="http://www.w3.org/2000/svg"><mask id="satori_om-id"><rect x="0" y="0" width="837" height="333" fill="#fff"/></mask><defs><clipPath id="satori_bc-id-0"><path x="0" y="0" width="837" height="333" d="M3.436,0 h830.1279999999999 a3.436,3.436 0 0 1 3.436,3.436 v326.12800000000004 a3.436,3.436 0 0 1 -3.436,3.436 h-830.128 a3.436,3.436 0 0 1 -3.436,-3.436 v-326.128 a3.436,3.436 0 0 1 3.436,-3.436"/></clipPath></defs><mask id="satori_om-id-0"><rect x="3" y="3" width="831" height="327" fill="#fff"/><path width="837" height="333" fill="none" stroke="#000" stroke-width="6" d="M1.0059999999999998,1.0059999999999998 A3.436,3.436 0 0 1 3.436,0 h830.1279999999999 a3.436,3.436 0 0 1 3.436,3.436 v326.12800000000004 a3.436,3.436 0 0 1 -3.436,3.436 h-830.128 a3.436,3.436 0 0 1 -3.436,-3.436 v-326.128 A3.436,3.436 0 0 1 1.0059999999999998,1.0059999999999998"/></mask><path x="0" y="0" width="837" height="333" fill="rgb(12, 10, 51)" d="M3.436,0 h830.1279999999999 a3.436,3.436 0 0 1 3.436,3.436 v326.12800000000004 a3.436,3.436 0 0 1 -3.436,3.436 h-830.128 a3.436,3.436 0 0 1 -3.436,-3.436 v-326.128 a3.436,3.436 0 0 1 3.436,-3.436"/><path width="837" height="333" clip-path="url(#satori_bc-id-0)" fill="none" stroke="rgb(68, 66, 107)" stroke-width="6" d="M1.0059999999999998,1.0059999999999998 A3.436,3.436 0 0 1 3.436,0 h830.1279999999999 a3.436,3.436 0 0 1 3.436,3.436 v326.12800000000004 a3.436,3.436 0 0 1 -3.436,3.436 h-830.128 a3.436,3.436 0 0 1 -3.436,-3.436 v-326.128 A3.436,3.436 0 0 1 1.0059999999999998,1.0059999999999998"/><mask id="satori_om-id-0-0"><rect x="3" y="3" width="831" height="83" fill="#fff"/></mask><path x="3" y="3" width="831" height="83" fill="rgb(43, 41, 82)" d="M3.435996,3 h830.1280079999999 a0.435996,0.435996 0 0 1 0.435996,0.435996 v82.564004 a0,0 0 0 1 0,0 h-831 a0,0 0 0 1 0,0 v-82.564004 a0.435996,0.435996 0 0 1 0.435996,-0.435996"/></svg>