<svg xmlns="http://www.w3.org/2000/svg" width="42" height="42" viewBox="9.077018737792969 -41.042694091796875 1005.4458618164062 1106.0347900390625" class="colorable-icon reset-top-left-margin" data-export-recolorable-svg="true" overflow="visible" xmlns:xlink="http://www.w3.org/1999/xlink" fill="rgb(0, 0, 0)" stroke="none" preserveAspectRatio="xMidYMid meet"><g fill="none" stroke="rgb(217, 225, 255)" stroke-width="45" stroke-linecap="round" stroke-linejoin="round"><path d="M 969.13,1019.992 C 970.185,986.027 969.138,919.6 965.713,886.47 C 960.058,857.975 950.02,824.82 942.494,805.753 C 935.898,791.553 917.255,758.585 896.896,730.022 C 885.076,716.008 871.547,701.648 857.15,687.826 C 842.85,675.641 814.337,655.181 800.298,646.654 C 781.249,636.528 767.053,630.015 747.855,622.51 C 729.088,616.436 710.205,611.515 691.327,607.92 C 672.391,605.518 648.756,603.393 634.573,603.163" data-line="nan" stroke-width="45.0" fill="none" stroke="rgb(217, 225, 255)"/><path d="M 347.131,605.615 C 314.046,611.133 281.127,620.301 247.926,633.475 C 219.602,648.418 191.444,666.974 163.15,690.153 C 149.758,703.088 136.987,716.86 114.653,745.214 C 96.595,773.783 82.305,801.994 69.735,835.19 C 61.113,867.889 56.469,896.156 54.355,924.401 Q 53.815,957.536 54.324,1019.519" data-line="nan" stroke-width="45.0" fill="none" stroke="rgb(217, 225, 255)"/><circle cx="511.919961348938" cy="264.15090308391717" r="260.1936011061942" data-line="0.0" stroke-width="45.0" fill="none" stroke="rgb(217, 225, 255)"/><path d="M 969.13,1019.992 L 54.324,1019.519" data-line="3.0" stroke-width="45.0" fill="none" stroke="rgb(217, 225, 255)"/><path d="M 634.573,603.163 L 347.131,605.615" data-line="4.0" stroke-width="45.0" fill="none" stroke="rgb(217, 225, 255)"/></g></svg>