<svg xmlns="http://www.w3.org/2000/svg" width="42" height="42" viewBox="-40.14618253707886 -35.895999908447266 1105.9280395507812 1096.8538818359375" class="colorable-icon reset-top-left-margin" data-export-recolorable-svg="true" overflow="visible" xmlns:xlink="http://www.w3.org/1999/xlink" fill="rgb(0, 0, 0)" stroke="none" preserveAspectRatio="xMidYMid meet"><g fill="none" stroke="rgb(217, 225, 255)" stroke-width="45" stroke-linecap="round" stroke-linejoin="round"><path d="M 94.3,912.842 C 94.113,940.709 94.916,951.053 96.512,958.453 C 99.256,966.832 103.84,976.56 110.642,986.465 C 116.133,992.791 124.106,999.84 132.429,1005.411 C 141.521,1009.766 148.405,1012.029 161.222,1014.168 L 190.228,1014.373" data-line="nan" stroke-width="45.0" fill="none" stroke="rgb(217, 225, 255)"/><path d="M 6.981,510.595 C 6.801,501.938 8.828,491.223 13.187,480.048 C 23.465,459.912 25.315,453.775 26.238,444.517 C 25.275,435.742 22.434,426.542 9.176,402.245 C 5.449,392.194 4.047,378.862 5.304,370.785 L 7.402,364.87" data-line="nan" stroke-width="45.0" fill="none" stroke="rgb(217, 225, 255)"/><path d="M 248.22,203.46 C 255.542,208.619 272.0,224.792 280.966,232.342 C 287.814,236.382 298.473,240.772 305.534,242.382 C 315.885,243.253 326.729,242.189 347.129,238.236 L 353.033,238.104" data-line="nan" stroke-width="45.0" fill="none" stroke="rgb(217, 225, 255)"/><path d="M 1019.758,282.464 L 741.157,12.194" data-line="0.0" stroke-width="45.0" fill="none" stroke="rgb(217, 225, 255)"/><path d="M 747.056,236.678 L 741.157,12.194" data-line="1.0" stroke-width="45.0" fill="none" stroke="rgb(217, 225, 255)"/><path d="M 747.0560000365675,236.67799998475374 A 74.57738996609386,74.57738996609386 0 0,0 753.0630000328721,248.1599999789765" data-line="2.0" stroke-width="45.0" fill="none" stroke="rgb(217, 225, 255)"/><path d="M 753.063,248.16 L 757.13,253.95" data-line="3.0" stroke-width="45.0" fill="none" stroke="rgb(217, 225, 255)"/><path d="M 757.13,253.95 L 761.721,259.373" data-line="4.0" stroke-width="45.0" fill="none" stroke="rgb(217, 225, 255)"/><path d="M 761.721,259.373 L 766.896,264.5" data-line="5.0" stroke-width="45.0" fill="none" stroke="rgb(217, 225, 255)"/><path d="M 766.896,264.5 L 772.329,268.928" data-line="6.0" stroke-width="45.0" fill="none" stroke="rgb(217, 225, 255)"/><path d="M 772.329,268.928 L 777.978,272.731" data-line="7.0" stroke-width="45.0" fill="none" stroke="rgb(217, 225, 255)"/><path d="M 777.978,272.731 L 783.673,275.804" data-line="8.0" stroke-width="45.0" fill="none" stroke="rgb(217, 225, 255)"/><path d="M 783.673,275.804 L 789.315,278.213" data-line="9.0" stroke-width="45.0" fill="none" stroke="rgb(217, 225, 255)"/><path d="M 789.315,278.213 L 794.974,280.004" data-line="10.0" stroke-width="45.0" fill="none" stroke="rgb(217, 225, 255)"/><path d="M 794.974,280.004 L 1019.758,282.464" data-line="11.0" stroke-width="45.0" fill="none" stroke="rgb(217, 225, 255)"/><path d="M 93.287,189.375 L 95.386,61.525" data-line="12.0" stroke-width="45.0" fill="none" stroke="rgb(217, 225, 255)"/><path d="M 95.386,61.525 L 96.976,56.019" data-line="13.0" stroke-width="45.0" fill="none" stroke="rgb(217, 225, 255)"/><path d="M 96.976,56.019 L 99.108,50.527" data-line="14.0" stroke-width="45.0" fill="none" stroke="rgb(217, 225, 255)"/><path d="M 99.108,50.527 L 101.88,44.915" data-line="15.0" stroke-width="45.0" fill="none" stroke="rgb(217, 225, 255)"/><path d="M 101.88,44.915 L 105.386,39.217" data-line="16.0" stroke-width="45.0" fill="none" stroke="rgb(217, 225, 255)"/><path d="M 105.386,39.217 L 109.667,33.549" data-line="17.0" stroke-width="45.0" fill="none" stroke="rgb(217, 225, 255)"/><path d="M 109.667,33.549 L 114.628,28.148" data-line="18.0" stroke-width="45.0" fill="none" stroke="rgb(217, 225, 255)"/><path d="M 114.628,28.148 L 119.974,23.329" data-line="19.0" stroke-width="45.0" fill="none" stroke="rgb(217, 225, 255)"/><path d="M 119.974,23.329 L 125.404,19.308" data-line="20.0" stroke-width="45.0" fill="none" stroke="rgb(217, 225, 255)"/><path d="M 125.404,19.308 L 130.968,16.059" data-line="21.0" stroke-width="45.0" fill="none" stroke="rgb(217, 225, 255)"/><path d="M 130.968,16.059 L 737.743,9.104" data-line="22.0" stroke-width="45.0" fill="none" stroke="rgb(217, 225, 255)"/><path d="M 159.216,636.296 L 95.945,641.809" data-line="27.0" stroke-width="45.0" fill="none" stroke="rgb(217, 225, 255)"/><path d="M 159.216,636.296 L 164.924,636.722" data-line="28.0" stroke-width="45.0" fill="none" stroke="rgb(217, 225, 255)"/><path d="M 164.924,636.722 L 170.719,637.97" data-line="29.0" stroke-width="45.0" fill="none" stroke="rgb(217, 225, 255)"/><path d="M 170.719,637.97 L 176.465,640.185" data-line="30.0" stroke-width="45.0" fill="none" stroke="rgb(217, 225, 255)"/><path d="M 176.465,640.185 L 182.098,643.441" data-line="31.0" stroke-width="45.0" fill="none" stroke="rgb(217, 225, 255)"/><path d="M 182.098,643.441 L 187.514,647.641" data-line="32.0" stroke-width="45.0" fill="none" stroke="rgb(217, 225, 255)"/><path d="M 187.514,647.641 C 194.59217131181646,653.7363723119068 201.3139224220584,662.4255133862168 208.783,668.119" data-line="33.0" stroke-width="45.0" fill="none" stroke="rgb(217, 225, 255)"/><path d="M 208.783,668.119 L 214.454,671.915" data-line="34.0" stroke-width="45.0" fill="none" stroke="rgb(217, 225, 255)"/><path d="M 214.454,671.915 L 220.309,674.567" data-line="35.0" stroke-width="45.0" fill="none" stroke="rgb(217, 225, 255)"/><path d="M 220.309,674.567 L 226.175,676.139" data-line="36.0" stroke-width="45.0" fill="none" stroke="rgb(217, 225, 255)"/><path d="M 226.175,676.139 L 232.078,676.675" data-line="37.0" stroke-width="45.0" fill="none" stroke="rgb(217, 225, 255)"/><path d="M 232.078,676.675 L 237.977,676.279" data-line="38.0" stroke-width="45.0" fill="none" stroke="rgb(217, 225, 255)"/><path d="M 237.977,676.279 L 243.987,674.923" data-line="39.0" stroke-width="45.0" fill="none" stroke="rgb(217, 225, 255)"/><path d="M 243.987,674.923 L 249.952,672.607" data-line="40.0" stroke-width="45.0" fill="none" stroke="rgb(217, 225, 255)"/><path d="M 249.952,672.607 L 255.842,669.348" data-line="41.0" stroke-width="45.0" fill="none" stroke="rgb(217, 225, 255)"/><path d="M 255.842,669.348 L 282.429,646.2" data-line="42.0" stroke-width="45.0" fill="none" stroke="rgb(217, 225, 255)"/><path d="M 282.429,646.2 L 287.902,642.241" data-line="43.0" stroke-width="45.0" fill="none" stroke="rgb(217, 225, 255)"/><path d="M 287.902,642.241 L 292.914,639.3" data-line="44.0" stroke-width="45.0" fill="none" stroke="rgb(217, 225, 255)"/><path d="M 292.914,639.3 L 297.502,637.326" data-line="45.0" stroke-width="45.0" fill="none" stroke="rgb(217, 225, 255)"/><path d="M 297.502,637.326 L 300.873,636.257" data-line="46.0" stroke-width="45.0" fill="none" stroke="rgb(217, 225, 255)"/><path d="M 300.873,636.257 C 313.92225063353015,631.900090396347 335.0342728515123,639.2121155429379 352.785,640.208" data-line="47.0" stroke-width="45.0" fill="none" stroke="rgb(217, 225, 255)"/><path d="M 352.785,640.208 L 355.961,639.98" data-line="48.0" stroke-width="45.0" fill="none" stroke="rgb(217, 225, 255)"/><path d="M 355.961,639.98 L 374.545,635.467" data-line="49.0" stroke-width="45.0" fill="none" stroke="rgb(217, 225, 255)"/><path d="M 377.195,634.77 L 377.02,858.855" data-line="50.0" stroke-width="45.0" fill="none" stroke="rgb(217, 225, 255)"/><path d="M 377.02,858.855 L 236.176,760.789" data-line="51.0" stroke-width="45.0" fill="none" stroke="rgb(217, 225, 255)"/><path d="M 236.176,760.789 L 94.189,859.45" data-line="52.0" stroke-width="45.0" fill="none" stroke="rgb(217, 225, 255)"/><path d="M 94.189,859.45 L 92.777,641.827" data-line="53.0" stroke-width="45.0" fill="none" stroke="rgb(217, 225, 255)"/><path d="M 72.95759063021367,575.3491060142014 A 119.81945644912892,119.81945644912892 0 0,0 91.93140959918419,637.6311186054" data-line="54.0" stroke-width="45.0" fill="none" stroke="rgb(217, 225, 255)"/><path d="M 71.747,575.374 L 70.482,572.098" data-line="55.0" stroke-width="45.0" fill="none" stroke="rgb(217, 225, 255)"/><path d="M 70.482,572.098 L 69.03,569.155" data-line="56.0" stroke-width="45.0" fill="none" stroke="rgb(217, 225, 255)"/><path d="M 69.03,569.155 C 56.51846282355445,547.413528709901 34.99489471834191,547.1031763118436 19.189,533.263" data-line="57.0" stroke-width="45.0" fill="none" stroke="rgb(217, 225, 255)"/><path d="M 19.189,533.263 L 16.261,530.373" data-line="58.0" stroke-width="45.0" fill="none" stroke="rgb(217, 225, 255)"/><path d="M 16.261,530.373 L 13.841,527.496" data-line="59.0" stroke-width="45.0" fill="none" stroke="rgb(217, 225, 255)"/><path d="M 13.841,527.496 L 11.548,524.056" data-line="60.0" stroke-width="45.0" fill="none" stroke="rgb(217, 225, 255)"/><path d="M 11.548000027624028,524.055999985033 A 45.24032666900701,45.24032666900701 0 0,1 8.476000029946988,517.0179999898565" data-line="61.0" stroke-width="45.0" fill="none" stroke="rgb(217, 225, 255)"/><path d="M 8.476,517.018 Q 7.387500476778585,513.3154979199059 6.981,510.595" data-line="62.0" stroke-width="45.0" fill="none" stroke="rgb(217, 225, 255)"/><path d="M 7.402,364.87 L 8.784,362.149" data-line="64.0" stroke-width="45.0" fill="none" stroke="rgb(217, 225, 255)"/><path d="M 8.784,362.149 L 10.689,359.117" data-line="65.0" stroke-width="45.0" fill="none" stroke="rgb(217, 225, 255)"/><path d="M 10.689,359.117 Q 12.4735000000629,356.55199999424417 15.064,353.903" data-line="66.0" stroke-width="45.0" fill="none" stroke="rgb(217, 225, 255)"/><path d="M 15.064,353.903 C 25.28849058938338,343.5809166466074 46.94286262249422,338.77357675824095 58.086,325.149" data-line="67.0" stroke-width="45.0" fill="none" stroke="rgb(217, 225, 255)"/><path d="M 58.086,325.149 L 60.595,322.015" data-line="68.0" stroke-width="45.0" fill="none" stroke="rgb(217, 225, 255)"/><path d="M 60.595,322.015 L 62.545,319.077" data-line="69.0" stroke-width="45.0" fill="none" stroke="rgb(217, 225, 255)"/><path d="M 62.545,319.077 C 74.70460913682514,297.40338372632607 64.1140573007032,276.21423032286094 81.019,255.44" data-line="70.0" stroke-width="45.0" fill="none" stroke="rgb(217, 225, 255)"/><path d="M 81.019,255.44 L 83.608,252.471" data-line="71.0" stroke-width="45.0" fill="none" stroke="rgb(217, 225, 255)"/><path d="M 83.608,252.471 L 86.241,249.945" data-line="72.0" stroke-width="45.0" fill="none" stroke="rgb(217, 225, 255)"/><path d="M 86.241,249.945 L 89.219,247.604" data-line="73.0" stroke-width="45.0" fill="none" stroke="rgb(217, 225, 255)"/><path d="M 89.219,247.604 C 106.38306939909027,229.10892289305832 145.92483124687823,258.7870772340264 172.119,237.174" data-line="74.0" stroke-width="45.0" fill="none" stroke="rgb(217, 225, 255)"/><path d="M 172.119,237.174 C 189.83581572257404,225.6459935221582 201.26556387776603,203.56793721651403 218.457,199.952" data-line="75.0" stroke-width="45.0" fill="none" stroke="rgb(217, 225, 255)"/><path d="M 218.45647979015382,199.95023044600677 A 42.64032314931108,42.64032314931108 0 0,1 232.23690940038549,198.25520060919084" data-line="76.0" stroke-width="45.0" fill="none" stroke="rgb(217, 225, 255)"/><path d="M 232.237,198.253 L 235.368,198.606" data-line="77.0" stroke-width="45.0" fill="none" stroke="rgb(217, 225, 255)"/><path d="M 235.368,198.606 Q 237.74050000283654,198.97300000024163 241.167,200.08" data-line="78.0" stroke-width="45.0" fill="none" stroke="rgb(217, 225, 255)"/><path d="M 241.167,200.08 Q 244.10650000208418,201.1980000021208 248.22,203.46" data-line="79.0" stroke-width="45.0" fill="none" stroke="rgb(217, 225, 255)"/><path d="M 353.033,238.104 L 356.179,238.435" data-line="81.0" stroke-width="45.0" fill="none" stroke="rgb(217, 225, 255)"/><path d="M 356.179,238.435 Q 359.08150108237027,238.9645009839928 362.782,240.22" data-line="82.0" stroke-width="45.0" fill="none" stroke="rgb(217, 225, 255)"/><path d="M 362.782,240.22 Q 366.5809999977532,241.68949999461572 369.484,243.333" data-line="83.0" stroke-width="45.0" fill="none" stroke="rgb(217, 225, 255)"/><path d="M 369.484,243.333 L 372.601,245.393" data-line="84.0" stroke-width="45.0" fill="none" stroke="rgb(217, 225, 255)"/><path d="M 372.601,245.393 L 375.156,247.494" data-line="85.0" stroke-width="45.0" fill="none" stroke="rgb(217, 225, 255)"/><path d="M 375.156,247.494 L 377.877,250.296" data-line="86.0" stroke-width="45.0" fill="none" stroke="rgb(217, 225, 255)"/><path d="M 377.877,250.296 L 380.271,253.622" data-line="87.0" stroke-width="45.0" fill="none" stroke="rgb(217, 225, 255)"/><path d="M 380.271,253.622 L 382.735,258.089" data-line="88.0" stroke-width="45.0" fill="none" stroke="rgb(217, 225, 255)"/><path d="M 382.735,258.089 C 393.4252452796245,285.54485900258925 387.66571830379945,289.3959328949424 396.042,310.273" data-line="89.0" stroke-width="45.0" fill="none" stroke="rgb(217, 225, 255)"/><path d="M 396.042,310.273 C 403.59183167599065,330.0523354638162 429.5360763786871,336.75429586297605 447.791,350.142" data-line="90.0" stroke-width="45.0" fill="none" stroke="rgb(217, 225, 255)"/><path d="M 447.791,350.142 L 450.815,353.127" data-line="91.0" stroke-width="45.0" fill="none" stroke="rgb(217, 225, 255)"/><path d="M 450.815,353.127 L 453.808,356.708" data-line="92.0" stroke-width="45.0" fill="none" stroke="rgb(217, 225, 255)"/><path d="M 453.808,356.708 L 456.199,360.524" data-line="93.0" stroke-width="45.0" fill="none" stroke="rgb(217, 225, 255)"/><path d="M 456.199,360.524 L 458.055,364.439" data-line="94.0" stroke-width="45.0" fill="none" stroke="rgb(217, 225, 255)"/><path d="M 458.055,364.439 L 459.388,368.374" data-line="95.0" stroke-width="45.0" fill="none" stroke="rgb(217, 225, 255)"/><path d="M 459.388,368.374 Q 460.43549999797324,372.47350000193995 460.681,375.407" data-line="96.0" stroke-width="45.0" fill="none" stroke="rgb(217, 225, 255)"/><path d="M 460.681,375.407 L 460.628,378.712" data-line="97.0" stroke-width="45.0" fill="none" stroke="rgb(217, 225, 255)"/><path d="M 460.628,378.712 C 458.0775758664662,398.98439416994574 440.4613262868068,416.50012657807275 439.08,438.619" data-line="98.0" stroke-width="45.0" fill="none" stroke="rgb(217, 225, 255)"/><path d="M 439.08,438.619 C 438.9861657084359,442.372666688409 439.0843346908009,443.98283331152425 439.532,447.738" data-line="99.0" stroke-width="45.0" fill="none" stroke="rgb(217, 225, 255)"/><path d="M 439.532,447.738 Q 439.9815000001404,450.6155000025037 441.193,454.607" data-line="100.0" stroke-width="45.0" fill="none" stroke="rgb(217, 225, 255)"/><path d="M 441.193,454.607 C 448.8464621979294,473.07221716766804 460.56410661916124,487.8891302884976 459.252,505.008" data-line="101.0" stroke-width="45.0" fill="none" stroke="rgb(217, 225, 255)"/><path d="M 459.252,505.008 Q 458.9764999937903,508.2724999959606 458.151,512.239" data-line="102.0" stroke-width="45.0" fill="none" stroke="rgb(217, 225, 255)"/><path d="M 458.151,512.239 L 456.931,516.277" data-line="103.0" stroke-width="45.0" fill="none" stroke="rgb(217, 225, 255)"/><path d="M 456.931,516.277 L 455.211,520.052" data-line="104.0" stroke-width="45.0" fill="none" stroke="rgb(217, 225, 255)"/><path d="M 455.211,520.052 L 452.725,524.087" data-line="105.0" stroke-width="45.0" fill="none" stroke="rgb(217, 225, 255)"/><path d="M 452.725,524.087 L 449.545,527.799" data-line="106.0" stroke-width="45.0" fill="none" stroke="rgb(217, 225, 255)"/><path d="M 449.545,527.799 L 445.928,531.176" data-line="107.0" stroke-width="45.0" fill="none" stroke="rgb(217, 225, 255)"/><path d="M 445.928,531.176 L 441.992,533.977" data-line="108.0" stroke-width="45.0" fill="none" stroke="rgb(217, 225, 255)"/><path d="M 441.992,533.977 C 429.4666226287119,541.1099090486844 409.2026707969644,548.9068130764647 403.055,558.601" data-line="109.0" stroke-width="45.0" fill="none" stroke="rgb(217, 225, 255)"/><path d="M 403.055,558.601 C 386.19184301213204,578.2307862328704 394.6512317434283,614.0429600162926 377.198,631.575" data-line="110.0" stroke-width="45.0" fill="none" stroke="rgb(217, 225, 255)"/><circle cx="232.1639063598924" cy="439.0827497408807" r="112.99943591024756" data-line="120.0" stroke-width="45.0" fill="none" stroke="rgb(217, 225, 255)"/><path d="M 281.967,541.228 L 287.882,538.364" data-line="121.0" stroke-width="45.0" fill="none" stroke="rgb(217, 225, 255)"/><path d="M 190.228,1014.373 L 916.918,1014.444" data-line="122.0" stroke-width="45.0" fill="none" stroke="rgb(217, 225, 255)"/><path d="M 917.4650746840186,1012.6088487343561 A 80.35928541553892,80.35928541553892 0 0,0 1018.3070407033456,915.8094580562587" data-line="123.0" stroke-width="45.0" fill="none" stroke="rgb(217, 225, 255)"/><path d="M 1019.891,915.407 L 1019.758,282.464" data-line="124.0" stroke-width="45.0" fill="none" stroke="rgb(217, 225, 255)"/></g></svg>