<svg xmlns="http://www.w3.org/2000/svg" width="42" height="42" viewBox="-40.877999782562256 244.62600708007812 1105.8309936523438 535.2312927246094" class="colorable-icon reset-top-left-margin" data-export-recolorable-svg="true" overflow="visible" xmlns:xlink="http://www.w3.org/1999/xlink" fill="rgb(0, 0, 0)" stroke="none" preserveAspectRatio="xMidYMid meet"><g fill="none" stroke="rgb(217, 225, 255)" stroke-width="45" stroke-linecap="round" stroke-linejoin="round"><path d="M 155.967,734.397 C 140.363,734.081 128.657,732.881 114.915,730.251 C 100.714,726.034 88.465,721.196 74.879,714.243 C 62.841,706.496 51.316,697.215 42.359,688.467 C 32.691,677.06 23.365,663.15 16.913,650.744 C 12.843,640.848 8.569,627.062 5.436,610.769 L 4.224,597.538" data-line="nan" stroke-width="45.0" fill="none" stroke="rgb(217, 225, 255)"/><path d="M 4.122,442.934 C 4.597,422.606 6.752,405.0 11.484,386.808 C 16.324,373.255 24.76,357.251 34.155,343.768 C 46.014,330.558 56.963,321.009 70.283,311.687 C 86.794,302.974 101.691,297.178 117.837,292.878 C 131.158,290.693 143.963,289.718 203.006,289.626" data-line="nan" stroke-width="45.0" fill="none" stroke="rgb(217, 225, 255)"/><path d="M 869.301,289.628 C 886.934,290.192 903.145,292.385 919.953,296.568 C 935.438,302.271 949.219,309.319 964.855,319.767 C 978.452,331.643 988.385,342.49 998.4,356.326 C 1006.304,370.59 1012.615,386.348 1016.088,399.148 C 1018.604,412.993 1019.431,422.534 1019.953,474.764" data-line="nan" stroke-width="45.0" fill="none" stroke="rgb(217, 225, 255)"/><path d="M 1019.804,588.444 C 1018.507,611.276 1013.713,633.087 1009.997,644.05 C 1005.455,654.364 997.79,668.334 994.447,672.913" data-line="nan" stroke-width="45.0" fill="none" stroke="rgb(217, 225, 255)"/><path d="M 791.458,410.852 L 791.608,612.586" data-line="0.0" stroke-width="45.0" fill="none" stroke="rgb(217, 225, 255)"/><path d="M 709.059,461.105 L 872.742,561.802" data-line="1.0" stroke-width="45.0" fill="none" stroke="rgb(217, 225, 255)"/><path d="M 715.792,559.872 L 871.781,463.899" data-line="2.0" stroke-width="45.0" fill="none" stroke="rgb(217, 225, 255)"/><path d="M 232.305,612.324 L 231.795,409.539" data-line="4.0" stroke-width="45.0" fill="none" stroke="rgb(217, 225, 255)"/><path d="M 147.359,461.138 L 311.489,560.296" data-line="5.0" stroke-width="45.0" fill="none" stroke="rgb(217, 225, 255)"/><path d="M 150.315,562.005 L 307.76,463.248" data-line="6.0" stroke-width="45.0" fill="none" stroke="rgb(217, 225, 255)"/><path d="M 994.700061261184,673.1000700146298 A 152.27717614804828,152.27717614804828 0 0,1 849.7763312516194,733.1900893366983" data-line="8.0" stroke-width="45.0" fill="none" stroke="rgb(217, 225, 255)"/><path d="M 511.797,409.539 L 511.703,616.871" data-line="10.0" stroke-width="45.0" fill="none" stroke="rgb(217, 225, 255)"/><path d="M 433.004,464.787 L 591.745,560.816" data-line="11.0" stroke-width="45.0" fill="none" stroke="rgb(217, 225, 255)"/><path d="M 428.885,562.063 L 591.224,462.47" data-line="12.0" stroke-width="45.0" fill="none" stroke="rgb(217, 225, 255)"/><path d="M 849.597,734.392 L 155.967,734.397" data-line="13.0" stroke-width="45.0" fill="none" stroke="rgb(217, 225, 255)"/><path d="M 4.224,597.538 L 4.122,442.934" data-line="13.0" stroke-width="45.0" fill="none" stroke="rgb(217, 225, 255)"/><path d="M 203.006,289.626 L 869.301,289.628" data-line="15.0" stroke-width="45.0" fill="none" stroke="rgb(217, 225, 255)"/><path d="M 1019.953,474.764 L 1019.804,588.444" data-line="16.0" stroke-width="45.0" fill="none" stroke="rgb(217, 225, 255)"/></g></svg>