<svg xmlns="http://www.w3.org/2000/svg" width="42" height="42" viewBox="-40.80399990081787 -4.647998809814453 1105.4325561523438 1033.5640258789062" class="colorable-icon reset-top-left-margin" data-export-recolorable-svg="true" overflow="visible" xmlns:xlink="http://www.w3.org/1999/xlink" fill="rgb(0, 0, 0)" stroke="none" preserveAspectRatio="xMidYMid meet"><g fill="none" stroke="rgb(217, 225, 255)" stroke-width="45" stroke-linecap="round" stroke-linejoin="round"><path d="M 1005.022,384.83 C 1014.869,402.493 1017.9,410.921 1018.732,415.847 L 1019.153,538.123" data-line="nan" stroke-width="45.0" fill="none" stroke="rgb(217, 225, 255)"/><path d="M 1019.089,684.875 C 1018.202,694.83 1016.958,699.922 1011.869,709.991 C 1007.889,714.338 1003.241,717.829 993.128,722.15 Q 978.313,724.159 890.288,724.708" data-line="nan" stroke-width="45.0" fill="none" stroke="rgb(217, 225, 255)"/><path d="M 531.684,724.801 L 357.176,724.699" data-line="nan" stroke-width="45.0" fill="none" stroke="rgb(217, 225, 255)"/><path d="M 49.072,724.762 C 34.483,723.251 24.702,719.538 19.881,716.303 C 15.419,712.192 9.039,702.533 7.268,697.551 C 5.589,687.907 4.246,531.601 4.408,424.177 C 5.348,414.567 8.035,405.243 20.157,382.825" data-line="nan" stroke-width="45.0" fill="none" stroke="rgb(217, 225, 255)"/><path d="M 1003.085,381.357 C 1015.382,362.365 1018.702,352.337 1019.596,342.484 C 1019.843,117.503 1018.678,73.408 1016.329,63.593 C 1010.994,53.912 1007.093,49.71 997.734,43.929 C 992.829,42.396 983.086,41.168 944.088,40.352" data-line="nan" stroke-width="45.0" fill="none" stroke="rgb(217, 225, 255)"/><path d="M 112.63,40.361 C 49.068,40.755 31.663,42.428 20.198,46.943 C 12.919,52.742 7.792,60.355 4.473,71.519" data-line="nan" stroke-width="45.0" fill="none" stroke="rgb(217, 225, 255)"/><path d="M 4.196,346.465 C 4.842,352.856 6.778,360.066 9.802,366.521 L 20.157,382.825" data-line="nan" stroke-width="45.0" fill="none" stroke="rgb(217, 225, 255)"/><path d="M 1000.938,384.526 L 20.157,382.825" data-line="0.0" stroke-width="45.0" fill="none" stroke="rgb(217, 225, 255)"/><path d="M 512.117,983.743 L 511.543,724.649" data-line="4.0" stroke-width="45.0" fill="none" stroke="rgb(217, 225, 255)"/><path d="M 192.297,983.916 L 830.184,983.78" data-line="5.0" stroke-width="45.0" fill="none" stroke="rgb(217, 225, 255)"/><path d="M 1019.153,538.123 L 1019.089,684.875" data-line="10.0" stroke-width="45.0" fill="none" stroke="rgb(217, 225, 255)"/><circle cx="189.24359099767582" cy="211.5718292331777" r="43.96852891170021" data-line="10.0" stroke-width="45.0" fill="none" stroke="rgb(217, 225, 255)"/><path d="M 214.295,247.76 L 220.902,243.941" data-line="11.0" stroke-width="45.0" fill="none" stroke="rgb(217, 225, 255)"/><path d="M 890.288,724.708 L 531.684,724.801" data-line="12.0" stroke-width="45.0" fill="none" stroke="rgb(217, 225, 255)"/><path d="M 673.521,210.455 L 886.963,210.443" data-line="13.0" stroke-width="45.0" fill="none" stroke="rgb(217, 225, 255)"/><circle cx="189.16101050330812" cy="553.9813081345305" r="44.971027568087905" data-line="14.0" stroke-width="45.0" fill="none" stroke="rgb(217, 225, 255)"/><path d="M 357.176,724.699 L 49.072,724.762" data-line="14.0" stroke-width="45.0" fill="none" stroke="rgb(217, 225, 255)"/><path d="M 224.919,581.759 L 228.29,577.908" data-line="15.0" stroke-width="45.0" fill="none" stroke="rgb(217, 225, 255)"/><path d="M 670.442,551.349 L 883.985,552.841" data-line="17.0" stroke-width="45.0" fill="none" stroke="rgb(217, 225, 255)"/><path d="M 944.088,40.352 L 112.63,40.361" data-line="17.0" stroke-width="45.0" fill="none" stroke="rgb(217, 225, 255)"/><path d="M 4.473,71.519 L 4.196,346.465" data-line="19.0" stroke-width="45.0" fill="none" stroke="rgb(217, 225, 255)"/></g></svg>