<svg xmlns="http://www.w3.org/2000/svg" width="42" height="42" viewBox="-41.23459982872009 20.625999450683594 1106.2175903320312 982.718994140625" class="colorable-icon reset-top-left-margin" data-export-recolorable-svg="true" overflow="visible" xmlns:xlink="http://www.w3.org/1999/xlink" fill="rgb(0, 0, 0)" stroke="none" preserveAspectRatio="xMidYMid meet"><g fill="none" stroke="rgb(217, 225, 255)" stroke-width="45" stroke-linecap="round" stroke-linejoin="round"><path d="M 977.019,426.503 C 999.719,452.342 1006.381,461.188 1014.371,476.699 C 1018.69,492.422 1019.938,513.087 1019.941,699.282" data-line="nan" stroke-width="45.0" fill="none" stroke="rgb(217, 225, 255)"/><path d="M 975.841,425.162 C 997.469,405.774 1005.102,397.319 1008.802,392.03 C 1014.529,380.881 1018.937,364.8 1019.983,333.753 L 1019.895,147.535" data-line="nan" stroke-width="45.0" fill="none" stroke="rgb(217, 225, 255)"/><path d="M 1019.941,699.282 C 1018.92,719.977 1014.631,735.946 1009.349,746.874 C 1005.843,752.237 1001.659,757.575 992.009,767.09 C 986.8,771.031 975.888,777.199 959.859,782.413 Q 944.463,783.985 913.427,784.178" data-line="nan" stroke-width="45.0" fill="none" stroke="rgb(217, 225, 255)"/><path d="M 4.063,509.271 C 4.262,496.296 5.838,486.623 9.977,474.335 C 15.222,463.924 20.565,456.235 27.249,448.61 L 52.016,424.901" data-line="nan" stroke-width="45.0" fill="none" stroke="rgb(217, 225, 255)"/><path d="M 1019.895,147.535 C 1018.915,126.858 1014.672,111.124 1009.261,100.298 C 1005.73,94.985 1001.814,90.029 992.752,81.266 C 987.681,77.574 977.161,71.929 961.515,67.187 Q 946.16,65.726 915.151,65.626" data-line="nan" stroke-width="45.0" fill="none" stroke="rgb(217, 225, 255)"/><path d="M 4.666,356.523 C 5.881,366.006 9.539,378.721 12.868,385.975 C 18.637,395.405 29.998,407.512 52.016,424.901" data-line="nan" stroke-width="45.0" fill="none" stroke="rgb(217, 225, 255)"/><path d="M 974.454,426.405 L 52.016,424.901" data-line="0.0" stroke-width="45.0" fill="none" stroke="rgb(217, 225, 255)"/><path d="M 511.283,784.23 L 511.116,958.345" data-line="4.0" stroke-width="45.0" fill="none" stroke="rgb(217, 225, 255)"/><path d="M 225.523,958.316 L 796.569,957.893" data-line="5.0" stroke-width="45.0" fill="none" stroke="rgb(217, 225, 255)"/><circle cx="827.9761812749156" cy="250.13157481892415" r="44.14386668103064" data-line="10.0" stroke-width="45.0" fill="none" stroke="rgb(217, 225, 255)"/><path d="M 788.132,231.676 L 790.403,225.832" data-line="11.0" stroke-width="45.0" fill="none" stroke="rgb(217, 225, 255)"/><circle cx="829.1986312544628" cy="608.1695297563197" r="43.64869158665408" data-line="13.0" stroke-width="45.0" fill="none" stroke="rgb(217, 225, 255)"/><path d="M 787.927,624.025 L 789.795,630.095" data-line="14.0" stroke-width="45.0" fill="none" stroke="rgb(217, 225, 255)"/><path d="M 4.312,697.923 L 4.063,509.271" data-line="14.0" stroke-width="45.0" fill="none" stroke="rgb(217, 225, 255)"/><path d="M 913.427,784.178 L 77.603,784.664" data-line="16.0" stroke-width="45.0" fill="none" stroke="rgb(217, 225, 255)"/><path d="M 77.61161095097816,784.9424011267411 A 71.63170777033801,71.63170777033801 0 0,1 5.393886016312038,698.1577154772918" data-line="17.0" stroke-width="45.0" fill="none" stroke="rgb(217, 225, 255)"/><path d="M 4.571,152.353 L 4.666,356.523" data-line="17.0" stroke-width="45.0" fill="none" stroke="rgb(217, 225, 255)"/><path d="M 915.151,65.626 L 82.342,65.642" data-line="20.0" stroke-width="45.0" fill="none" stroke="rgb(217, 225, 255)"/><path d="M 82.25693813103547,66.26846301717865 A 69.15396156518023,69.15396156518023 0 0,0 5.971618252018473,151.99334169868" data-line="21.0" stroke-width="45.0" fill="none" stroke="rgb(217, 225, 255)"/></g></svg>