<svg width="549" height="338" viewBox="0 0 549 338" xmlns="http://www.w3.org/2000/svg"><mask id="satori_om-id"><rect x="0" y="0" width="549" height="338" fill="#fff"/></mask><defs><clipPath id="satori_bc-id-0"><path x="0" y="0" width="549" height="338" d="M12,0 h533.564 a3.436,3.436 0 0 1 3.436,3.436 v331.12800000000004 a3.436,3.436 0 0 1 -3.436,3.436 h-533.564 a12,12 0 0 1 -12,-12 v-314 a12,12 0 0 1 12,-12"/></clipPath></defs><mask id="satori_om-id-0"><rect x="3" y="3" width="543" height="332" fill="#fff"/><path width="549" height="338" fill="none" stroke="#000" stroke-width="6" d="M3.5150000000000006,3.5150000000000006 A12,12 0 0 1 12,0 h533.564 a3.436,3.436 0 0 1 3.436,3.436 v331.12800000000004 a3.436,3.436 0 0 1 -3.436,3.436 h-533.564 a12,12 0 0 1 -12,-12 v-314 A12,12 0 0 1 3.5150000000000006,3.5150000000000006"/></mask><path x="0" y="0" width="549" height="338" fill="rgb(12, 10, 51)" d="M12,0 h533.564 a3.436,3.436 0 0 1 3.436,3.436 v331.12800000000004 a3.436,3.436 0 0 1 -3.436,3.436 h-533.564 a12,12 0 0 1 -12,-12 v-314 a12,12 0 0 1 12,-12"/><path width="549" height="338" clip-path="url(#satori_bc-id-0)" fill="none" stroke="rgb(68, 66, 107)" stroke-width="6" d="M3.5150000000000006,3.5150000000000006 A12,12 0 0 1 12,0 h533.564 a3.436,3.436 0 0 1 3.436,3.436 v331.12800000000004 a3.436,3.436 0 0 1 -3.436,3.436 h-533.564 a12,12 0 0 1 -12,-12 v-314 A12,12 0 0 1 3.5150000000000006,3.5150000000000006"/><mask id="satori_om-id-0-0"><rect x="0" y="0" width="12" height="338" fill="#fff"/></mask><path x="0" y="0" width="12" height="338" fill="rgb(128, 97, 255)" d="M3.436,0 h8.564 a0,0 0 0 1 0,0 v338 a0,0 0 0 1 0,0 h-8.564 a3.436,3.436 0 0 1 -3.436,-3.436 v-331.128 a3.436,3.436 0 0 1 3.436,-3.436"/></svg>