<svg xmlns="http://www.w3.org/2000/svg" width="69" height="69" viewBox="24.01599884033203 -40.97780990600586 975.968017578125 1105.966796875" class="colorable-icon reset-top-left-margin" data-export-recolorable-svg="true" overflow="visible" xmlns:xlink="http://www.w3.org/1999/xlink" fill="rgb(0, 0, 0)" stroke="none" preserveAspectRatio="xMidYMid meet"><g fill="none" stroke="url(&quot;#theme-accent-gradient-linear&quot;) rgb(128, 97, 255)" stroke-width="45" stroke-linecap="round" stroke-linejoin="round"><path d="M 553.493,722.296 C 580.841,695.91 588.166,686.698 596.227,672.637 C 601.385,658.653 604.079,644.97 604.766,631.34 C 602.597,613.116 598.494,599.419 591.951,585.836 C 582.201,572.145 569.528,559.949 555.46,550.677 C 541.933,544.731 528.468,541.115 510.756,539.275 C 497.788,540.101 480.699,544.219 467.278,549.853 C 454.104,558.182 445.107,565.966 433.655,579.5 C 425.838,592.841 419.513,610.502 417.221,623.918 C 417.046,641.802 420.453,659.763 425.483,673.031 C 433.16,686.563 440.232,695.871 448.969,705.009 L 469.294,721.804" data-line="nan" stroke-width="45.0" fill="none" stroke="url(&quot;#theme-accent-gradient-linear&quot;) rgb(128, 97, 255)"/><path d="M 829.302,384.903 C 844.984,385.489 861.272,388.425 876.457,393.095 C 889.941,399.132 901.909,406.3 910.309,413.211 C 926.522,429.168 933.248,437.489 939.652,447.789 C 945.691,460.634 950.021,473.328 952.48,484.118 Q 954.61,506.138 954.886,556.04" data-line="nan" stroke-width="45.0" fill="none" stroke="url(&quot;#theme-accent-gradient-linear&quot;) rgb(128, 97, 255)"/><path d="M 954.984,880.538 C 954.553,898.182 953.033,913.381 950.48,927.677 C 946.98,940.187 938.145,957.634 930.689,969.746 C 921.837,980.647 910.173,991.913 898.149,1000.659 C 887.105,1006.852 871.298,1013.576 860.609,1016.837 Q 838.998,1019.726 791.498,1019.927" data-line="nan" stroke-width="45.0" fill="none" stroke="url(&quot;#theme-accent-gradient-linear&quot;) rgb(128, 97, 255)"/><path d="M 199.343,1019.989 C 185.478,1019.708 169.421,1017.561 155.843,1014.023 C 140.873,1008.124 126.687,1000.41 115.678,992.587 C 105.35,983.291 95.205,971.732 87.762,960.895 C 80.769,947.562 75.071,932.53 71.942,920.837 Q 69.338,900.248 69.019,847.892" data-line="nan" stroke-width="45.0" fill="none" stroke="url(&quot;#theme-accent-gradient-linear&quot;) rgb(128, 97, 255)"/><path d="M 69.016,510.053 C 69.579,491.961 71.61,478.516 76.022,463.021 C 81.58,449.977 89.514,436.498 97.332,426.464 C 108.816,414.797 120.143,405.943 131.938,398.95 C 142.391,394.072 157.606,389.16 171.136,386.35 Q 191.782,384.87 250.797,384.611" data-line="nan" stroke-width="45.0" fill="none" stroke="url(&quot;#theme-accent-gradient-linear&quot;) rgb(128, 97, 255)"/><path d="M 552.975,826.411 C 551.953,844.83 548.903,854.257 543.135,863.269 C 539.347,867.268 530.522,873.528 525.814,875.656 C 516.58,877.968 507.592,878.139 503.063,877.458 C 493.866,874.342 489.194,871.724 480.584,864.25 C 477.198,859.769 472.892,851.68 470.901,845.087 Q 469.832,836.91 469.294,721.804" data-line="nan" stroke-width="45.0" fill="none" stroke="url(&quot;#theme-accent-gradient-linear&quot;) rgb(128, 97, 255)"/><path d="M 250.797,384.611 L 829.302,384.903" data-line="0.0" stroke-width="45.0" fill="none" stroke="url(&quot;#theme-accent-gradient-linear&quot;) rgb(128, 97, 255)"/><path d="M 782.769,384.73 L 781.506,250.11" data-line="1.0" stroke-width="45.0" fill="none" stroke="url(&quot;#theme-accent-gradient-linear&quot;) rgb(128, 97, 255)"/><path d="M 553.493,722.296 L 552.975,826.411" data-line="4.0" stroke-width="45.0" fill="none" stroke="url(&quot;#theme-accent-gradient-linear&quot;) rgb(128, 97, 255)"/><path d="M 954.886,556.04 L 954.984,880.538" data-line="6.0" stroke-width="45.0" fill="none" stroke="url(&quot;#theme-accent-gradient-linear&quot;) rgb(128, 97, 255)"/><path d="M 791.498,1019.927 L 199.343,1019.989" data-line="8.0" stroke-width="45.0" fill="none" stroke="url(&quot;#theme-accent-gradient-linear&quot;) rgb(128, 97, 255)"/><path d="M 69.019,847.892 L 69.016,510.053" data-line="10.0" stroke-width="45.0" fill="none" stroke="url(&quot;#theme-accent-gradient-linear&quot;) rgb(128, 97, 255)"/><path d="M 781.200891312652,250.13739235659057 A 270.2837576515622,270.2837576515622 0 0,0 243.27119029974244,245.35422654230663" data-line="12.0" stroke-width="45.0" fill="none" stroke="url(&quot;#theme-accent-gradient-linear&quot;) rgb(128, 97, 255)"/><path d="M 244.188,245.453 L 241.586,384.683" data-line="13.0" stroke-width="45.0" fill="none" stroke="url(&quot;#theme-accent-gradient-linear&quot;) rgb(128, 97, 255)"/></g></svg>