<svg xmlns="http://www.w3.org/2000/svg" width="69" height="69" viewBox="-39.87337017059326 67.2030029296875 1104.8543701171875 889.593994140625" class="colorable-icon reset-top-left-margin" data-export-recolorable-svg="true" overflow="visible" xmlns:xlink="http://www.w3.org/1999/xlink" fill="rgb(0, 0, 0)" stroke="none" preserveAspectRatio="xMidYMid meet"><g fill="none" stroke="url(&quot;#theme-accent-gradient-linear&quot;) rgb(128, 97, 255)" stroke-width="45" stroke-linecap="round" stroke-linejoin="round"><path d="M 1012.828,815.999 C 1016.531,826.229 1019.134,836.52 1019.981,844.086 C 1019.637,852.703 1017.618,863.317 1014.575,872.156 C 1008.901,882.489 1003.838,889.454 995.802,897.398 C 990.0,901.742 984.165,905.09 976.483,908.14 C 966.737,910.615 959.282,911.541 931.65,911.691" data-line="nan" stroke-width="45.0" fill="none" stroke="url(&quot;#theme-accent-gradient-linear&quot;) rgb(128, 97, 255)"/><path d="M 75.323,911.797 C 64.263,911.444 55.636,909.943 44.618,906.229 C 37.172,902.441 29.644,897.328 22.885,891.472 C 17.289,885.048 10.217,873.916 6.608,865.233 C 5.013,858.244 4.193,844.101 6.846,831.998 L 16.678,802.997" data-line="nan" stroke-width="45.0" fill="none" stroke="url(&quot;#theme-accent-gradient-linear&quot;) rgb(128, 97, 255)"/><path d="M 86.617,228.498 C 86.457,211.981 87.47,200.62 90.347,187.526 C 95.339,174.546 101.59,163.375 109.487,152.519 C 119.098,142.409 132.023,132.13 141.52,126.24 C 153.534,120.542 165.997,116.308 177.119,113.811 Q 196.075,112.701 256.64,112.603" data-line="nan" stroke-width="45.0" fill="none" stroke="url(&quot;#theme-accent-gradient-linear&quot;) rgb(128, 97, 255)"/><path d="M 823.746,112.203 C 840.224,112.482 851.084,113.579 861.996,115.86 C 873.044,119.359 884.199,124.342 895.387,131.156 C 905.955,139.543 915.679,149.636 923.884,160.581 C 930.134,171.615 934.708,182.714 937.686,193.826 Q 939.571,210.496 939.778,254.57" data-line="nan" stroke-width="45.0" fill="none" stroke="url(&quot;#theme-accent-gradient-linear&quot;) rgb(128, 97, 255)"/><path d="M 942.754,618.703 L 82.25,618.95" data-line="0.0" stroke-width="45.0" fill="none" stroke="url(&quot;#theme-accent-gradient-linear&quot;) rgb(128, 97, 255)"/><path d="M 942.754,618.703 L 1012.828,815.999" data-line="1.0" stroke-width="45.0" fill="none" stroke="url(&quot;#theme-accent-gradient-linear&quot;) rgb(128, 97, 255)"/><path d="M 84.582,608.159 C 85.72413089496125,604.607990436357 85.68886931042691,604.2850094586153 86.429,599.846" data-line="2.0" stroke-width="45.0" fill="none" stroke="url(&quot;#theme-accent-gradient-linear&quot;) rgb(128, 97, 255)"/><path d="M 86.429,599.846 L 86.617,228.498" data-line="3.0" stroke-width="45.0" fill="none" stroke="url(&quot;#theme-accent-gradient-linear&quot;) rgb(128, 97, 255)"/><path d="M 931.65,911.691 L 75.323,911.797" data-line="5.0" stroke-width="45.0" fill="none" stroke="url(&quot;#theme-accent-gradient-linear&quot;) rgb(128, 97, 255)"/><path d="M 16.678,802.997 L 84.582,608.159" data-line="7.0" stroke-width="45.0" fill="none" stroke="url(&quot;#theme-accent-gradient-linear&quot;) rgb(128, 97, 255)"/><path d="M 256.64,112.603 L 823.746,112.203" data-line="9.0" stroke-width="45.0" fill="none" stroke="url(&quot;#theme-accent-gradient-linear&quot;) rgb(128, 97, 255)"/><path d="M 939.778,254.57 L 942.754,618.703" data-line="11.0" stroke-width="45.0" fill="none" stroke="url(&quot;#theme-accent-gradient-linear&quot;) rgb(128, 97, 255)"/></g></svg>