<svg xmlns="http://www.w3.org/2000/svg" width="36" height="36" viewBox="50.7030029296875 -41 922.635009765625 1106" class="colorable-icon reset-top-left-margin" data-export-recolorable-svg="true" overflow="visible" xmlns:xlink="http://www.w3.org/1999/xlink" fill="rgb(0, 0, 0)" stroke="none" preserveAspectRatio="xMidYMid meet"><g fill="none" stroke="rgb(255, 255, 255)" stroke-width="45" stroke-linecap="round" stroke-linejoin="round"><path d="M 513.129,4.0 C 440.345,52.11 414.223,67.714 361.778,94.686 C 334.022,107.254 309.266,117.408 255.016,136.364 C 228.367,144.153 199.94,151.293 152.427,160.242 L 96.055,166.26" data-line="nan" stroke-width="45.0" fill="none" stroke="rgb(255, 255, 255)"/><path d="M 928.122,165.529 C 872.204,159.915 821.676,150.397 769.044,136.291 C 742.942,127.756 714.191,117.139 663.587,95.281 C 616.609,70.885 576.676,46.862 513.129,4.0" data-line="nan" stroke-width="45.0" fill="none" stroke="rgb(255, 255, 255)"/><path d="M 928.122,165.529 L 928.171,239.035" data-line="nan" stroke-width="45.0" fill="none" stroke="rgb(255, 255, 255)"/><path d="M 928.338,317.557 C 927.342,368.664 925.146,411.085 922.283,445.088 C 917.729,479.078 911.787,511.284 901.827,555.343 Q 890.903,592.372 878.401,627.221" data-line="nan" stroke-width="45.0" fill="none" stroke="rgb(255, 255, 255)"/><path d="M 507.651,1018.325 C 485.381,1005.29 451.934,983.226 421.538,961.493 C 391.687,938.497 362.266,914.019 334.501,889.393 Q 309.085,865.211 284.673,840.046" data-line="nan" stroke-width="45.0" fill="none" stroke="rgb(255, 255, 255)"/><path d="M 640.166,338.23 C 638.958,325.478 636.538,313.076 632.861,300.865 C 627.874,288.775 616.967,270.217 608.227,259.505 C 599.986,251.141 589.065,241.919 578.335,234.509 C 568.131,228.723 557.488,223.997 546.614,220.266 C 535.204,217.494 521.479,215.644 508.971,215.238 C 496.444,216.131 484.264,218.245 470.757,222.244 C 459.861,226.635 449.576,231.843 437.958,239.118 C 427.618,247.184 419.417,254.879 412.035,263.127 C 404.159,273.83 397.892,284.659 393.846,293.54 C 389.62,305.707 387.035,316.014 385.149,328.371 L 384.235,341.065" data-line="nan" stroke-width="45.0" fill="none" stroke="rgb(255, 255, 255)"/><path d="M 114.821,517.242 C 106.804,472.856 100.968,423.797 98.784,389.828 L 97.194,332.562" data-line="nan" stroke-width="45.0" fill="none" stroke="rgb(255, 255, 255)"/><path d="M 95.703,196.522 L 96.055,166.26" data-line="nan" stroke-width="45.0" fill="none" stroke="rgb(255, 255, 255)"/><path d="M 321.837,674.079 C 322.287,686.876 326.131,701.628 333.407,714.191 C 341.162,722.135 352.762,729.484 365.429,733.819 Q 378.176,735.52 400.438,735.695" data-line="nan" stroke-width="45.0" fill="none" stroke="rgb(255, 255, 255)"/><path d="M 638.966,735.773 C 657.14,734.466 670.826,730.648 681.519,724.681 C 691.619,714.988 698.063,704.366 701.941,692.791 Q 703.42,680.419 703.191,657.074" data-line="nan" stroke-width="45.0" fill="none" stroke="rgb(255, 255, 255)"/><path d="M 507.651,1018.325 L 511.043,1019.358" data-line="4.0" stroke-width="45.0" fill="none" stroke="rgb(255, 255, 255)"/><path d="M 511.043,1019.358 L 513.402,1019.803" data-line="5.0" stroke-width="45.0" fill="none" stroke="rgb(255, 255, 255)"/><path d="M 513.402,1019.803 L 516.396,1020.0" data-line="6.0" stroke-width="45.0" fill="none" stroke="rgb(255, 255, 255)"/><path d="M 343.886,421.353 L 677.635,420.12" data-line="13.0" stroke-width="45.0" fill="none" stroke="rgb(255, 255, 255)"/><path d="M 343.886,421.353 L 340.89,422.609" data-line="14.0" stroke-width="45.0" fill="none" stroke="rgb(255, 255, 255)"/><path d="M 340.89,422.609 L 337.963,424.171" data-line="15.0" stroke-width="45.0" fill="none" stroke="rgb(255, 255, 255)"/><path d="M 337.963,424.171 Q 335.12449999664295,425.9164999987463 332.516,428.208" data-line="16.0" stroke-width="45.0" fill="none" stroke="rgb(255, 255, 255)"/><path d="M 332.516,428.208 L 330.429,430.243" data-line="17.0" stroke-width="45.0" fill="none" stroke="rgb(255, 255, 255)"/><path d="M 330.429,430.243 L 328.681,432.444" data-line="18.0" stroke-width="45.0" fill="none" stroke="rgb(255, 255, 255)"/><path d="M 328.681,432.444 L 327.203,434.976" data-line="19.0" stroke-width="45.0" fill="none" stroke="rgb(255, 255, 255)"/><path d="M 327.203,434.976 L 321.837,674.079" data-line="20.0" stroke-width="45.0" fill="none" stroke="rgb(255, 255, 255)"/><path d="M 701.8879999997577,446.46000000005745 A 36.81087645585303,36.81087645585303 0 0,0 699.9379999997349,440.5280000001129" data-line="21.0" stroke-width="45.0" fill="none" stroke="rgb(255, 255, 255)"/><path d="M 699.9379999823518,440.5280000078415 A 50.258467460450106,50.258467460450106 0 0,0 695.7129999835768,432.8870000110456" data-line="22.0" stroke-width="45.0" fill="none" stroke="rgb(255, 255, 255)"/><path d="M 695.713,432.887 L 693.084,429.523" data-line="23.0" stroke-width="45.0" fill="none" stroke="rgb(255, 255, 255)"/><path d="M 693.084,429.523 L 690.302,426.841" data-line="24.0" stroke-width="45.0" fill="none" stroke="rgb(255, 255, 255)"/><path d="M 690.302,426.841 L 686.959,424.448" data-line="25.0" stroke-width="45.0" fill="none" stroke="rgb(255, 255, 255)"/><path d="M 686.959,424.448 L 683.533,422.499" data-line="26.0" stroke-width="45.0" fill="none" stroke="rgb(255, 255, 255)"/><path d="M 683.5329999999213,422.49900000016 A 43.069763183846106,43.069763183846106 0 0,0 677.6349999999327,420.12000000021044" data-line="27.0" stroke-width="45.0" fill="none" stroke="rgb(255, 255, 255)"/><path d="M 495.27,578.736 L 508.88,588.116" data-line="31.0" stroke-width="45.0" fill="none" stroke="rgb(255, 255, 255)"/><path d="M 495.27,578.736 L 492.37,576.174" data-line="32.0" stroke-width="45.0" fill="none" stroke="rgb(255, 255, 255)"/><path d="M 492.37,576.174 L 488.65,572.233" data-line="33.0" stroke-width="45.0" fill="none" stroke="rgb(255, 255, 255)"/><path d="M 488.65,572.233 L 485.793,567.996" data-line="34.0" stroke-width="45.0" fill="none" stroke="rgb(255, 255, 255)"/><path d="M 485.793,567.996 L 483.746,563.578" data-line="35.0" stroke-width="45.0" fill="none" stroke="rgb(255, 255, 255)"/><path d="M 483.746,563.578 L 482.497,559.304" data-line="36.0" stroke-width="45.0" fill="none" stroke="rgb(255, 255, 255)"/><path d="M 482.497,559.304 L 481.929,555.13" data-line="37.0" stroke-width="45.0" fill="none" stroke="rgb(255, 255, 255)"/><path d="M 481.929,555.13 L 481.911,551.073" data-line="38.0" stroke-width="45.0" fill="none" stroke="rgb(255, 255, 255)"/><path d="M 481.911,551.073 L 482.452,547.03" data-line="39.0" stroke-width="45.0" fill="none" stroke="rgb(255, 255, 255)"/><path d="M 482.452,547.03 L 483.572,542.913" data-line="40.0" stroke-width="45.0" fill="none" stroke="rgb(255, 255, 255)"/><path d="M 483.572,542.913 L 485.354,538.848" data-line="41.0" stroke-width="45.0" fill="none" stroke="rgb(255, 255, 255)"/><path d="M 485.354,538.848 L 487.795,534.874" data-line="42.0" stroke-width="45.0" fill="none" stroke="rgb(255, 255, 255)"/><path d="M 487.795,534.874 L 490.878,531.265" data-line="43.0" stroke-width="45.0" fill="none" stroke="rgb(255, 255, 255)"/><path d="M 490.878,531.265 L 494.43,528.107" data-line="44.0" stroke-width="45.0" fill="none" stroke="rgb(255, 255, 255)"/><path d="M 494.43,528.107 L 498.363,525.602" data-line="45.0" stroke-width="45.0" fill="none" stroke="rgb(255, 255, 255)"/><path d="M 498.363,525.602 L 502.245,523.788" data-line="46.0" stroke-width="45.0" fill="none" stroke="rgb(255, 255, 255)"/><path d="M 502.245,523.788 L 506.173,522.655" data-line="47.0" stroke-width="45.0" fill="none" stroke="rgb(255, 255, 255)"/><path d="M 506.173,522.655 L 509.515,522.077" data-line="48.0" stroke-width="45.0" fill="none" stroke="rgb(255, 255, 255)"/><path d="M 509.515,522.077 L 512.708,521.894" data-line="49.0" stroke-width="45.0" fill="none" stroke="rgb(255, 255, 255)"/><path d="M 512.708,521.894 Q 515.072499983398,521.8929999471492 517.439,522.264" data-line="50.0" stroke-width="45.0" fill="none" stroke="rgb(255, 255, 255)"/><path d="M 517.437589933059,522.2723155610989 A 35.651663864078856,35.651663864078856 0 0,1 526.3515362875095,525.021653518797" data-line="51.0" stroke-width="45.0" fill="none" stroke="rgb(255, 255, 255)"/><path d="M 526.35,525.025 L 528.519,526.179" data-line="52.0" stroke-width="45.0" fill="none" stroke="rgb(255, 255, 255)"/><path d="M 528.519,526.179 L 530.748,527.64" data-line="53.0" stroke-width="45.0" fill="none" stroke="rgb(255, 255, 255)"/><path d="M 530.7076869450236,527.6984225821584 A 31.575994737229617,31.575994737229617 0 0,1 544.2083888781685,556.6793667231623" data-line="54.0" stroke-width="45.0" fill="none" stroke="rgb(255, 255, 255)"/><path d="M 544.1503209225708,556.6737534402175 A 41.20174278616598,41.20174278616598 0 0,1 540.7883528695793,567.9686250558104" data-line="55.0" stroke-width="45.0" fill="none" stroke="rgb(255, 255, 255)"/><path d="M 540.787,567.968 L 539.388,570.415" data-line="56.0" stroke-width="45.0" fill="none" stroke="rgb(255, 255, 255)"/><path d="M 539.388,570.415 L 537.888,572.468" data-line="57.0" stroke-width="45.0" fill="none" stroke="rgb(255, 255, 255)"/><path d="M 537.8879999983891,572.4679999986844 A 35.61122510022583,35.61122510022583 0 0,1 534.2109999986054,576.3379999984602" data-line="58.0" stroke-width="45.0" fill="none" stroke="rgb(255, 255, 255)"/><path d="M 928.171,239.035 L 928.338,317.557" data-line="58.0" stroke-width="45.0" fill="none" stroke="rgb(255, 255, 255)"/><path d="M 534.2109999981063,576.3379999978473 A 32.058929946347625,32.058929946347625 0 0,1 529.7739999985238,579.6099999975886" data-line="59.0" stroke-width="45.0" fill="none" stroke="rgb(255, 255, 255)"/><path d="M 529.774,579.61 Q 526.5709985813367,581.3164947204634 525.16,581.945" data-line="60.0" stroke-width="45.0" fill="none" stroke="rgb(255, 255, 255)"/><path d="M 640.389,418.752 L 640.166,338.23" data-line="61.0" stroke-width="45.0" fill="none" stroke="rgb(255, 255, 255)"/><path d="M 525.16,581.945 L 512.17,586.869" data-line="61.0" stroke-width="45.0" fill="none" stroke="rgb(255, 255, 255)"/><path d="M 512.202,590.406 L 512.667,643.384" data-line="62.0" stroke-width="45.0" fill="none" stroke="rgb(255, 255, 255)"/><path d="M 879.2897963669585,627.6035441627175 A 747.2265082577793,747.2265082577793 0 0,1 676.0685414149061,902.2203271105084" data-line="63.0" stroke-width="45.0" fill="none" stroke="rgb(255, 255, 255)"/><path d="M 384.235,341.065 L 384.539,418.775" data-line="63.0" stroke-width="45.0" fill="none" stroke="rgb(255, 255, 255)"/><path d="M 676.559,902.799 L 516.396,1020.0" data-line="64.0" stroke-width="45.0" fill="none" stroke="rgb(255, 255, 255)"/><path d="M 285.29466431649377,839.4284200883195 A 626.6419200217993,626.6419200217993 0 0,1 114.70849649246531,517.2638507116234" data-line="65.0" stroke-width="45.0" fill="none" stroke="rgb(255, 255, 255)"/><path d="M 97.194,332.562 L 95.703,196.522" data-line="65.0" stroke-width="45.0" fill="none" stroke="rgb(255, 255, 255)"/><path d="M 400.438,735.695 L 638.966,735.773" data-line="68.0" stroke-width="45.0" fill="none" stroke="rgb(255, 255, 255)"/><path d="M 703.191,657.074 L 701.888,446.46" data-line="70.0" stroke-width="45.0" fill="none" stroke="rgb(255, 255, 255)"/></g></svg>