<svg width="837" height="411" viewBox="0 0 837 411" xmlns="http://www.w3.org/2000/svg"><mask id="satori_om-id"><rect x="0" y="0" width="837" height="411" fill="#fff"/></mask><defs><clipPath id="satori_bc-id-0"><path x="0" y="0" width="837" height="411" d="M12,0 h821.564 a3.436,3.436 0 0 1 3.436,3.436 v404.12800000000004 a3.436,3.436 0 0 1 -3.436,3.436 h-821.564 a12,12 0 0 1 -12,-12 v-387 a12,12 0 0 1 12,-12"/></clipPath></defs><mask id="satori_om-id-0"><rect x="3" y="3" width="831" height="405" fill="#fff"/><path width="837" height="411" fill="none" stroke="#000" stroke-width="6" d="M3.5150000000000006,3.5150000000000006 A12,12 0 0 1 12,0 h821.564 a3.436,3.436 0 0 1 3.436,3.436 v404.12800000000004 a3.436,3.436 0 0 1 -3.436,3.436 h-821.564 a12,12 0 0 1 -12,-12 v-387 A12,12 0 0 1 3.5150000000000006,3.5150000000000006"/></mask><path x="0" y="0" width="837" height="411" fill="rgb(12, 10, 51)" d="M12,0 h821.564 a3.436,3.436 0 0 1 3.436,3.436 v404.12800000000004 a3.436,3.436 0 0 1 -3.436,3.436 h-821.564 a12,12 0 0 1 -12,-12 v-387 a12,12 0 0 1 12,-12"/><path width="837" height="411" clip-path="url(#satori_bc-id-0)" fill="none" stroke="rgb(68, 66, 107)" stroke-width="6" d="M3.5150000000000006,3.5150000000000006 A12,12 0 0 1 12,0 h821.564 a3.436,3.436 0 0 1 3.436,3.436 v404.12800000000004 a3.436,3.436 0 0 1 -3.436,3.436 h-821.564 a12,12 0 0 1 -12,-12 v-387 A12,12 0 0 1 3.5150000000000006,3.5150000000000006"/><mask id="satori_om-id-0-0"><rect x="0" y="0" width="12" height="411" fill="#fff"/></mask><path x="0" y="0" width="12" height="411" fill="rgb(128, 97, 255)" d="M3.436,0 h8.564 a0,0 0 0 1 0,0 v411 a0,0 0 0 1 0,0 h-8.564 a3.436,3.436 0 0 1 -3.436,-3.436 v-404.128 a3.436,3.436 0 0 1 3.436,-3.436"/></svg>