<svg xmlns="http://www.w3.org/2000/svg" width="36" height="36" viewBox="17.657001495361328 -41.2608642578125 988.353759765625 1106.2608642578125" class="colorable-icon reset-top-left-margin" data-export-recolorable-svg="true" overflow="visible" xmlns:xlink="http://www.w3.org/1999/xlink" fill="rgb(0, 0, 0)" stroke="none" preserveAspectRatio="xMidYMid meet"><g fill="none" stroke="rgb(255, 255, 255)" stroke-width="45" stroke-linecap="round" stroke-linejoin="round"><path d="M 148.256,654.86 C 123.585,673.924 105.182,690.915 88.154,711.271 C 77.798,728.08 72.923,738.498 68.665,750.457 C 63.989,771.555 62.816,783.13 62.657,794.929 C 63.52,807.089 65.564,818.84 72.57,840.726 C 83.035,861.12 96.996,880.867 117.106,901.987 C 138.0,919.48 162.249,935.966 187.897,950.454 L 221.463,966.22" data-line="nan" stroke-width="45.0" fill="none" stroke="rgb(255, 255, 255)"/><path d="M 335.277,687.989 C 317.301,700.364 303.86,713.957 294.318,728.359 C 290.167,737.843 288.146,745.022 286.779,759.27 C 288.075,768.687 289.858,775.034 293.677,784.751 C 298.053,792.712 302.948,800.019 310.247,808.378 C 322.035,818.983 345.937,834.788 369.808,846.392 C 394.819,855.488 422.935,862.964 453.373,868.321 C 479.774,870.99 515.463,871.745 542.028,871.026 C 577.471,866.992 606.326,861.38 635.22,853.186 C 658.704,844.143 682.101,832.285 700.963,819.785 C 710.289,812.11 717.277,805.08 728.042,790.568 C 734.602,775.696 736.442,767.996 737.39,758.921 C 737.077,751.336 735.77,743.95 733.571,736.889 C 729.386,727.879 719.677,713.547 711.939,705.11 Q 704.704,698.737 687.278,686.989" data-line="nan" stroke-width="45.0" fill="none" stroke="rgb(255, 255, 255)"/><path d="M 221.463,966.22 C 248.139,976.9 271.947,985.036 303.212,994.119 C 333.775,1001.526 369.521,1008.449 403.481,1013.593 C 439.04,1017.403 472.469,1019.451 510.741,1020.0 C 546.638,1019.466 575.348,1017.871 611.356,1014.36 C 645.029,1009.667 680.014,1003.257 710.383,996.343 L 743.124,987.263" data-line="nan" stroke-width="45.0" fill="none" stroke="rgb(255, 255, 255)"/><path d="M 743.124,987.263 C 780.951,974.46 816.525,959.715 850.496,942.326 C 878.645,924.35 903.06,904.996 912.966,895.66 C 923.912,883.766 939.788,861.974 947.817,847.488 C 952.077,837.879 956.484,825.199 959.194,813.741 C 960.917,801.43 961.375,787.038 960.735,775.238 C 958.828,762.7 955.693,750.607 950.878,737.601 C 941.205,719.334 933.061,707.897 924.705,698.044 Q 904.687,678.668 875.151,655.791" data-line="nan" stroke-width="45.0" fill="none" stroke="rgb(255, 255, 255)"/><circle cx="512.24273853925" cy="191.4694693268769" r="187.73032981616544" data-line="0.0" stroke-width="45.0" fill="none" stroke="rgb(255, 255, 255)"/><path d="M 511.122,493.988 L 511.137,743.871" data-line="2.0" stroke-width="45.0" fill="none" stroke="rgb(255, 255, 255)"/></g></svg>