<svg xmlns="http://www.w3.org/2000/svg" width="36" height="36" viewBox="-40.69679880142212 -37.19305372238159 1105.3504638671875 1099.0470581054688" class="colorable-icon reset-top-left-margin" data-export-recolorable-svg="true" overflow="visible" xmlns:xlink="http://www.w3.org/1999/xlink" fill="rgb(0, 0, 0)" stroke="none" preserveAspectRatio="xMidYMid meet"><g fill="none" stroke="rgb(255, 255, 255)" stroke-width="45" stroke-linecap="round" stroke-linejoin="round"><path d="M 523.545,677.082 C 482.648,642.09 441.598,603.08 402.342,562.112 C 361.946,516.128 319.922,464.829 304.265,444.407 C 297.462,434.194 292.248,423.794 288.985,413.332 Q 287.519,402.976 287.617,397.876" data-line="nan" stroke-width="45.0" fill="none" stroke="rgb(255, 255, 255)"/><path d="M 287.617,397.876 C 289.332,387.482 292.848,377.181 302.147,361.952 C 310.785,351.94 368.962,291.005 379.809,275.686 C 384.637,264.993 387.808,254.225 389.223,243.837 C 387.802,228.235 384.685,217.964 380.015,207.631 Q 373.677,197.242 366.198,187.007" data-line="nan" stroke-width="45.0" fill="none" stroke="rgb(255, 255, 255)"/><path d="M 366.198,187.007 C 267.969,64.492 241.883,33.061 231.849,23.221 C 221.399,15.782 210.597,10.834 200.298,8.127 C 188.637,7.146 176.732,8.306 161.797,13.201 C 151.613,19.219 141.562,27.279 131.67,36.664 L 46.45,123.376" data-line="nan" stroke-width="45.0" fill="none" stroke="rgb(255, 255, 255)"/><path d="M 46.45,123.376 C 34.038,138.437 23.929,153.798 16.346,169.291 C 11.062,184.462 6.539,204.884 4.311,225.055 C 4.18,245.523 5.69,265.735 9.554,291.398 C 15.271,316.949 22.634,342.46 31.596,367.962 C 42.219,393.773 54.142,419.213 70.721,450.557 L 85.866,476.195" data-line="nan" stroke-width="45.0" fill="none" stroke="rgb(255, 255, 255)"/><path d="M 585.816,956.96 C 631.977,979.382 672.978,995.751 708.694,1006.927 C 729.193,1011.708 744.636,1014.351 775.393,1016.854 C 790.734,1016.248 806.195,1014.367 821.608,1011.47 C 837.126,1007.303 852.449,1001.704 862.852,996.97 C 878.573,988.169 888.682,981.346 904.33,968.807 C 919.841,954.586 994.568,877.628 1007.036,862.604 C 1013.263,852.166 1017.487,841.399 1019.643,830.753 C 1019.862,820.397 1016.685,804.856 1012.04,794.237 C 1005.103,783.69 996.136,773.695 985.886,764.117" data-line="nan" stroke-width="45.0" fill="none" stroke="rgb(255, 255, 255)"/><path d="M 660.67,701.915 C 620.8799600790003,738.1684685353529 566.4768768914167,718.6486157158524 523.545,677.082" data-line="0.0" stroke-width="45.0" fill="none" stroke="rgb(255, 255, 255)"/><path d="M 85.866,476.195 C 195.56555532352186,653.8561942681841 409.4342071850122,866.2677945838763 585.816,956.96" data-line="5.0" stroke-width="45.0" fill="none" stroke="rgb(255, 255, 255)"/><path d="M 985.886,764.117 L 800.818,624.267" data-line="7.0" stroke-width="45.0" fill="none" stroke="rgb(255, 255, 255)"/><path d="M 800.818,624.267 C 752.9011242967872,600.2722363998504 705.7595652020251,657.0781622086797 660.67,701.915" data-line="8.0" stroke-width="45.0" fill="none" stroke="rgb(255, 255, 255)"/></g></svg>