<svg xmlns="http://www.w3.org/2000/svg" width="36" height="36" viewBox="-19.38817024230957 -41.00074768066406 1063.4307861328125 1105.3328247070312" class="colorable-icon reset-top-left-margin" data-export-recolorable-svg="true" overflow="visible" xmlns:xlink="http://www.w3.org/1999/xlink" fill="rgb(0, 0, 0)" stroke="none" preserveAspectRatio="xMidYMid meet"><g fill="none" stroke="rgb(255, 255, 255)" stroke-width="45" stroke-linecap="round" stroke-linejoin="round"><path d="M 333.655,393.086 C 319.304,361.544 309.774,346.07 301.74,335.627 C 292.58,325.602 282.986,316.695 272.792,308.678 C 251.817,295.818 241.6,291.036 226.348,285.508 C 216.053,282.737 200.854,279.964 185.536,278.642 C 175.306,278.603 149.373,281.44 135.702,284.866 C 124.232,288.713 111.769,294.252 101.344,299.963 C 88.812,308.438 78.637,316.709 69.231,325.673 C 60.352,335.591 52.337,346.201 44.366,359.019 C 34.215,381.427 30.43,393.794 27.503,406.883 C 24.985,432.148 25.225,445.156 26.801,460.204 C 31.79,481.792 36.6,495.036 41.403,505.258 C 47.75,516.468 55.087,527.168 63.587,537.685 C 73.604,548.187 83.958,557.279 94.654,565.079 C 115.37,576.521 127.829,581.596 140.931,585.635 C 153.852,588.482 166.461,590.239 181.805,590.987 C 194.613,590.527 217.807,586.847 240.673,579.376 C 251.333,574.427 264.114,567.171 283.011,553.393 L 306.98,531.071" data-line="nan" stroke-width="45.0" fill="none" stroke="rgb(255, 255, 255)"/><circle cx="841.0167890360649" cy="862.4544127944218" r="156.87765126025192" data-line="0.0" stroke-width="45.0" fill="none" stroke="rgb(255, 255, 255)"/><path d="M 306.4849333226396,530.7067388930395 A 157.881955638745,157.881955638745 0 0,0 331.2797991256752,394.31401583833934" data-line="2.0" stroke-width="45.0" fill="none" stroke="rgb(255, 255, 255)"/><circle cx="842.4793545098659" cy="160.56244615742426" r="156.56317971440015" data-line="3.0" stroke-width="45.0" fill="none" stroke="rgb(255, 255, 255)"/><path d="M 841.807,705.875 L 841.184,317.967" data-line="4.0" stroke-width="45.0" fill="none" stroke="rgb(255, 255, 255)"/><path d="M 701.828,787.907 L 306.98,531.071" data-line="5.0" stroke-width="45.0" fill="none" stroke="rgb(255, 255, 255)"/><path d="M 697.573,221.54 L 333.655,393.086" data-line="6.0" stroke-width="45.0" fill="none" stroke="rgb(255, 255, 255)"/></g></svg>