<svg xmlns="http://www.w3.org/2000/svg" viewBox="-41 59.415000915527344 1106 905.1700439453125" width="56" height="56" class="colorable-icon reset-top-left-margin" data-export-recolorable-svg="true" overflow="visible" xmlns:xlink="http://www.w3.org/1999/xlink" fill="rgb(0, 0, 0)" stroke="none" preserveAspectRatio="xMidYMid meet"><g id="skeleton-paths" stroke-width="45.0" fill="rgb(0, 0, 0)" stroke="none"><path id="path-0-0" d="M970.955 910.704L968.257 911.928L965.234 913.136L961.216 914.628L957.287 915.873L953.484 916.898L950.187 917.672L946.854 918.264L943.676 918.663L940.008 919.004L936.400 919.212L933.172 919.335L930.056 919.382L927.377 919.402L924.360 919.422L921.680 919.441L918.664 919.462L915.984 919.481L912.967 919.502L910.288 919.521L907.271 919.542L904.591 919.559L901.575 919.575L898.895 919.582L895.878 919.585L893.199 919.585L890.182 919.585L887.502 919.585L884.486 919.585L881.806 919.585L878.789 919.585L876.110 919.585L873.093 919.585L870.413 919.585L867.397 919.585L864.717 919.585L861.700 919.585L859.020 919.585L856.004 919.585L853.324 919.585L850.308 919.584L847.628 919.584L844.611 919.584L841.931 919.584L838.915 919.584L836.235 919.584L833.219 919.584L830.539 919.584L827.522 919.584L824.842 919.584L821.826 919.584L819.146 919.584L816.130 919.584L813.450 919.584L810.433 919.584L807.753 919.584L804.737 919.583L802.057 919.583L799.041 919.583L796.361 919.583L793.344 919.583L790.664 919.583L787.648 919.583L784.968 919.583L781.952 919.583L779.272 919.583L776.255 919.583L773.575 919.583L770.559 919.583L767.879 919.583L764.863 919.583L762.183 919.582L759.166 919.582L756.486 919.582L753.470 919.582L750.790 919.582L747.774 919.582L745.094 919.582L742.077 919.582L739.397 919.582L736.381 919.582L733.701 919.582L730.685 919.582L728.005 919.582L724.988 919.582L722.308 919.582L719.292 919.581L716.612 919.581L713.595 919.581L710.916 919.581L707.899 919.581L705.219 919.581L702.203 919.581L699.523 919.581L696.506 919.581L693.827 919.581L690.810 919.581L688.130 919.581L685.114 919.581L682.434 919.581L679.417 919.581L676.738 919.581L673.721 919.580L671.041 919.580L668.025 919.580L665.345 919.580L662.328 919.580L659.649 919.580L656.632 919.580L653.952 919.580L650.936 919.580L648.256 919.580L645.239 919.580L642.559 919.580L639.543 919.580L636.863 919.580L633.847 919.580L631.167 919.579L628.150 919.579L625.470 919.579L622.454 919.579L619.774 919.579L616.758 919.579L614.078 919.579L611.061 919.579L608.381 919.579L605.365 919.579L602.685 919.579L599.669 919.579L596.989 919.579L593.972 919.579L591.292 919.579L588.276 919.578L585.596 919.578L582.580 919.578L579.900 919.578L576.883 919.578L574.203 919.578L571.187 919.578L568.507 919.578L565.491 919.578L562.811 919.578L559.794 919.578L557.114 919.578L554.098 919.578L551.418 919.578L548.402 919.578L545.722 919.577L542.705 919.577L540.025 919.577L537.009 919.577L534.329 919.577L531.313 919.577L528.633 919.577L525.616 919.577L522.936 919.577L519.920 919.577L517.240 919.577L514.224 919.577L511.544 919.577L508.527 919.577L505.847 919.577L502.831 919.577L500.151 919.576L497.134 919.576L494.455 919.576L491.438 919.576L488.758 919.576L485.742 919.576L483.062 919.576L480.045 919.576L477.366 919.576L474.349 919.576L471.669 919.576L468.653 919.576L465.973 919.576L462.956 919.576L460.277 919.576L457.260 919.575L454.580 919.575L451.564 919.575L448.884 919.575L445.867 919.575L443.188 919.575L440.171 919.575L437.491 919.575L434.475 919.575L431.795 919.575L428.778 919.575L426.098 919.575L423.082 919.575L420.402 919.575L417.386 919.575L414.706 919.574L411.689 919.574L409.009 919.574L405.993 919.574L403.313 919.574L400.297 919.574L397.617 919.574L394.600 919.574L391.920 919.574L388.904 919.574L386.224 919.574L383.208 919.574L380.528 919.574L377.511 919.574L374.831 919.574L371.815 919.573L369.135 919.573L366.119 919.573L363.439 919.573L360.422 919.573L357.742 919.573L354.726 919.573L352.046 919.573L349.030 919.573L346.350 919.573L343.333 919.573L340.653 919.573L337.637 919.573L334.957 919.573L331.941 919.573L329.261 919.573L326.244 919.572L323.564 919.572L320.548 919.572L317.868 919.572L314.852 919.572L312.172 919.572L309.155 919.572L306.475 919.572L303.459 919.572L300.779 919.572L297.763 919.572L295.083 919.572L292.066 919.572L289.386 919.572L286.370 919.572L283.690 919.571L280.673 919.571L277.994 919.571L274.977 919.571L272.297 919.571L269.281 919.571L266.601 919.571L263.584 919.571L260.905 919.571L257.888 919.571L255.208 919.571L252.192 919.571L249.512 919.571L246.495 919.571L243.816 919.571L240.799 919.570L238.119 919.570L235.103 919.570L232.423 919.570L229.406 919.570L226.727 919.570L223.710 919.570L221.030 919.570L218.014 919.570L215.334 919.570L212.317 919.570L209.638 919.570L206.621 919.570L203.941 919.570L200.925 919.570L198.245 919.569L195.228 919.569L192.548 919.569L189.532 919.569L186.852 919.569L183.836 919.569L181.156 919.569L178.139 919.569L175.459 919.569L172.443 919.569L169.763 919.569L166.747 919.569L164.067 919.569L161.050 919.569L158.370 919.569L155.354 919.569L152.674 919.568L149.658 919.568L146.978 919.568L143.961 919.568L141.281 919.568L138.265 919.568L135.585 919.568L132.569 919.568L129.889 919.568L126.872 919.568L124.192 919.568L121.176 919.568L118.496 919.568L115.480 919.568L112.800 919.568L109.783 919.567L107.103 919.567L104.087 919.567L101.407 919.567L98.391 919.567L95.711 919.567L92.694 919.560L90.014 919.537L86.950 919.443L84.264 919.291L81.095 918.991L77.896 918.549L74.212 917.939L70.458 917.153L66.816 916.217L63.089 915.074L59.308 913.700L55.458 912.102L51.615 910.301L47.779 908.221L43.880 905.858L39.913 903.141L36.177 900.292L33.034 897.657L30.124 894.899L27.340 891.922L24.270 888.391L21.368 884.713L18.979 881.396L16.957 878.204L15.362 875.371L13.725 872.139L12.213 868.746L10.673 864.836L9.287 860.919L8.092 856.964L7.023 852.986L6.116 848.946L5.370 845.049L4.887 841.823L4.561 838.557L4.354 835.243L4.171 830.797L4.068 825.842L4.012 820.265L4 814.631L4 808.935L4 803.238L4 797.542L4 791.846L4 786.149L4 780.453L4 774.756L4 769.060L4 763.364L4 757.667L4 751.971L4 746.275L4 740.578L4 734.882L4 729.186L4 723.489L4 717.793L4 712.097L4 706.400L4 700.704L4 695.008L4 689.311L4 683.615L4 677.919L4 672.222L4 666.526L4 660.830L4 655.133L4 649.437L4 643.741L4 638.044L4 632.348L4 626.652L4 620.955L4 615.259L4 609.563L4 603.866L4 598.170L4 592.474L4 586.777L4 581.081L4 575.385L4 569.688L4 563.992L4 558.295L4 552.599L4 546.903L4 541.206L4 535.510L4 529.814L4 524.117L4 518.421L4 512.725L4 507.028L4 501.332L4 495.636L4 489.939L4 484.243L4 478.547L4 472.850L4 467.154L4 461.458L4 455.761L4 450.065L4 444.369L4 438.672L4 432.976L4 427.280L4 421.583L4 415.887L4 410.191L4 404.494L4 398.798L4 393.102L4 387.405L4 381.709L4 376.013L4 370.316L4 364.620L4 358.924L4 353.227L4 347.531L4 341.835L4 336.138L4 330.442L4 324.745L4 319.049L4 313.353L4 307.656L4 301.960L4 296.264L4 290.567L4 284.871L4 279.175L4 273.478L4 267.782L4 262.086L4 256.389L4 250.693L4 244.997L4 239.300L4 233.604L4 227.908L4 222.211L4 216.515L4 210.819L4 205.241L4 200.213L4.015 195.862L4.040 192.580L4.115 189.452L4.199 186.841L4.337 183.733L4.477 181.082L4.730 177.986L5.043 175.377L5.541 172.332L6.056 169.748L6.759 166.738L7.514 164.033L8.443 161.031L9.352 158.363L10.326 155.709L11.287 153.367L12.553 150.639L13.890 148.012L15.635 144.819L17.367 141.992L19.476 138.881L21.478 136.277L23.917 133.396L26.576 130.603L29.799 127.475L33.282 124.455L36.945 121.648L40.720 119.088L44.625 116.755L48.578 114.658L52.987 112.633L57.753 110.782L62.475 109.147L66.780 107.906L70.094 107.089L73.421 106.436L76.584 105.954L80.188 105.508L83.731 105.198L86.899 104.985L90.014 104.864L92.694 104.793L95.711 104.726L98.391 104.666L101.525 104.605L104.874 104.559L109.231 104.525L114.258 104.511L119.836 104.506L125.532 104.506L131.229 104.506L136.925 104.506L142.621 104.506L148.318 104.506L154.014 104.506L159.710 104.506L165.407 104.506L171.103 104.506L176.799 104.506L182.496 104.506L188.192 104.506L193.888 104.506L199.585 104.506L205.281 104.506L210.977 104.506L216.674 104.506L222.370 104.506L228.066 104.506L233.763 104.506L239.459 104.506L245.155 104.506L250.852 104.506L256.548 104.506L262.245 104.506L267.941 104.506L273.637 104.506L279.334 104.506L285.030 104.506L290.726 104.506L296.423 104.506L302.119 104.506L307.815 104.506L313.512 104.506L319.090 104.506L324.117 104.501L328.473 104.485L331.822 104.458L334.957 104.427L337.637 104.415L340.653 104.439L343.333 104.514L346.379 104.682L349.037 104.910L352.143 105.271L355.389 105.770L359.584 106.544L363.949 107.472L368.149 108.508L371.499 109.453L374.574 110.500L377.428 111.572L380.639 112.910L383.650 114.271L386.854 115.884L389.721 117.502L392.740 119.421L395.423 121.355L398.350 123.694L401.041 126.045L404.021 128.806L406.945 131.698L410.030 134.864L413.170 138.229L415.989 141.305L418.871 144.565L421.348 147.425L424.019 150.556L426.307 153.248L428.793 156.175L431.075 158.862L433.628 161.869L435.910 164.556L438.394 167.481L440.675 170.167L443.229 173.175L445.510 175.861L447.991 178.784L450.271 181.468L452.927 184.586L455.387 187.461L458.167 190.702L460.641 193.587L463.437 196.824L465.956 199.691L468.922 202.930L472.040 206.092L475.591 209.498L479.196 212.662L482.383 215.269L485.500 217.529L488.298 219.326L491.507 221.156L494.377 222.627L497.542 224.089L500.233 225.162L503.478 226.325L506.334 227.186L509.626 228.124L512.337 228.762L515.434 229.403L518.037 229.840L521.069 230.266L523.700 230.544L526.734 230.772L529.414 230.895L532.430 230.975L535.110 231.004L538.127 231.014L540.806 231.013L543.823 231.013L546.503 231.013L549.519 231.013L552.199 231.013L555.216 231.014L557.895 231.014L560.912 231.014L563.592 231.014L566.608 231.014L569.288 231.015L572.305 231.015L574.984 231.015L578 231.015L580.681 231.015L583.697 231.016L586.377 231.016L589.394 231.016L592.074 231.016L595.090 231.016L597.770 231.017L600.786 231.017L603.466 231.017L606.483 231.017L609.163 231.017L612.179 231.018L614.859 231.018L617.875 231.018L620.555 231.018L623.572 231.019L626.252 231.019L629.268 231.019L631.948 231.019L634.964 231.019L637.644 231.020L640.661 231.020L643.341 231.020L646.357 231.020L649.037 231.020L652.053 231.021L654.733 231.021L657.750 231.021L660.430 231.021L663.446 231.021L666.126 231.022L669.142 231.022L671.822 231.022L674.839 231.022L677.519 231.022L680.535 231.023L683.215 231.023L686.231 231.023L688.911 231.023L691.928 231.023L694.608 231.024L697.624 231.024L700.304 231.024L703.320 231.024L706 231.024L709.017 231.025L711.697 231.025L714.713 231.025L717.393 231.025L720.409 231.026L723.089 231.026L726.106 231.026L728.786 231.026L731.802 231.026L734.482 231.027L737.499 231.027L740.178 231.027L743.195 231.027L745.875 231.027L748.891 231.028L751.571 231.028L754.588 231.028L757.267 231.028L760.284 231.028L762.964 231.029L765.980 231.029L768.660 231.029L771.677 231.029L774.356 231.029L777.373 231.030L780.053 231.030L783.069 231.030L785.749 231.030L788.766 231.030L791.445 231.031L794.462 231.031L797.142 231.031L800.158 231.031L802.838 231.031L805.855 231.032L808.535 231.032L811.551 231.032L814.231 231.032L817.247 231.032L819.927 231.033L822.944 231.033L825.624 231.033L828.640 231.033L831.320 231.034L834.336 231.034L837.016 231.034L840.033 231.034L842.713 231.034L845.729 231.035L848.409 231.035L851.425 231.035L854.105 231.035L857.122 231.035L859.802 231.036L862.818 231.036L865.498 231.036L868.514 231.036L871.194 231.036L874.211 231.037L876.891 231.037L879.907 231.037L882.587 231.037L885.603 231.037L888.283 231.038L891.300 231.038L893.980 231.038L896.996 231.038L899.676 231.038L902.692 231.039L905.372 231.039L908.389 231.039L911.069 231.039L914.085 231.039L916.765 231.040L919.781 231.040L922.461 231.040L925.488 231.066L928.123 231.119L931.205 231.254L934.404 231.510L938.141 231.891L941.979 232.422L945.219 232.923L948.443 233.522L951.032 234.024L954.112 234.708L956.586 235.333L959.439 236.164L961.876 236.946L964.978 238.003L968.448 239.396L972.969 241.514L978.071 244.339L983.114 247.473L987.640 250.684L991.139 253.483L994.443 256.495L997.495 259.668L1000.742 263.325L1003.700 267.046L1006.114 270.374L1008.192 273.664L1009.748 276.422L1011.311 279.477L1012.485 282.063L1013.787 285.339L1014.956 288.862L1016.249 293.298L1017.331 297.670L1018.179 301.900L1018.688 305.228L1019.036 308.553L1019.295 311.712L1019.564 315.381L1019.762 318.972L1019.898 322.193L1019.964 325.304L1019.990 327.984L1020 331L1020 333.681L1020 336.697L1020 339.377L1020 342.393L1020 345.073L1020 348.090L1020 350.770L1020 353.786L1020 356.466L1019.999 359.482L1019.999 362.162L1019.999 365.179L1019.999 367.859L1019.999 370.875L1019.998 373.555L1019.998 376.571L1019.998 379.251L1019.998 382.268L1019.998 384.948L1019.998 387.964L1019.998 390.644L1019.998 393.660L1019.998 396.340L1019.997 399.357L1019.997 402.037L1019.997 405.053L1019.997 407.733L1019.997 410.749L1019.997 413.429L1019.997 416.446L1019.997 419.126L1019.997 422.142L1019.997 424.822L1019.996 427.838L1019.996 430.518L1019.996 433.535L1019.996 436.215L1019.996 439.231L1019.996 441.911L1019.996 444.927L1019.996 447.607L1019.996 450.624L1019.995 453.304L1019.995 456.320L1019.995 459L1019.995 462.017L1019.995 464.696L1019.995 467.713L1019.995 470.393L1019.995 473.409L1019.995 476.089L1019.995 479.106L1019.994 481.785L1019.994 484.802L1019.994 487.482L1019.994 490.498L1019.994 493.178L1019.994 496.195L1019.994 498.874L1019.994 501.891L1019.994 504.571L1019.993 507.587L1019.993 510.267L1019.993 513.284L1019.993 515.963L1019.993 518.980L1019.993 521.660L1019.993 524.676L1019.993 527.356L1019.993 530.373L1019.993 533.053L1019.992 536.069L1019.992 538.749L1019.992 541.765L1019.992 544.445L1019.992 547.462L1019.992 550.142L1019.992 553.158L1019.992 555.838L1019.992 558.854L1019.991 561.534L1019.991 564.551L1019.991 567.231L1019.991 570.247L1019.991 572.927L1019.991 575.943L1019.991 578.623L1019.991 581.640L1019.991 584.320L1019.991 587.336L1019.990 590.016L1019.990 593.032L1019.990 595.712L1019.990 598.729L1019.990 601.409L1019.990 604.425L1019.990 607.105L1019.990 610.121L1019.990 612.801L1019.989 615.818L1019.989 618.498L1019.989 621.514L1019.989 624.194L1019.989 627.210L1019.989 629.890L1019.989 632.907L1019.989 635.587L1019.989 638.603L1019.989 641.283L1019.988 644.299L1019.988 646.979L1019.988 649.996L1019.988 652.676L1019.988 655.692L1019.988 658.372L1019.988 661.388L1019.988 664.068L1019.988 667.085L1019.987 669.765L1019.987 672.781L1019.987 675.461L1019.987 678.478L1019.987 681.157L1019.987 684.174L1019.987 686.854L1019.987 689.870L1019.987 692.550L1019.986 695.567L1019.986 698.246L1019.986 701.263L1019.986 703.943L1019.986 706.959L1019.986 709.639L1019.986 712.656L1019.986 715.335L1019.986 718.352L1019.986 721.032L1019.985 724.048L1019.985 726.728L1019.985 729.745L1019.985 732.424L1019.985 735.441L1019.985 738.121L1019.985 741.137L1019.985 743.817L1019.985 746.834L1019.984 749.514L1019.984 752.530L1019.984 755.210L1019.984 758.226L1019.984 760.906L1019.984 763.923L1019.984 766.603L1019.984 769.619L1019.984 772.299L1019.984 775.315L1019.983 777.995L1019.983 781.012L1019.983 783.692L1019.983 786.708L1019.983 789.388L1019.983 792.404L1019.983 795.084L1019.983 798.101L1019.983 800.781L1019.982 803.797L1019.982 806.477L1019.982 809.493L1019.982 812.173L1019.982 815.190L1019.982 817.870L1019.982 820.886L1019.982 823.566L1019.962 826.632L1019.930 829.321L1019.833 832.503L1019.652 835.736L1019.361 839.469L1018.917 843.327L1018.324 847.026L1017.566 850.821L1016.606 854.594L1015.491 858.542L1014.145 862.536L1012.611 866.521L1010.875 870.402L1008.956 874.232L1006.891 877.893L1004.891 881.173L1002.679 884.362L1000.496 887.216L997.866 890.326L995.018 893.333L991.813 896.426L988.224 899.522L985.748 901.562L983.308 903.417" stroke="url(&quot;#theme-accent-gradient-linear&quot;) rgb(128, 97, 255)" stroke-width="45" fill="none" stroke-linecap="round" stroke-linejoin="round"/><path id="path-extension-1" d="M970.955 910.704L977.811 907.596" stroke="url(&quot;#theme-accent-gradient-linear&quot;) rgb(128, 97, 255)" stroke-width="45" fill="none" stroke-linecap="round" stroke-linejoin="round"/><path id="path-extension-2" d="M983.308 903.417L977.811 907.596" stroke="url(&quot;#theme-accent-gradient-linear&quot;) rgb(128, 97, 255)" stroke-width="45" fill="none" stroke-linecap="round" stroke-linejoin="round"/><path id="path-connection-1" d="M977.811 907.596L977.811 907.596" stroke="url(&quot;#theme-accent-gradient-linear&quot;) rgb(128, 97, 255)" stroke-width="45" fill="none" stroke-linecap="round" stroke-linejoin="round"/></g></svg>