<svg width="912" height="159" viewBox="0 0 912 159" xmlns="http://www.w3.org/2000/svg"><mask id="satori_om-id"><rect x="0" y="0" width="912" height="159" fill="#fff"/></mask><defs><clipPath id="satori_bc-id-0"><path x="0" y="0" width="912" height="159" d="M12,0 h897.31563 a2.68437,2.68437 0 0 1 2.68437,2.68437 v153.63126 a2.68437,2.68437 0 0 1 -2.68437,2.68437 h-897.31563 a12,12 0 0 1 -12,-12 v-135 a12,12 0 0 1 12,-12"/></clipPath></defs><mask id="satori_om-id-0"><rect x="3" y="3" width="906" height="153" fill="#fff"/><path width="912" height="159" fill="none" stroke="#000" stroke-width="6" d="M3.5150000000000006,3.5150000000000006 A12,12 0 0 1 12,0 h897.31563 a2.68437,2.68437 0 0 1 2.68437,2.68437 v153.63126 a2.68437,2.68437 0 0 1 -2.68437,2.68437 h-897.31563 a12,12 0 0 1 -12,-12 v-135 A12,12 0 0 1 3.5150000000000006,3.5150000000000006"/></mask><path x="0" y="0" width="912" height="159" fill="rgb(12, 10, 51)" d="M12,0 h897.31563 a2.68437,2.68437 0 0 1 2.68437,2.68437 v153.63126 a2.68437,2.68437 0 0 1 -2.68437,2.68437 h-897.31563 a12,12 0 0 1 -12,-12 v-135 a12,12 0 0 1 12,-12"/><path width="912" height="159" clip-path="url(#satori_bc-id-0)" fill="none" stroke="rgb(68, 66, 107)" stroke-width="6" d="M3.5150000000000006,3.5150000000000006 A12,12 0 0 1 12,0 h897.31563 a2.68437,2.68437 0 0 1 2.68437,2.68437 v153.63126 a2.68437,2.68437 0 0 1 -2.68437,2.68437 h-897.31563 a12,12 0 0 1 -12,-12 v-135 A12,12 0 0 1 3.5150000000000006,3.5150000000000006"/><mask id="satori_om-id-0-0"><rect x="0" y="0" width="12" height="159" fill="#fff"/></mask><path x="0" y="0" width="12" height="159" fill="rgb(128, 97, 255)" d="M2.68437,0 h9.31563 a0,0 0 0 1 0,0 v159 a0,0 0 0 1 0,0 h-9.31563 a2.68437,2.68437 0 0 1 -2.68437,-2.68437 v-153.63126 a2.68437,2.68437 0 0 1 2.68437,-2.68437"/></svg>