<svg xmlns="http://www.w3.org/2000/svg" width="56" height="56" viewBox="229.927001953125 -41 561.1959838867188 1105.5643310546875" class="colorable-icon reset-top-left-margin" data-export-recolorable-svg="true" overflow="visible" xmlns:xlink="http://www.w3.org/1999/xlink" fill="rgb(0, 0, 0)" stroke="none" preserveAspectRatio="xMidYMid meet"><g fill="none" stroke="url(&quot;#theme-accent-gradient-linear&quot;) rgb(128, 97, 255)" stroke-width="45" stroke-linecap="round" stroke-linejoin="round"><path d="M 274.927,871.725 C 275.418,890.114 276.777,903.632 279.878,918.595 C 283.696,931.009 288.092,941.642 293.641,952.374 C 303.274,966.693 310.978,975.795 319.406,984.116 C 330.619,993.245 345.643,1002.874 357.921,1008.846 C 371.094,1013.7 385.135,1017.217 399.351,1019.403 C 414.009,1019.988 428.28,1018.945 440.635,1016.87 C 455.764,1012.576 467.892,1007.73 479.871,1001.514 C 489.135,995.47 503.992,983.375 513.062,974.0 C 522.678,962.365 530.48,950.831 537.269,938.178 C 543.018,923.836 546.698,910.686 549.417,896.016 L 550.46,863.853" data-line="nan" stroke-width="45.0" fill="none" stroke="url(&quot;#theme-accent-gradient-linear&quot;) rgb(128, 97, 255)"/><path d="M 746.123,424.934 C 741.575,442.897 734.416,461.472 725.74,478.523 C 716.273,493.156 704.121,508.424 692.691,520.203 C 677.746,532.856 662.415,543.259 647.649,551.219 C 632.528,557.719 614.629,563.333 597.629,566.894 C 579.074,569.234 549.089,570.928 525.808,570.268 C 510.516,568.954 492.623,565.96 473.769,560.585 C 458.226,554.543 442.996,546.905 427.72,537.356 C 414.685,527.298 401.506,515.08 392.15,504.599 C 382.189,491.43 374.662,479.397 367.976,466.314 C 361.936,451.087 357.321,435.687 354.325,420.416 Q 352.51,402.973 351.856,382.796" data-line="nan" stroke-width="45.0" fill="none" stroke="url(&quot;#theme-accent-gradient-linear&quot;) rgb(128, 97, 255)"/><path d="M 744.491,156.472 L 352.576,157.117" data-line="0.0" stroke-width="45.0" fill="none" stroke="url(&quot;#theme-accent-gradient-linear&quot;) rgb(128, 97, 255)"/><path d="M 744.491,156.472 L 746.123,424.934" data-line="1.0" stroke-width="45.0" fill="none" stroke="url(&quot;#theme-accent-gradient-linear&quot;) rgb(128, 97, 255)"/><path d="M 442.571,4.0 L 440.594,156.256" data-line="4.0" stroke-width="45.0" fill="none" stroke="url(&quot;#theme-accent-gradient-linear&quot;) rgb(128, 97, 255)"/><path d="M 656.328,156.343 L 657.945,7.333" data-line="6.0" stroke-width="45.0" fill="none" stroke="url(&quot;#theme-accent-gradient-linear&quot;) rgb(128, 97, 255)"/><path d="M 548.853,156.126 L 550.622,5.364" data-line="7.0" stroke-width="45.0" fill="none" stroke="url(&quot;#theme-accent-gradient-linear&quot;) rgb(128, 97, 255)"/><path d="M 351.856,382.796 L 352.576,157.117" data-line="9.0" stroke-width="45.0" fill="none" stroke="url(&quot;#theme-accent-gradient-linear&quot;) rgb(128, 97, 255)"/><path d="M 550.46,863.853 L 549.089,570.928" data-line="10.0" stroke-width="45.0" fill="none" stroke="url(&quot;#theme-accent-gradient-linear&quot;) rgb(128, 97, 255)"/></g></svg>