<svg xmlns="http://www.w3.org/2000/svg" width="68" height="68" viewBox="57.440643310546875 -45.12115478515625 1011.892822265625 1116.01904296875" class="colorable-icon reset-top-left-margin" data-export-recolorable-svg="true" overflow="visible" xmlns:xlink="http://www.w3.org/1999/xlink" fill="rgb(0, 0, 0)" stroke="none" preserveAspectRatio="xMidYMid meet"><g fill="none" stroke="url(&quot;#theme-accent-gradient-linear&quot;) rgb(128, 97, 255)" stroke-width="45" stroke-linecap="round" stroke-linejoin="round"><path d="M 1006.49,718.01 C 992.83,711.2 978.79,707.86 959.19,706.97 L 912.27,706.92" data-line="nan" stroke-width="45.0" fill="none" stroke="url(&quot;#theme-accent-gradient-linear&quot;) rgb(128, 97, 255)"/><path d="M 660.77,706.99 C 611.15,707.96 600.06,710.34 588.35,715.36" data-line="nan" stroke-width="45.0" fill="none" stroke="url(&quot;#theme-accent-gradient-linear&quot;) rgb(128, 97, 255)"/><path d="M 1006.49,718.01 C 1017.74,733.77 1020.32,739.42 1022.81,747.95 Q 1023.96,759.2 1023.98,804.24" data-line="nan" stroke-width="45.0" fill="none" stroke="url(&quot;#theme-accent-gradient-linear&quot;) rgb(128, 97, 255)"/><path d="M 937.0,649.59 C 935.93,634.13 933.0,617.38 928.95,604.02 C 922.78,589.71 916.04,577.88 907.05,565.46 C 895.22,552.51 883.81,542.58 870.85,533.46 C 856.92,525.78 842.18,519.69 826.43,515.17 C 811.34,512.76 795.16,512.0 779.0,513.09 C 765.05,515.21 751.12,518.79 737.19,523.94 C 723.15,530.89 709.26,539.82 698.03,548.89 C 686.95,559.98 677.83,571.28 670.48,582.52 C 664.69,593.57 660.06,604.77 656.58,615.97 C 653.76,629.87 652.36,649.4 652.3,707.07" data-line="nan" stroke-width="45.0" fill="none" stroke="url(&quot;#theme-accent-gradient-linear&quot;) rgb(128, 97, 255)"/><path d="M 623.23,1023.93 C 609.17,1022.96 598.05,1019.59 586.89,1013.06 C 576.66,1002.93 571.26,994.41 567.23,983.21 Q 566.12,975.0 565.99,949.69" data-line="nan" stroke-width="45.0" fill="none" stroke="url(&quot;#theme-accent-gradient-linear&quot;) rgb(128, 97, 255)"/><path d="M 566.08,755.49 C 567.97,744.43 572.61,733.41 578.42,725.1 L 588.35,715.36" data-line="nan" stroke-width="45.0" fill="none" stroke="url(&quot;#theme-accent-gradient-linear&quot;) rgb(128, 97, 255)"/><circle cx="335.90898526742365" cy="233.34719535782415" r="233.4683576722305" data-line="0.0" stroke-width="45.0" fill="none" stroke="url(&quot;#theme-accent-gradient-linear&quot;) rgb(128, 97, 255)"/><path d="M 336.3,466.88 L 336.31,914.4" data-line="1.0" stroke-width="45.0" fill="none" stroke="url(&quot;#theme-accent-gradient-linear&quot;) rgb(128, 97, 255)"/><path d="M 336.3,842.98 L 462.35,842.89" data-line="2.0" stroke-width="45.0" fill="none" stroke="url(&quot;#theme-accent-gradient-linear&quot;) rgb(128, 97, 255)"/><path d="M 336.3,729.16 L 432.74,729.1" data-line="3.0" stroke-width="45.0" fill="none" stroke="url(&quot;#theme-accent-gradient-linear&quot;) rgb(128, 97, 255)"/><path d="M 912.27,706.92 L 660.77,706.99" data-line="8.0" stroke-width="45.0" fill="none" stroke="url(&quot;#theme-accent-gradient-linear&quot;) rgb(128, 97, 255)"/><circle cx="796.1092077013135" cy="867.5194406618082" r="89.06461039905685" data-line="8.0" stroke-width="45.0" fill="none" stroke="url(&quot;#theme-accent-gradient-linear&quot;) rgb(128, 97, 255)"/><path d="M 1023.98,804.24 L 1023.9,967.52" data-line="11.0" stroke-width="45.0" fill="none" stroke="url(&quot;#theme-accent-gradient-linear&quot;) rgb(128, 97, 255)"/><path d="M 937.23,706.88 L 937.0,649.59" data-line="12.0" stroke-width="45.0" fill="none" stroke="url(&quot;#theme-accent-gradient-linear&quot;) rgb(128, 97, 255)"/><path d="M 1023.9,967.52 C 1029.6850159806218,1007.4299442669313 976.1641716865788,1033.3258508252043 946.99,1023.99" data-line="14.0" stroke-width="45.0" fill="none" stroke="url(&quot;#theme-accent-gradient-linear&quot;) rgb(128, 97, 255)"/><path d="M 946.99,1023.99 L 623.23,1023.93" data-line="15.0" stroke-width="45.0" fill="none" stroke="url(&quot;#theme-accent-gradient-linear&quot;) rgb(128, 97, 255)"/><path d="M 565.99,949.69 L 566.08,755.49" data-line="15.0" stroke-width="45.0" fill="none" stroke="url(&quot;#theme-accent-gradient-linear&quot;) rgb(128, 97, 255)"/></g></svg>