<svg xmlns="http://www.w3.org/2000/svg" viewBox="12.493999481201172 -41 999.011962890625 1106" width="68" height="68" class="colorable-icon reset-top-left-margin" data-export-recolorable-svg="true" overflow="visible" xmlns:xlink="http://www.w3.org/1999/xlink" fill="rgb(0, 0, 0)" stroke="none" preserveAspectRatio="xMidYMid meet"><g id="skeleton-paths" stroke-width="45.0" fill="rgb(0, 0, 0)" stroke="none"><path id="path-0-0" d="M414.951 563.362L411.736 565.656L408.425 568.102L404.231 571.288L401.056 573.834L398.156 576.307L395.620 578.574L392.738 581.255L390.128 583.780L387.358 586.582L385.002 589.068L382.478 591.859L380.188 594.497L377.599 597.613L375.288 600.508L372.883 603.644L370.894 606.370L368.842 609.318L367.094 611.951L365.161 614.970L363.279 618.043L361.217 621.499L359.182 625.077L357.459 628.209L355.771 631.500L354.238 634.692L352.371 638.839L350.393 643.536L348.327 648.866L346.365 654.391L344.594 660.008L343.038 665.503L341.796 670.389L340.833 674.657L340.108 678.363L339.469 682.041L338.925 685.613L338.501 688.676L338.155 691.636L337.900 694.179L337.650 697.120L337.477 699.748L337.338 702.707L337.258 705.335L337.211 708.293L337.208 710.922L337.261 713.880L337.361 716.508L337.518 719.466L337.685 722.033L337.914 724.985L338.147 727.537L338.475 730.588L338.791 733.141L339.226 736.226L339.726 739.235L340.358 742.760L341.073 746.304L341.744 749.399L342.483 752.498L343.163 755.115L343.988 758.147L344.790 760.864L345.711 763.819L346.612 766.499L347.694 769.521L348.998 772.892L350.744 777.125L352.832 781.844L354.994 786.468L357.053 790.569L358.799 793.839L360.585 796.983L362.193 799.702L364.057 802.750L366.002 805.777L368.354 809.323L370.990 813.082L373.820 816.914L376.798 820.732L379.829 824.396L382.598 827.612L385.471 830.746L388.038 833.418L390.997 836.361L393.677 838.910L396.636 841.605L399.229 843.867L402.183 846.325L405.413 848.856L409.656 851.998L414.525 855.393L419.472 858.664L424.010 861.476L428.021 863.770L432.267 866.024L436.849 868.276L441.499 870.449L445.883 872.344L449.811 873.909L453.534 875.297L457.060 876.529L460.093 877.551L463.209 878.526L465.919 879.338L469.039 880.202L471.678 880.893L474.706 881.628L477.184 882.194L480.045 882.796L482.518 883.265L485.531 883.788L488.162 884.201L491.250 884.629L494.353 884.982L497.994 885.340L501.647 885.630L504.807 885.835L507.946 885.965L510.568 886.023L513.569 886.042L516.090 886.013L519.014 885.933L521.567 885.828L524.521 885.657L527.093 885.465L530.172 885.175L532.852 884.883L536.027 884.487L539.094 884.045L542.700 883.481L546.344 882.845L549.601 882.237L552.854 881.547L556.081 880.775L560.334 879.645L565.138 878.245L570.067 876.692L574.409 875.209L577.799 873.952L580.932 872.696L583.590 871.580L586.573 870.264L589.096 869.101L592.166 867.603L594.779 866.276L597.790 864.692L600.226 863.350L603.134 861.677L605.773 860.083L608.873 858.146L612.030 856.053L615.560 853.627L619.320 850.897L623.060 848.032L626.847 844.982L630.490 841.874L633.710 839.024L636.745 836.189L639.254 833.760L641.921 831.072L644.307 828.560L646.918 825.697L649.214 823.075L651.698 820.106L654.229 816.914L657.021 813.248L659.764 809.485L662.055 806.194L664.128 803.053L665.852 800.303L667.702 797.228L669.294 794.468L671.029 791.317L672.664 788.176L674.516 784.468L676.228 780.841L677.718 777.569L679.052 774.417L680.374 771.054L681.938 766.743L683.584 761.839L685.079 757.060L686.309 752.749L687.147 749.527L687.904 746.269L688.458 743.645L689.073 740.491L689.523 737.965L690.006 735.007L690.345 732.637L690.700 729.779L690.972 727.243L691.259 724.157L691.467 721.427L691.631 718.381L691.723 715.742L691.784 712.784L691.809 710.156L691.795 707.197L691.736 704.569L691.624 701.611L691.490 698.982L691.294 695.909L691.014 692.719L690.646 689.127L690.164 685.427L689.704 682.235L689.116 678.884L688.473 675.721L687.683 672.148L686.832 668.654L686.051 665.579L685.176 662.428L684.392 659.757L683.452 656.728L682.611 654.137L681.610 651.180L680.646 648.504L679.541 645.616L678.465 643.002L677.181 640.056L675.715 636.880L673.986 633.283L672.141 629.649L670.414 626.400L668.595 623.193L666.638 619.957L664.355 616.335L661.932 612.655L659.734 609.427L657.573 606.417L655.626 603.858L653.371 601.019L651.169 598.346L648.659 595.392L646.364 592.805L643.808 590.042L641.417 587.558L638.528 584.667L635.450 581.748L631.933 578.546L628.450 575.515L625.363 572.940L622.339 570.552L619.578 568.468L616.455 566.184L613.637 564.196L610.647 562.180L607.956 560.440L605 558.598L602.262 556.956L599.183 555.188L595.913 553.424L591.902 551.366L587.729 549.335L583.491 547.389L579.485 545.682L575.064 543.959L570.140 542.185L564.677 540.400L559.196 538.779L554.297 537.485L550.132 536.491L546.991 535.813L543.903 535.230L541.191 534.774L538.085 534.316L535.544 533.974L532.708 533.632L530.292 533.380L527.346 533.138L524.719 532.983L521.708 532.844L519.079 532.754L516.121 532.694L513.493 532.702L510.535 532.783L507.906 532.906L504.989 533.075L502.295 533.271L499.366 533.525L496.552 533.819L493.922 534.116L491.326 534.444L489.036 534.757L486.231 535.186L483.712 535.598L480.634 536.141L478.111 536.616L475.071 537.251L471.975 537.987L467.908 539.051L463.757 540.218L459.756 541.429L456.614 542.446L453.512 543.545L450.273 544.778L446.572 546.259L442.737 547.906L438.930 549.653L435.277 551.422L431.643 553.294L429.402 554.472L427.156 555.704" stroke="url(&quot;#theme-accent-gradient-linear&quot;) rgb(128, 97, 255)" stroke-width="45" fill="none" stroke-linecap="round" stroke-linejoin="round"/><path id="path-extension-1" d="M414.951 563.362L420.799 559.191" stroke="url(&quot;#theme-accent-gradient-linear&quot;) rgb(128, 97, 255)" stroke-width="45" fill="none" stroke-linecap="round" stroke-linejoin="round"/><path id="path-extension-2" d="M427.156 555.704L420.799 559.191" stroke="url(&quot;#theme-accent-gradient-linear&quot;) rgb(128, 97, 255)" stroke-width="45" fill="none" stroke-linecap="round" stroke-linejoin="round"/><path id="path-connection-1" d="M420.799 559.191L420.799 559.191" stroke="url(&quot;#theme-accent-gradient-linear&quot;) rgb(128, 97, 255)" stroke-width="45" fill="none" stroke-linecap="round" stroke-linejoin="round"/></g><g id="skeleton-paths" stroke-width="45.0" fill="rgb(0, 0, 0)" stroke="none"><path id="path-0-0" d="M807.759 390.723L811.343 390.744L815.438 390.767L821.128 390.797L826.725 390.825L832.312 390.856L837.898 390.901L843.485 390.972L849.072 391.079L854.658 391.236L860.245 391.453L865.784 391.743L871.296 392.127L876.795 392.654L882.392 393.392L888.075 394.415L893.681 395.706L899.260 397.350L904.657 399.282L910.225 401.698L914.118 403.529L917.559 405.335" stroke="url(&quot;#theme-accent-gradient-linear&quot;) rgb(128, 97, 255)" stroke-width="45" fill="none" stroke-linecap="round" stroke-linejoin="round"/><path id="path-1-0" d="M94.052 414.899L90.841 417.870L87.163 421.588L82.311 426.878L77.967 432.301L74.123 437.833L70.778 443.367L67.869 448.904L65.406 454.347L63.319 459.789L61.581 465.234L60.173 470.724L59.084 476.199L58.311 481.705L57.828 487.178L57.590 492.709L57.508 498.248L57.494 503.835L57.496 509.421L57.498 515.008L57.500 520.594L57.503 526.181L57.505 531.768L57.507 537.354L57.509 542.941L57.511 548.527L57.513 554.114L57.515 559.701L57.518 565.287L57.520 570.874L57.522 576.460L57.524 582.047L57.526 587.633L57.528 593.220L57.530 598.807L57.533 604.393L57.535 609.980L57.537 615.566L57.539 621.153L57.541 626.740L57.543 632.326L57.546 637.913L57.548 643.499L57.550 649.086L57.552 654.673L57.554 660.259L57.556 665.846L57.558 671.432L57.561 677.019L57.563 682.606L57.565 688.192L57.567 693.779L57.569 699.365L57.571 704.952L57.573 710.539L57.576 716.125L57.578 721.712L57.580 727.298L57.582 732.885L57.584 738.472L57.586 744.058L57.589 749.645L57.591 755.231L57.593 760.818L57.595 766.405L57.597 771.991L57.599 777.578L57.601 783.164L57.604 788.751L57.606 794.338L57.608 799.924L57.610 805.511L57.612 811.097L57.614 816.684L57.616 822.271L57.619 827.857L57.621 833.444L57.623 839.030L57.625 844.617L57.627 850.204L57.629 855.790L57.631 861.377L57.634 866.963L57.636 872.550L57.638 878.137L57.640 883.723L57.642 889.310L57.644 894.896L57.647 900.483L57.649 906.069L57.651 911.656L57.711 917.243L57.895 922.767L58.323 928.222L59.036 933.612L60.095 939.051L61.495 944.538L63.296 950.116L65.451 955.617L68.098 961.274L71.163 966.869L74.767 972.615L78.808 978.183L83.367 983.678L88.362 988.931L93.675 993.853L99.108 998.284L104.641 1002.218L110.189 1005.665L115.767 1008.684L121.262 1011.254L126.758 1013.430L132.248 1015.256L137.795 1016.754L143.335 1017.927L148.916 1018.784L154.482 1019.347L160.069 1019.668L165.645 1019.816L171.231 1019.864L176.818 1019.874L182.404 1019.871L187.991 1019.872L193.578 1019.873L199.164 1019.873L204.751 1019.874L210.337 1019.875L215.924 1019.876L221.511 1019.877L227.097 1019.877L232.684 1019.878L238.270 1019.879L243.857 1019.880L249.444 1019.881L255.030 1019.881L260.617 1019.882L266.203 1019.883L271.790 1019.884L277.377 1019.885L282.963 1019.885L288.550 1019.886L294.136 1019.887L299.723 1019.888L305.310 1019.889L310.896 1019.889L316.483 1019.890L322.069 1019.891L327.656 1019.892L333.243 1019.893L338.829 1019.894L344.416 1019.894L350.002 1019.895L355.589 1019.896L361.176 1019.897L366.762 1019.898L372.349 1019.898L377.935 1019.899L383.522 1019.900L389.109 1019.901L394.695 1019.902L400.282 1019.902L405.868 1019.903L411.455 1019.904L417.042 1019.905L422.628 1019.906L428.215 1019.906L433.801 1019.907L439.388 1019.908L444.975 1019.909L450.561 1019.910L456.148 1019.910L461.734 1019.911L467.321 1019.912L472.908 1019.913L478.494 1019.914L484.081 1019.914L489.667 1019.915L495.254 1019.916L500.840 1019.917L506.427 1019.918L512.014 1019.918L517.600 1019.919L523.187 1019.920L528.773 1019.921L534.360 1019.922L539.947 1019.922L545.533 1019.923L551.120 1019.924L556.706 1019.925L562.293 1019.926L567.880 1019.926L573.466 1019.927L579.053 1019.928L584.639 1019.929L590.226 1019.930L595.813 1019.930L601.399 1019.931L606.986 1019.932L612.572 1019.933L618.159 1019.934L623.746 1019.934L629.332 1019.935L634.919 1019.936L640.505 1019.937L646.092 1019.938L651.679 1019.938L657.265 1019.939L662.852 1019.940L668.438 1019.941L674.025 1019.942L679.612 1019.942L685.198 1019.943L690.785 1019.944L696.371 1019.945L701.958 1019.946L707.545 1019.946L713.131 1019.947L718.718 1019.948L724.304 1019.949L729.891 1019.950L735.478 1019.950L741.064 1019.951L746.651 1019.952L752.237 1019.953L757.824 1019.954L763.411 1019.954L768.997 1019.955L774.584 1019.956L780.170 1019.957L785.757 1019.956L791.344 1019.953L796.930 1019.951L802.517 1019.955L808.103 1019.966L813.690 1019.982L819.276 1019.996L824.863 1020L830.450 1019.987L836.036 1019.949L841.623 1019.884L847.209 1019.805L852.796 1019.703L858.371 1019.559L863.961 1019.290L869.535 1018.850L875.154 1018.167L880.761 1017.231L886.417 1016.004L892.045 1014.466L897.736 1012.557L903.445 1010.243L909.161 1007.523L914.866 1004.337L920.452 1000.749L926.145 996.542L931.586 991.962L936.939 986.815L941.726 981.540L946.144 976.011L949.964 970.525L953.398 964.843L956.395 959.050L959.019 953.142L961.186 947.318L962.922 941.606L964.242 935.953L965.195 930.340L965.811 924.704L966.139 919.113L966.279 913.512L966.317 907.932L966.326 902.345L966.329 896.758L966.331 891.172L966.334 885.585L966.337 879.999L966.339 874.412L966.342 868.826L966.344 863.239L966.347 857.652L966.349 852.066L966.352 846.479L966.354 840.893L966.357 835.306L966.359 829.719L966.362 824.133L966.364 818.546L966.367 812.960L966.369 807.373L966.372 801.786L966.374 796.200L966.377 790.613L966.380 785.027L966.382 779.440L966.385 773.853L966.387 768.267L966.390 762.680L966.392 757.094L966.395 751.507L966.397 745.920L966.400 740.334L966.402 734.747L966.405 729.161L966.407 723.574L966.410 717.987L966.412 712.401L966.415 706.814L966.417 701.228L966.420 695.641L966.423 690.054L966.425 684.468L966.428 678.881L966.430 673.295L966.433 667.708L966.435 662.121L966.438 656.535L966.440 650.948L966.443 645.362L966.445 639.775L966.448 634.188L966.450 628.602L966.453 623.015L966.455 617.429L966.458 611.842L966.460 606.255L966.463 600.669L966.466 595.082L966.468 589.496L966.471 583.909L966.473 578.322L966.476 572.736L966.478 567.149L966.481 561.563L966.483 555.976L966.486 550.390L966.488 544.803L966.491 539.216L966.493 533.630L966.496 528.043L966.498 522.457L966.501 516.870L966.503 511.283L966.506 505.697L966.499 500.110L966.435 494.532L966.242 488.934L965.825 483.346L965.146 477.785L964.153 472.208L962.853 466.634L961.208 460.947L959.204 455.283L956.844 449.657L954.085 444.080L950.872 438.510L947.156 432.896L944.239 428.821L941.619 425.454" stroke="url(&quot;#theme-accent-gradient-linear&quot;) rgb(128, 97, 255)" stroke-width="45" fill="none" stroke-linecap="round" stroke-linejoin="round"/><path id="path-2-0" d="M112.472 402.756L115.852 401.212L119.751 399.632L125.253 397.589L130.727 395.918L136.241 394.583L141.732 393.567L147.250 392.854L152.720 392.369L158.248 392.057L163.782 391.846L169.369 391.699L174.956 391.596L180.542 391.527L186.129 391.481L191.715 391.446L197.302 391.409L202.889 391.361L206.883 391.321L210.264 391.278" stroke="url(&quot;#theme-accent-gradient-linear&quot;) rgb(128, 97, 255)" stroke-width="45" fill="none" stroke-linecap="round" stroke-linejoin="round"/><path id="path-3-0" d="M245.730 390.941L249.145 390.917L253.153 390.892L258.755 390.857L264.341 390.826L269.928 390.797L275.514 390.771L281.101 390.748L286.688 390.725L292.274 390.702L297.861 390.682L303.447 390.664L309.034 390.648L314.621 390.634L320.207 390.620L325.794 390.607L331.380 390.596L336.967 390.587L342.554 390.580L348.140 390.573L353.727 390.567L359.313 390.562L364.900 390.558L370.487 390.557L376.073 390.556L381.660 390.556L387.246 390.556L392.833 390.557L398.420 390.560L404.006 390.564L409.593 390.568L415.179 390.573L420.766 390.578L426.353 390.584L431.939 390.592L437.526 390.599L443.112 390.607L448.699 390.616L454.286 390.624L459.872 390.634L465.459 390.644L471.045 390.654L476.632 390.664L482.218 390.674L487.805 390.685L493.392 390.696L498.978 390.707L504.565 390.718L510.151 390.729L515.738 390.740L521.325 390.751L526.911 390.762L532.498 390.773L538.084 390.784L543.671 390.794L549.258 390.804L554.844 390.813L560.431 390.823L566.017 390.832L571.604 390.840L577.191 390.848L582.777 390.855L588.364 390.862L593.950 390.868L599.537 390.874L605.124 390.880L610.710 390.883L616.297 390.886L621.883 390.889L627.470 390.891L633.057 390.892L638.643 390.891L644.230 390.890L649.816 390.887L655.403 390.884L660.990 390.880L666.576 390.875L672.163 390.867L677.749 390.858L683.336 390.848L688.923 390.838L694.509 390.827L700.096 390.813L705.682 390.797L711.269 390.780L716.856 390.762L722.442 390.751L728.029 390.749L733.615 390.761L739.202 390.778L744.789 390.791L750.375 390.795L755.962 390.790L761.548 390.778L767.145 390.761L772.833 390.737L776.925 390.718L780.509 390.700" stroke="url(&quot;#theme-accent-gradient-linear&quot;) rgb(128, 97, 255)" stroke-width="45" fill="none" stroke-linecap="round" stroke-linejoin="round"/><path id="path-4-0" d="M229.044 373.509L229.068 370.155L229.085 366.100L229.106 360.487L229.113 354.859L229.112 349.272L229.103 343.685L229.087 338.099L229.065 332.512L229.041 326.926L229.016 321.339L228.991 315.752L228.969 310.166L228.952 304.579L228.941 298.993L228.938 293.406L228.946 287.819L228.974 282.233L229.038 276.646L229.152 271.060L229.338 265.473L229.594 259.951L229.957 254.448L230.443 248.958L231.071 243.418L231.816 237.902L232.676 232.414L233.666 226.921L234.789 221.367L236.037 215.834L237.403 210.317L238.924 204.787L240.588 199.207L242.400 193.603L244.314 188.085L246.383 182.553L248.593 177.029L250.975 171.435L253.496 165.870L256.122 160.401L258.910 154.923L261.838 149.490L264.999 143.942L268.364 138.357L271.935 132.733L275.649 127.181L279.573 121.628L283.664 116.131L288.083 110.500L292.697 104.909L297.666 99.205L302.878 93.538L308.365 87.895L314.008 82.409L319.656 77.211L325.231 72.340L330.750 67.782L336.290 63.428L341.953 59.214L347.567 55.226L353.173 51.446L358.648 47.938L364.121 44.605L369.512 41.487L375.023 38.464L380.500 35.610L386.163 32.808L391.723 30.203L397.362 27.701L402.836 25.409L408.346 23.239L413.834 21.213L419.401 19.292L425.004 17.480L430.599 15.800L436.155 14.252L441.653 12.843L447.130 11.555L452.662 10.374L458.200 9.302L463.808 8.335L469.355 7.498L474.943 6.772L480.342 6.162L485.273 5.657L489.439 5.276L492.804 4.993L495.713 4.773L498.568 4.572L501.262 4.401L504.182 4.242L506.810 4.125L509.768 4.034L512.397 4L515.355 4.007L517.983 4.041L520.942 4.089L523.570 4.140L526.528 4.212L529.156 4.308L532.134 4.466L534.730 4.651L537.781 4.903L540.871 5.178L544.506 5.512L548.171 5.887L551.364 6.251L554.529 6.682L557.564 7.152L561.066 7.727L564.663 8.342L567.842 8.912L571.166 9.564L574.449 10.294L578.631 11.285L582.892 12.353L587.100 13.444L590.431 14.350L593.603 15.267L596.765 16.252L600.904 17.607L605.703 19.265L610.958 21.167L615.834 23.018L620.173 24.758L623.510 26.146L626.654 27.511L629.176 28.638L632.199 30.033L634.952 31.337L638.226 32.941L641.499 34.612L645.108 36.517L648.781 38.519L652.409 40.547L656.024 42.618L659.507 44.681L662.608 46.586L665.601 48.498L668.265 50.247L671.342 52.300L674.654 54.586L678.419 57.253L682.151 59.996L685.366 62.414L688.309 64.684L690.835 66.660L693.640 68.915L696.278 71.117L699.302 73.738L702.069 76.198L705.175 78.995L707.918 81.508L710.958 84.384L713.601 86.998L716.529 89.986L719.104 92.668L721.982 95.707L724.508 98.438L727.281 101.560L729.683 104.375L732.243 107.442L734.425 110.088L736.692 112.876L738.680 115.389L740.915 118.359L743.254 121.600L745.801 125.197L748.273 128.744L750.312 131.726L752.277 134.727L753.935 137.392L755.822 140.516L757.687 143.680L759.737 147.199L761.789 150.840L763.750 154.499L765.645 158.214L767.482 161.958L769.270 165.703L771.023 169.490L772.698 173.311L774.331 177.237L776.064 181.676L777.891 186.609L779.746 191.930L781.341 196.772L782.627 200.973L783.565 204.162L784.438 207.330L785.156 210.035L785.919 213.110L786.508 215.591L787.137 218.453L787.659 220.945L788.251 223.988L788.741 226.616L789.270 229.653L789.694 232.218L790.176 235.292L790.559 237.816L790.996 240.795L791.348 243.297L791.746 246.351L792.061 249.022L792.367 252.091L792.588 254.711L792.812 257.803L793.021 260.897L793.252 264.524L793.465 268.125L793.635 271.326L793.772 274.401L793.872 277.029L793.971 279.988L794.047 282.616L794.119 285.574L794.174 288.203L794.224 291.161L794.260 293.789L794.291 296.747L794.311 299.376L794.326 302.334L794.331 304.962L794.331 307.921L794.326 310.549L794.314 313.507L794.299 316.135L794.279 319.094L794.258 321.722L794.232 324.680L794.207 327.309L794.177 330.267L794.150 332.895L794.121 335.854L794.095 338.482L794.067 341.440L794.044 344.068L794.021 347.027L794.004 349.655L793.989 352.613L793.980 355.242L793.975 358.200L793.977 360.828L793.985 363.853L793.998 366.507L794.021 369.525L794.049 372.065L794.076 374.153L794.098 375.567" stroke="url(&quot;#theme-accent-gradient-linear&quot;) rgb(128, 97, 255)" stroke-width="45" fill="none" stroke-linecap="round" stroke-linejoin="round"/><path id="path-extension-1" d="M917.559 405.335L931.767 412.795" stroke="url(&quot;#theme-accent-gradient-linear&quot;) rgb(128, 97, 255)" stroke-width="45" fill="none" stroke-linecap="round" stroke-linejoin="round"/><path id="path-extension-2" d="M94.052 414.899L102.014 407.534" stroke="url(&quot;#theme-accent-gradient-linear&quot;) rgb(128, 97, 255)" stroke-width="45" fill="none" stroke-linecap="round" stroke-linejoin="round"/><path id="path-extension-3" d="M941.619 425.454L931.767 412.795" stroke="url(&quot;#theme-accent-gradient-linear&quot;) rgb(128, 97, 255)" stroke-width="45" fill="none" stroke-linecap="round" stroke-linejoin="round"/><path id="path-extension-4" d="M112.472 402.756L102.014 407.534" stroke="url(&quot;#theme-accent-gradient-linear&quot;) rgb(128, 97, 255)" stroke-width="45" fill="none" stroke-linecap="round" stroke-linejoin="round"/><path id="path-extension-5" d="M229.044 373.509L228.918 391.101" stroke="url(&quot;#theme-accent-gradient-linear&quot;) rgb(128, 97, 255)" stroke-width="45" fill="none" stroke-linecap="round" stroke-linejoin="round"/><path id="path-extension-6" d="M794.098 375.567L794.331 390.712" stroke="url(&quot;#theme-accent-gradient-linear&quot;) rgb(128, 97, 255)" stroke-width="45" fill="none" stroke-linecap="round" stroke-linejoin="round"/><path id="path-connection-1" d="M807.759 390.723L780.509 390.700" stroke="url(&quot;#theme-accent-gradient-linear&quot;) rgb(128, 97, 255)" stroke-width="45" fill="none" stroke-linecap="round" stroke-linejoin="round"/><path id="path-connection-2" d="M210.264 391.278L245.730 390.941" stroke="url(&quot;#theme-accent-gradient-linear&quot;) rgb(128, 97, 255)" stroke-width="45" fill="none" stroke-linecap="round" stroke-linejoin="round"/><path id="path-connection-3" d="M931.767 412.795L931.767 412.795" stroke="url(&quot;#theme-accent-gradient-linear&quot;) rgb(128, 97, 255)" stroke-width="45" fill="none" stroke-linecap="round" stroke-linejoin="round"/><path id="path-connection-4" d="M102.014 407.534L102.014 407.534" stroke="url(&quot;#theme-accent-gradient-linear&quot;) rgb(128, 97, 255)" stroke-width="45" fill="none" stroke-linecap="round" stroke-linejoin="round"/></g></svg>