<svg xmlns="http://www.w3.org/2000/svg" width="68" height="68" viewBox="-40.31087350845337 32.61195373535156 1104.69921875 959.3900756835938" class="colorable-icon reset-top-left-margin" data-export-recolorable-svg="true" overflow="visible" xmlns:xlink="http://www.w3.org/1999/xlink" fill="rgb(0, 0, 0)" stroke="none" preserveAspectRatio="xMidYMid meet"><g fill="none" stroke="url(&quot;#theme-accent-gradient-linear&quot;) rgb(128, 97, 255)" stroke-width="45" stroke-linecap="round" stroke-linejoin="round"><path d="M 261.629,545.639 C 222.229,526.96 196.709,518.213 171.406,513.528 L 117.292,509.414" data-line="nan" stroke-width="45.0" fill="none" stroke="url(&quot;#theme-accent-gradient-linear&quot;) rgb(128, 97, 255)"/><path d="M 372.403,890.843 C 388.555,834.966 391.407,817.86 392.719,801.404 C 392.785,776.165 390.914,753.094 388.822,737.362 C 380.361,706.949 372.361,685.323 361.341,662.223 C 349.483,641.155 335.847,620.695 319.799,600.363 C 303.537,582.803 276.421,558.006 261.629,545.639" data-line="nan" stroke-width="45.0" fill="none" stroke="url(&quot;#theme-accent-gradient-linear&quot;) rgb(128, 97, 255)"/><path d="M 93.644,522.913 C 70.936,536.395 55.785,547.79 41.966,561.549 C 28.821,579.215 18.121,599.477 10.471,621.442 C 5.883,644.306 4.09,666.877 4.863,692.768 C 8.779,720.485 15.141,745.91 22.967,768.277 C 35.177,795.399 49.593,820.847 65.581,843.652 C 83.067,864.109 100.783,881.597 118.65,896.564 C 141.542,912.389 161.158,923.336 182.814,933.093 C 207.229,941.19 228.029,945.42 249.588,947.002 C 263.534,946.411 280.468,943.94 298.529,938.958 C 314.086,932.427 334.096,920.657 372.403,890.843 L 413.294,865.42" data-line="nan" stroke-width="45.0" fill="none" stroke="url(&quot;#theme-accent-gradient-linear&quot;) rgb(128, 97, 255)"/><path d="M 239.213,647.655 C 228.114,638.348 215.052,629.554 203.778,623.526 C 187.185,616.896 175.988,613.968 164.391,612.27 C 154.229,612.349 142.803,614.154 130.601,618.407 C 121.093,624.186 113.15,631.448 105.547,641.054 C 100.141,650.873 96.189,661.457 93.481,672.728 C 92.048,685.585 92.021,700.571 93.286,713.386 C 95.585,724.4 100.28,739.396 106.378,753.716 C 113.24,766.334 121.479,779.046 129.572,789.468 C 154.181,814.779 164.352,823.316 174.048,829.871 C 187.675,837.104 200.31,842.118 215.047,845.916 C 227.553,847.532 242.798,847.002 258.206,843.079 C 271.414,836.373 281.06,828.454 289.387,818.041 C 295.897,804.666 299.938,789.765 301.483,776.824 C 301.254,761.458 298.512,744.039 293.184,725.733 C 285.678,708.372 277.713,694.221 268.05,679.987 Q 253.891,662.676 239.213,647.655" data-line="nan" stroke-width="45.0" fill="none" stroke="url(&quot;#theme-accent-gradient-linear&quot;) rgb(128, 97, 255)"/><path d="M 953.126,481.658 C 973.325,466.52 983.372,457.463 992.173,447.483 C 1002.314,431.985 1009.418,416.82 1015.706,396.237 C 1018.484,380.936 1019.976,360.646 1019.171,340.265 C 1016.193,319.867 1011.344,299.654 1004.716,279.399 C 996.262,258.955 986.229,238.686 958.427,191.335 C 923.134,153.001 891.315,122.447 867.946,106.951 C 844.569,93.032 827.088,86.311 811.757,81.599 C 791.773,77.953 776.63,76.998 758.569,77.966 C 741.516,81.461 727.408,86.509 710.481,94.822 Q 696.197,103.585 673.553,119.297" data-line="nan" stroke-width="45.0" fill="none" stroke="url(&quot;#theme-accent-gradient-linear&quot;) rgb(128, 97, 255)"/><path d="M 388.822,737.362 L 673.833,544.435" data-line="3.0" stroke-width="45.0" fill="none" stroke="url(&quot;#theme-accent-gradient-linear&quot;) rgb(128, 97, 255)"/><path d="M 625.524,293.939 L 261.629,545.639" data-line="4.0" stroke-width="45.0" fill="none" stroke="url(&quot;#theme-accent-gradient-linear&quot;) rgb(128, 97, 255)"/><path d="M 413.294,865.42 L 663.996,687.738" data-line="7.0" stroke-width="45.0" fill="none" stroke="url(&quot;#theme-accent-gradient-linear&quot;) rgb(128, 97, 255)"/><path d="M 663.996,687.738 L 953.126,481.658" data-line="13.0" stroke-width="45.0" fill="none" stroke="url(&quot;#theme-accent-gradient-linear&quot;) rgb(128, 97, 255)"/><path d="M 673.553,119.297 L 93.644,522.913" data-line="15.0" stroke-width="45.0" fill="none" stroke="url(&quot;#theme-accent-gradient-linear&quot;) rgb(128, 97, 255)"/></g></svg>