<svg xmlns="http://www.w3.org/2000/svg" width="68" height="68" viewBox="85.96600341796875 -41 852.1380004882812 1105.9669799804688" class="colorable-icon reset-top-left-margin" data-export-recolorable-svg="true" overflow="visible" xmlns:xlink="http://www.w3.org/1999/xlink" fill="rgb(0, 0, 0)" stroke="none" preserveAspectRatio="xMidYMid meet"><g fill="none" stroke="url(&quot;#theme-accent-gradient-linear&quot;) rgb(128, 97, 255)" stroke-width="45" stroke-linecap="round" stroke-linejoin="round"><path d="M 718.223,273.776 C 702.867,312.898 694.925,329.83 683.81,347.81 C 672.789,361.236 659.356,373.417 650.068,379.669 C 641.115,384.538 628.474,389.778 598.642,399.368" data-line="nan" stroke-width="45.0" fill="none" stroke="url(&quot;#theme-accent-gradient-linear&quot;) rgb(128, 97, 255)"/><path d="M 718.223,273.776 C 739.109,313.336 748.265,332.323 758.522,356.597 C 766.761,380.748 772.721,405.839 776.952,434.669 C 778.124,447.969 778.18,474.54 777.012,489.925 C 772.309,520.821 766.694,543.037 758.917,565.011 C 749.663,584.785 738.517,605.409 726.467,624.333 L 705.612,652.869" data-line="nan" stroke-width="45.0" fill="none" stroke="url(&quot;#theme-accent-gradient-linear&quot;) rgb(128, 97, 255)"/><path d="M 503.306,399.498 C 466.877,445.779 448.912,471.984 441.141,485.858 C 433.937,500.971 427.807,516.492 423.042,531.572 C 418.853,549.141 415.772,569.016 414.778,582.454 C 415.214,595.613 416.884,608.882 421.015,626.578 L 432.101,652.652" data-line="nan" stroke-width="45.0" fill="none" stroke="url(&quot;#theme-accent-gradient-linear&quot;) rgb(128, 97, 255)"/><path d="M 645.658,652.903 C 590.52,600.042 575.232,584.22 553.362,557.559 C 536.078,530.818 522.841,504.043 517.814,490.756 C 512.605,473.084 508.198,450.994 503.306,399.498" data-line="nan" stroke-width="45.0" fill="none" stroke="url(&quot;#theme-accent-gradient-linear&quot;) rgb(128, 97, 255)"/><path d="M 625.678,271.101 C 625.205,253.435 622.452,231.111 618.348,213.465 C 611.952,191.49 605.409,173.5 597.355,155.863 C 587.747,138.253 576.226,120.546 562.359,102.661 C 550.4,89.462 537.028,76.278 519.411,60.896 Q 487.761,37.623 432.944,4.0" data-line="nan" stroke-width="45.0" fill="none" stroke="url(&quot;#theme-accent-gradient-linear&quot;) rgb(128, 97, 255)"/><path d="M 893.009,834.415 L 130.966,834.389" data-line="0.0" stroke-width="45.0" fill="none" stroke="url(&quot;#theme-accent-gradient-linear&quot;) rgb(128, 97, 255)"/><path d="M 893.104,1019.622 L 893.07,652.535" data-line="1.0" stroke-width="45.0" fill="none" stroke="url(&quot;#theme-accent-gradient-linear&quot;) rgb(128, 97, 255)"/><path d="M 893.104,1019.622 L 131.103,1019.222" data-line="2.0" stroke-width="45.0" fill="none" stroke="url(&quot;#theme-accent-gradient-linear&quot;) rgb(128, 97, 255)"/><path d="M 693.431,1019.967 L 693.405,834.433" data-line="3.0" stroke-width="45.0" fill="none" stroke="url(&quot;#theme-accent-gradient-linear&quot;) rgb(128, 97, 255)"/><path d="M 131.103,1019.222 L 131.014,823.804" data-line="6.0" stroke-width="45.0" fill="none" stroke="url(&quot;#theme-accent-gradient-linear&quot;) rgb(128, 97, 255)"/><path d="M 893.07,652.535 L 432.101,652.652" data-line="7.0" stroke-width="45.0" fill="none" stroke="url(&quot;#theme-accent-gradient-linear&quot;) rgb(128, 97, 255)"/><path d="M 512.032,652.803 L 511.969,834.488" data-line="9.0" stroke-width="45.0" fill="none" stroke="url(&quot;#theme-accent-gradient-linear&quot;) rgb(128, 97, 255)"/><path d="M 512.032,652.803 L 131.178,652.687" data-line="11.0" stroke-width="45.0" fill="none" stroke="url(&quot;#theme-accent-gradient-linear&quot;) rgb(128, 97, 255)"/><path d="M 131.014,823.804 L 131.178,652.687" data-line="12.0" stroke-width="45.0" fill="none" stroke="url(&quot;#theme-accent-gradient-linear&quot;) rgb(128, 97, 255)"/><path d="M 598.642,399.368 L 625.678,271.101" data-line="14.0" stroke-width="45.0" fill="none" stroke="url(&quot;#theme-accent-gradient-linear&quot;) rgb(128, 97, 255)"/><path d="M 432.01533133848636,4.407864178037542 A 216.7566483468377,216.7566483468377 0 0,1 426.36862154112947,190.5981644987723" data-line="20.0" stroke-width="45.0" fill="none" stroke="url(&quot;#theme-accent-gradient-linear&quot;) rgb(128, 97, 255)"/><path d="M 426.6,190.717 L 312.108,354.702" data-line="22.0" stroke-width="45.0" fill="none" stroke="url(&quot;#theme-accent-gradient-linear&quot;) rgb(128, 97, 255)"/><path d="M 312.5430862212893,355.0233824264155 A 231.4288448259237,231.4288448259237 0 0,0 329.9964269212603,650.9574468687942" data-line="23.0" stroke-width="45.0" fill="none" stroke="url(&quot;#theme-accent-gradient-linear&quot;) rgb(128, 97, 255)"/></g></svg>