<svg width="910" height="179" viewBox="0 0 910 179" xmlns="http://www.w3.org/2000/svg"><mask id="satori_om-id"><rect x="0" y="0" width="910" height="179" fill="#fff"/></mask><defs><clipPath id="satori_bc-id-0"><path x="0" y="0" width="910" height="179" d="M12,0 h895.04719 a2.95281,2.95281 0 0 1 2.95281,2.95281 v173.09438 a2.95281,2.95281 0 0 1 -2.95281,2.95281 h-895.04719 a12,12 0 0 1 -12,-12 v-155 a12,12 0 0 1 12,-12"/></clipPath></defs><mask id="satori_om-id-0"><rect x="3" y="3" width="904" height="173" fill="#fff"/><path width="910" height="179" fill="none" stroke="#000" stroke-width="6" d="M3.5150000000000006,3.5150000000000006 A12,12 0 0 1 12,0 h895.04719 a2.95281,2.95281 0 0 1 2.95281,2.95281 v173.09438 a2.95281,2.95281 0 0 1 -2.95281,2.95281 h-895.04719 a12,12 0 0 1 -12,-12 v-155 A12,12 0 0 1 3.5150000000000006,3.5150000000000006"/></mask><path x="0" y="0" width="910" height="179" fill="rgb(12, 10, 51)" d="M12,0 h895.04719 a2.95281,2.95281 0 0 1 2.95281,2.95281 v173.09438 a2.95281,2.95281 0 0 1 -2.95281,2.95281 h-895.04719 a12,12 0 0 1 -12,-12 v-155 a12,12 0 0 1 12,-12"/><path width="910" height="179" clip-path="url(#satori_bc-id-0)" fill="none" stroke="rgb(68, 66, 107)" stroke-width="6" d="M3.5150000000000006,3.5150000000000006 A12,12 0 0 1 12,0 h895.04719 a2.95281,2.95281 0 0 1 2.95281,2.95281 v173.09438 a2.95281,2.95281 0 0 1 -2.95281,2.95281 h-895.04719 a12,12 0 0 1 -12,-12 v-155 A12,12 0 0 1 3.5150000000000006,3.5150000000000006"/><mask id="satori_om-id-0-0"><rect x="0" y="0" width="12" height="179" fill="#fff"/></mask><path x="0" y="0" width="12" height="179" fill="rgb(128, 97, 255)" d="M2.95281,0 h9.04719 a0,0 0 0 1 0,0 v179 a0,0 0 0 1 0,0 h-9.04719 a2.95281,2.95281 0 0 1 -2.95281,-2.95281 v-173.09438 a2.95281,2.95281 0 0 1 2.95281,-2.95281"/></svg>