<svg xmlns="http://www.w3.org/2000/svg" width="56" height="56" viewBox="-44.45637893676758 -44.81999999284744 1113.4163818359375 1113.8722534179688" class="colorable-icon reset-top-left-margin" data-export-recolorable-svg="true" overflow="visible" xmlns:xlink="http://www.w3.org/1999/xlink" fill="rgb(0, 0, 0)" stroke="none" preserveAspectRatio="xMidYMid meet"><g fill="none" stroke="url(&quot;#theme-accent-gradient-linear&quot;) rgb(128, 97, 255)" stroke-width="45" stroke-linecap="round" stroke-linejoin="round"><path d="M 747.22,145.57 C 743.08,119.0 739.94,107.32 735.49,94.89 C 724.57,73.97 716.72,62.98 708.37,53.3 C 700.16,45.32 687.31,34.97 666.0,21.61 C 654.96,16.1 640.01,10.08 616.85,3.85 C 593.51,0.52 579.24,0.39 569.92,1.18 C 559.88,3.18 548.06,6.67 528.76,15.07 C 516.46,22.48 507.21,29.24 491.93,43.18 Q 479.36,58.92 460.74,88.35" data-line="nan" stroke-width="45.0" fill="none" stroke="url(&quot;#theme-accent-gradient-linear&quot;) rgb(128, 97, 255)"/><path d="M 622.08,316.56 C 669.98,263.57 687.22,242.8 703.67,221.33 C 724.39,190.24 733.17,174.17 747.22,145.57" data-line="nan" stroke-width="45.0" fill="none" stroke="url(&quot;#theme-accent-gradient-linear&quot;) rgb(128, 97, 255)"/><path d="M 869.61,431.7 C 878.51,411.41 885.31,390.81 888.71,373.02 C 890.62,348.92 890.06,328.06 886.89,305.08 C 881.92,285.36 873.81,262.34 864.96,244.42 C 852.95,225.84 838.63,208.16 821.73,191.06 C 805.41,177.69 787.72,165.68 774.7,158.33 L 747.22,145.57" data-line="nan" stroke-width="45.0" fill="none" stroke="url(&quot;#theme-accent-gradient-linear&quot;) rgb(128, 97, 255)"/><path d="M 460.74,88.35 C 439.48,55.98 427.15,40.25 411.9,25.48 C 395.57,14.25 385.17,9.17 374.81,5.44 C 363.19,2.47 352.9,0.82 333.46,0.18 C 305.87,3.61 292.07,6.85 278.67,11.07 C 266.89,15.69 253.04,22.41 231.24,36.2 C 220.72,44.76 212.58,52.59 198.82,69.61 C 192.63,79.37 186.4,91.53 178.97,111.79 L 170.72,146.4" data-line="nan" stroke-width="45.0" fill="none" stroke="url(&quot;#theme-accent-gradient-linear&quot;) rgb(128, 97, 255)"/><path d="M 448.0,828.64 C 436.98,847.17 422.29,865.29 411.7,875.53 C 403.48,882.2 385.07,893.72 364.34,902.22 C 343.23,906.99 319.46,908.45 298.49,906.75 C 285.09,903.64 270.3,898.94 247.6,889.12 C 227.96,877.58 218.37,870.61 207.58,861.41 C 191.79,844.49 179.45,826.29 174.67,817.01 Q 168.79,802.78 161.82,779.91" data-line="nan" stroke-width="45.0" fill="none" stroke="url(&quot;#theme-accent-gradient-linear&quot;) rgb(128, 97, 255)"/><path d="M 161.82,779.91 C 140.49,769.16 117.57,758.92 101.99,750.32 C 81.16,736.08 65.66,723.0 47.19,703.38 C 31.75,682.26 20.01,661.57 9.43,635.63 C 3.13,609.77 0.3,583.83 0.56,552.86 C 4.06,527.15 10.62,503.13 20.04,480.69 Q 37.12,452.8 49.24,438.31" data-line="nan" stroke-width="45.0" fill="none" stroke="url(&quot;#theme-accent-gradient-linear&quot;) rgb(128, 97, 255)"/><path d="M 512.17,653.18 C 513.04,646.13 515.67,637.87 519.8,630.57 C 525.0,624.83 530.5,620.6 536.69,617.35 Q 545.31,614.55 553.78,613.49" data-line="nan" stroke-width="45.0" fill="none" stroke="url(&quot;#theme-accent-gradient-linear&quot;) rgb(128, 97, 255)"/><path d="M 683.0,613.26 C 697.2,615.74 707.9,620.77 718.2,630.25 C 744.8,661.22 751.47,667.76 760.71,673.51 Q 766.8,675.55 773.9,676.77" data-line="nan" stroke-width="45.0" fill="none" stroke="url(&quot;#theme-accent-gradient-linear&quot;) rgb(128, 97, 255)"/><path d="M 980.87,677.25 C 990.8,678.87 998.02,681.23 1005.41,685.3 C 1011.12,689.84 1017.0,696.84 1020.21,702.73 Q 1022.65,710.59 1023.78,719.52" data-line="nan" stroke-width="45.0" fill="none" stroke="url(&quot;#theme-accent-gradient-linear&quot;) rgb(128, 97, 255)"/><path d="M 1023.96,978.51 C 1022.29,991.25 1017.39,1002.99 1009.8,1012.33 Q 1002.74,1017.96 999.28,1019.52" data-line="nan" stroke-width="45.0" fill="none" stroke="url(&quot;#theme-accent-gradient-linear&quot;) rgb(128, 97, 255)"/><path d="M 917.4782097073082,612.1009961593697 A 206.6545603050324,206.6545603050324 0 0,0 868.9877563630154,432.25784162295184" data-line="3.0" stroke-width="45.0" fill="none" stroke="url(&quot;#theme-accent-gradient-linear&quot;) rgb(128, 97, 255)"/><path d="M 460.03,605.2 L 460.74,88.35" data-line="4.0" stroke-width="45.0" fill="none" stroke="url(&quot;#theme-accent-gradient-linear&quot;) rgb(128, 97, 255)"/><path d="M 163.27374728777892,780.7144105026011 A 389.3821334642665,389.3821334642665 0 0,1 302.3695493665174,636.1101134469629" data-line="7.0" stroke-width="45.0" fill="none" stroke="url(&quot;#theme-accent-gradient-linear&quot;) rgb(128, 97, 255)"/><path d="M 49.24,438.31 L 228.84,453.98" data-line="9.0" stroke-width="45.0" fill="none" stroke="url(&quot;#theme-accent-gradient-linear&quot;) rgb(128, 97, 255)"/><path d="M 170.91246212155428,146.9531456416003 A 210.3913894635893,210.3913894635893 0 0,0 50.79047353593725,437.55715304597015" data-line="10.0" stroke-width="45.0" fill="none" stroke="url(&quot;#theme-accent-gradient-linear&quot;) rgb(128, 97, 255)"/><path d="M 289.5557299457584,276.7461912988829 A 229.85065147525137,229.85065147525137 0 0,1 170.66527086409266,146.41971100366356" data-line="11.0" stroke-width="45.0" fill="none" stroke="url(&quot;#theme-accent-gradient-linear&quot;) rgb(128, 97, 255)"/><path d="M 512.0,951.02 L 512.17,653.18" data-line="14.0" stroke-width="45.0" fill="none" stroke="url(&quot;#theme-accent-gradient-linear&quot;) rgb(128, 97, 255)"/><path d="M 553.78,613.49 L 683.0,613.26" data-line="16.0" stroke-width="45.0" fill="none" stroke="url(&quot;#theme-accent-gradient-linear&quot;) rgb(128, 97, 255)"/><path d="M 773.9,676.77 L 980.87,677.25" data-line="18.0" stroke-width="45.0" fill="none" stroke="url(&quot;#theme-accent-gradient-linear&quot;) rgb(128, 97, 255)"/><path d="M 1023.78,719.52 L 1023.96,978.51" data-line="20.0" stroke-width="45.0" fill="none" stroke="url(&quot;#theme-accent-gradient-linear&quot;) rgb(128, 97, 255)"/><path d="M 999.28,1019.52 L 558.22,1023.99" data-line="22.0" stroke-width="45.0" fill="none" stroke="url(&quot;#theme-accent-gradient-linear&quot;) rgb(128, 97, 255)"/><path d="M 558.22,1023.99 C 528.7829355721672,1025.5863559293243 503.16443761299405,996.3392255442958 512.0,951.02" data-line="23.0" stroke-width="45.0" fill="none" stroke="url(&quot;#theme-accent-gradient-linear&quot;) rgb(128, 97, 255)"/></g></svg>