<svg xmlns="http://www.w3.org/2000/svg" width="55" height="55" viewBox="-40.99399995803833 102.80599975585938 1105.9810180664062 818.4639892578125" class="colorable-icon reset-top-left-margin" data-export-recolorable-svg="true" overflow="visible" xmlns:xlink="http://www.w3.org/1999/xlink" fill="rgb(0, 0, 0)" stroke="none" preserveAspectRatio="xMidYMid meet"><g fill="none" stroke="url(&quot;#theme-accent-gradient-linear&quot;) rgb(128, 97, 255)" stroke-width="45" stroke-linecap="round" stroke-linejoin="round"><path d="M 994.321,845.108 C 985.384,853.751 972.681,863.091 959.766,869.596 C 947.088,873.6 938.62,875.186 926.021,876.195 L 871.431,876.27" data-line="nan" stroke-width="45.0" fill="none" stroke="url(&quot;#theme-accent-gradient-linear&quot;) rgb(128, 97, 255)"/><path d="M 115.384,876.102 L 98.579,875.522" data-line="nan" stroke-width="45.0" fill="none" stroke="url(&quot;#theme-accent-gradient-linear&quot;) rgb(128, 97, 255)"/><path d="M 102.968,757.35 C 103.015,700.321 104.07,686.815 105.887,675.702 C 109.753,661.113 115.772,645.993 122.078,634.341 C 130.934,621.621 140.465,610.922 152.917,600.11 C 165.298,591.812 181.728,583.421 198.658,576.816 C 215.085,572.333 232.703,569.996 249.504,569.616" data-line="nan" stroke-width="45.0" fill="none" stroke="url(&quot;#theme-accent-gradient-linear&quot;) rgb(128, 97, 255)"/><path d="M 98.579,875.522 C 86.006,874.766 77.679,873.333 65.072,869.363 C 56.783,865.606 44.05,857.68 35.636,850.72 C 27.693,842.549 21.0,834.0 11.738,817.247 C 8.598,808.877 5.521,796.397 4.19,779.685 L 4.006,742.036" data-line="nan" stroke-width="45.0" fill="none" stroke="url(&quot;#theme-accent-gradient-linear&quot;) rgb(128, 97, 255)"/><path d="M 4.078,250.606 C 4.445,238.13 5.949,225.845 9.2,213.344 C 12.334,205.131 18.794,192.698 24.444,184.357 C 35.161,172.384 43.18,165.632 51.414,160.166 C 59.9,155.746 68.134,152.518 79.816,149.528 Q 99.983,147.883 141.985,147.806" data-line="nan" stroke-width="45.0" fill="none" stroke="url(&quot;#theme-accent-gradient-linear&quot;) rgb(128, 97, 255)"/><path d="M 923.234,147.959 C 944.141,149.301 952.364,151.232 965.063,156.199 C 977.744,163.67 985.933,170.187 993.594,177.763 C 1000.459,186.103 1010.498,202.918 1014.004,211.414 C 1017.573,223.965 1019.759,240.801 1019.987,282.808" data-line="nan" stroke-width="45.0" fill="none" stroke="url(&quot;#theme-accent-gradient-linear&quot;) rgb(128, 97, 255)"/><path d="M 1019.902,778.434 C 1018.433,795.284 1013.936,812.119 1005.868,829.144 Q 998.783,840.424 994.321,845.108" data-line="nan" stroke-width="45.0" fill="none" stroke="url(&quot;#theme-accent-gradient-linear&quot;) rgb(128, 97, 255)"/><path d="M 432.039,573.935 C 455.314,581.464 478.318,592.047 495.574,603.322 C 510.303,616.857 523.243,633.559 533.171,652.339 Q 539.632,671.414 542.447,690.954" data-line="nan" stroke-width="45.0" fill="none" stroke="url(&quot;#theme-accent-gradient-linear&quot;) rgb(128, 97, 255)"/><circle cx="322.18377657473485" cy="390.7584629183315" r="131.23693597576437" data-line="2.0" stroke-width="45.0" fill="none" stroke="url(&quot;#theme-accent-gradient-linear&quot;) rgb(128, 97, 255)"/><path d="M 635.21,396.101 L 885.619,396.059" data-line="4.0" stroke-width="45.0" fill="none" stroke="url(&quot;#theme-accent-gradient-linear&quot;) rgb(128, 97, 255)"/><path d="M 634.871,517.615 L 885.376,517.976" data-line="5.0" stroke-width="45.0" fill="none" stroke="url(&quot;#theme-accent-gradient-linear&quot;) rgb(128, 97, 255)"/><path d="M 871.431,876.27 L 115.384,876.102" data-line="7.0" stroke-width="45.0" fill="none" stroke="url(&quot;#theme-accent-gradient-linear&quot;) rgb(128, 97, 255)"/><path d="M 4.006,742.036 L 4.078,250.606" data-line="8.0" stroke-width="45.0" fill="none" stroke="url(&quot;#theme-accent-gradient-linear&quot;) rgb(128, 97, 255)"/><path d="M 141.985,147.806 L 923.234,147.959" data-line="10.0" stroke-width="45.0" fill="none" stroke="url(&quot;#theme-accent-gradient-linear&quot;) rgb(128, 97, 255)"/><path d="M 1019.987,282.808 L 1019.902,778.434" data-line="13.0" stroke-width="45.0" fill="none" stroke="url(&quot;#theme-accent-gradient-linear&quot;) rgb(128, 97, 255)"/><path d="M 249.504,569.616 L 432.039,573.935" data-line="13.0" stroke-width="45.0" fill="none" stroke="url(&quot;#theme-accent-gradient-linear&quot;) rgb(128, 97, 255)"/><path d="M 542.447,690.954 L 542.607,756.224" data-line="16.0" stroke-width="45.0" fill="none" stroke="url(&quot;#theme-accent-gradient-linear&quot;) rgb(128, 97, 255)"/></g></svg>