<svg xmlns="http://www.w3.org/2000/svg" width="55" height="55" viewBox="-31.63099956512451 -40.98899984359741 1087.261962890625 1105.968017578125" class="colorable-icon reset-top-left-margin" data-export-recolorable-svg="true" overflow="visible" xmlns:xlink="http://www.w3.org/1999/xlink" fill="rgb(0, 0, 0)" stroke="none" preserveAspectRatio="xMidYMid meet"><g fill="none" stroke="url(&quot;#theme-accent-gradient-linear&quot;) rgb(128, 97, 255)" stroke-width="45" stroke-linecap="round" stroke-linejoin="round"><path d="M 781.889,280.494 C 748.324,284.079 739.387,285.902 725.888,290.162 C 712.006,296.396 703.06,301.649 694.193,308.224 C 685.857,315.783 678.45,324.107 672.19,333.217 C 664.634,347.106 660.922,356.062 657.184,369.387 Q 655.649,378.514 654.224,410.844" data-line="nan" stroke-width="45.0" fill="none" stroke="url(&quot;#theme-accent-gradient-linear&quot;) rgb(128, 97, 255)"/><path d="M 667.38,410.869 C 734.277,410.528 749.144,407.114 759.914,402.146 C 767.223,396.524 771.409,392.054 775.508,385.516 C 779.167,376.986 781.466,365.997 781.82,343.11" data-line="nan" stroke-width="45.0" fill="none" stroke="url(&quot;#theme-accent-gradient-linear&quot;) rgb(128, 97, 255)"/><path d="M 162.199,410.959 C 159.76,379.805 157.111,366.109 154.237,356.968 C 148.045,343.099 142.408,333.615 135.609,324.36 C 128.061,315.967 119.652,308.456 110.122,301.606 C 100.501,295.869 87.023,289.894 64.017,283.762 L 32.175,279.983" data-line="nan" stroke-width="45.0" fill="none" stroke="url(&quot;#theme-accent-gradient-linear&quot;) rgb(128, 97, 255)"/><path d="M 781.84,134.307 C 759.141,133.344 746.664,132.007 732.99,128.926 C 723.813,125.818 710.016,119.247 700.921,113.475 C 691.684,106.355 683.236,98.338 675.792,89.537 C 669.651,80.322 664.791,70.946 659.55,57.302 Q 655.807,39.312 653.512,4.011" data-line="nan" stroke-width="45.0" fill="none" stroke="url(&quot;#theme-accent-gradient-linear&quot;) rgb(128, 97, 255)"/><path d="M 160.674,4.13 C 159.322,36.015 157.805,47.389 154.929,58.709 C 150.958,68.508 144.591,80.136 137.673,89.79 C 130.219,98.316 120.887,107.044 110.914,114.497 C 100.058,121.045 86.731,126.967 75.164,130.463 Q 64.863,132.478 32.176,134.769" data-line="nan" stroke-width="45.0" fill="none" stroke="url(&quot;#theme-accent-gradient-linear&quot;) rgb(128, 97, 255)"/><path d="M 151.423,847.018 C 137.384,834.017 124.65,820.622 113.403,806.805 C 104.045,793.327 93.583,775.165 84.323,756.846 C 77.196,738.453 71.624,720.14 67.446,702.138 C 64.422,683.899 61.927,661.134 60.755,638.346 Q 61.869,597.418 67.675,539.423" data-line="nan" stroke-width="45.0" fill="none" stroke="url(&quot;#theme-accent-gradient-linear&quot;) rgb(128, 97, 255)"/><path d="M 370.259,1019.979 C 366.849,982.763 364.141,969.611 361.227,960.203 C 357.331,951.001 352.104,941.982 345.366,932.788 C 337.296,923.91 328.821,916.352 319.737,909.959 C 310.32,904.722 296.62,899.099 278.445,894.597 L 241.989,890.545" data-line="nan" stroke-width="45.0" fill="none" stroke="url(&quot;#theme-accent-gradient-linear&quot;) rgb(128, 97, 255)"/><path d="M 242.226,971.611 C 244.643,983.303 248.814,993.036 256.318,1003.451 C 265.112,1010.885 274.697,1015.758 285.697,1018.807 Q 294.811,1019.785 313.142,1019.905" data-line="nan" stroke-width="45.0" fill="none" stroke="url(&quot;#theme-accent-gradient-linear&quot;) rgb(128, 97, 255)"/><path d="M 995.632,887.225 C 961.253,892.052 942.981,897.109 929.641,903.144 C 920.27,908.62 911.193,915.096 902.218,923.097 C 893.987,932.262 887.416,941.439 882.133,950.512 C 876.186,964.09 871.93,982.17 867.853,1019.975" data-line="nan" stroke-width="45.0" fill="none" stroke="url(&quot;#theme-accent-gradient-linear&quot;) rgb(128, 97, 255)"/><path d="M 995.594,740.94 C 959.438,736.629 940.918,731.91 928.375,726.696 C 917.94,720.945 908.985,714.623 899.975,706.514 C 892.778,698.385 885.374,688.073 879.395,676.982 C 874.91,665.643 872.245,656.356 870.584,646.845 L 868.72,610.889" data-line="nan" stroke-width="45.0" fill="none" stroke="url(&quot;#theme-accent-gradient-linear&quot;) rgb(128, 97, 255)"/><path d="M 372.366,610.728 C 368.17,629.634 366.149,649.551 361.859,665.842 C 355.734,679.948 350.578,689.558 344.296,698.758 C 336.402,707.778 329.461,714.116 320.369,720.675 C 308.067,727.319 297.596,731.706 282.776,736.199 Q 271.894,738.349 241.992,740.336" data-line="nan" stroke-width="45.0" fill="none" stroke="url(&quot;#theme-accent-gradient-linear&quot;) rgb(128, 97, 255)"/><path d="M 781.862,65.193 C 781.327,51.503 778.687,37.677 774.442,28.221 C 771.292,23.594 763.34,15.385 754.331,9.575 C 740.505,5.145 731.496,4.16 708.753,4.011" data-line="nan" stroke-width="45.0" fill="none" stroke="url(&quot;#theme-accent-gradient-linear&quot;) rgb(128, 97, 255)"/><path d="M 88.438,4.04 C 72.729,5.034 63.009,8.082 54.049,12.987 C 49.686,16.374 42.213,24.69 35.859,36.978 C 33.416,47.231 32.378,60.695 32.293,83.438" data-line="nan" stroke-width="45.0" fill="none" stroke="url(&quot;#theme-accent-gradient-linear&quot;) rgb(128, 97, 255)"/><path d="M 995.403,665.743 C 994.665,652.076 990.758,638.373 985.061,628.984 C 976.577,620.573 967.08,614.894 957.849,612.033 Q 948.898,611.091 926.167,610.945" data-line="nan" stroke-width="45.0" fill="none" stroke="url(&quot;#theme-accent-gradient-linear&quot;) rgb(128, 97, 255)"/><path d="M 299.458,610.704 C 284.247,611.719 271.634,615.43 264.712,619.233 C 258.82,623.596 250.62,632.718 245.598,641.966 Q 242.3,654.729 241.989,692.35" data-line="nan" stroke-width="45.0" fill="none" stroke="url(&quot;#theme-accent-gradient-linear&quot;) rgb(128, 97, 255)"/><circle cx="407.5372736830723" cy="207.10545173772414" r="111.68551370410592" data-line="9.0" stroke-width="45.0" fill="none" stroke="url(&quot;#theme-accent-gradient-linear&quot;) rgb(128, 97, 255)"/><path d="M 868.9722473360471,180.29537413971576 A 254.18784341270077,254.18784341270077 0 0,1 955.7410476163498,333.0593065163652" data-line="11.0" stroke-width="45.0" fill="none" stroke="url(&quot;#theme-accent-gradient-linear&quot;) rgb(128, 97, 255)"/><path d="M 905.422,421.027 L 953.76,484.654" data-line="12.0" stroke-width="45.0" fill="none" stroke="url(&quot;#theme-accent-gradient-linear&quot;) rgb(128, 97, 255)"/><path d="M 1010.631,426.486 L 953.76,484.654" data-line="13.0" stroke-width="45.0" fill="none" stroke="url(&quot;#theme-accent-gradient-linear&quot;) rgb(128, 97, 255)"/><path d="M 67.675,539.423 L 13.369,592.601" data-line="15.0" stroke-width="45.0" fill="none" stroke="url(&quot;#theme-accent-gradient-linear&quot;) rgb(128, 97, 255)"/><path d="M 116.014,602.844 L 67.675,539.423" data-line="18.0" stroke-width="45.0" fill="none" stroke="url(&quot;#theme-accent-gradient-linear&quot;) rgb(128, 97, 255)"/><path d="M 241.989,905.063 L 242.226,971.611" data-line="25.0" stroke-width="45.0" fill="none" stroke="url(&quot;#theme-accent-gradient-linear&quot;) rgb(128, 97, 255)"/><circle cx="615.5698737563528" cy="812.9378925488861" r="111.50623360026914" data-line="30.0" stroke-width="45.0" fill="none" stroke="url(&quot;#theme-accent-gradient-linear&quot;) rgb(128, 97, 255)"/><path d="M 781.82,343.11 L 781.862,65.193" data-line="31.0" stroke-width="45.0" fill="none" stroke="url(&quot;#theme-accent-gradient-linear&quot;) rgb(128, 97, 255)"/><path d="M 708.753,4.011 L 88.438,4.04" data-line="33.0" stroke-width="45.0" fill="none" stroke="url(&quot;#theme-accent-gradient-linear&quot;) rgb(128, 97, 255)"/><path d="M 32.293,83.438 L 32.231,357.106" data-line="35.0" stroke-width="45.0" fill="none" stroke="url(&quot;#theme-accent-gradient-linear&quot;) rgb(128, 97, 255)"/><path d="M 31.907998015083855,357.0884412028192 A 52.174123822581016,52.174123822581016 0 0,0 101.45385651207667,409.0904575218003" data-line="36.0" stroke-width="45.0" fill="none" stroke="url(&quot;#theme-accent-gradient-linear&quot;) rgb(128, 97, 255)"/><path d="M 102.118,410.962 L 667.38,410.869" data-line="37.0" stroke-width="45.0" fill="none" stroke="url(&quot;#theme-accent-gradient-linear&quot;) rgb(128, 97, 255)"/><path d="M 955.531,333.094 L 953.76,484.654" data-line="38.0" stroke-width="45.0" fill="none" stroke="url(&quot;#theme-accent-gradient-linear&quot;) rgb(128, 97, 255)"/><path d="M 313.142,1019.905 L 940.163,1019.939" data-line="39.0" stroke-width="45.0" fill="none" stroke="url(&quot;#theme-accent-gradient-linear&quot;) rgb(128, 97, 255)"/><path d="M 940.1700548647387,1019.8395655866639 A 52.391306693236366,52.391306693236366 0 0,0 994.2466493568995,953.1630598200495" data-line="40.0" stroke-width="45.0" fill="none" stroke="url(&quot;#theme-accent-gradient-linear&quot;) rgb(128, 97, 255)"/><path d="M 995.578,952.782 L 995.403,665.743" data-line="41.0" stroke-width="45.0" fill="none" stroke="url(&quot;#theme-accent-gradient-linear&quot;) rgb(128, 97, 255)"/><path d="M 926.167,610.945 L 299.458,610.704" data-line="43.0" stroke-width="45.0" fill="none" stroke="url(&quot;#theme-accent-gradient-linear&quot;) rgb(128, 97, 255)"/><path d="M 241.989,692.35 L 241.989,905.063" data-line="45.0" stroke-width="45.0" fill="none" stroke="url(&quot;#theme-accent-gradient-linear&quot;) rgb(128, 97, 255)"/></g></svg>