<svg xmlns="http://www.w3.org/2000/svg" viewBox="-41 -33.92700004577637 1106 1091.85400390625" width="55" height="55" class="colorable-icon reset-top-left-margin" data-export-recolorable-svg="true" overflow="visible" xmlns:xlink="http://www.w3.org/1999/xlink" fill="rgb(0, 0, 0)" stroke="none" preserveAspectRatio="xMidYMid meet"><g id="skeleton-paths" stroke-width="45.0" fill="rgb(0, 0, 0)" stroke="none"><path id="path-0-0" d="M818.034 910.962L815.835 912.592L813.506 914.298L810.758 916.292L808.233 918.085L806.048 919.617L803.685 921.265L801.508 922.777L798.985 924.502L796.147 926.400L792.490 928.803L788.279 931.522L783.659 934.456L778.942 937.381L774.352 940.168L770.211 942.636L766.676 944.700L763.889 946.300L761.233 947.797L758.587 949.270L755.644 950.892L752.610 952.531L749.573 954.145L746.511 955.746L743.591 957.256L741.017 958.573L738.532 959.824L736.396 960.881L734.005 962.048L731.951 963.037L729.381 964.261L726.640 965.544L723.162 967.150L719.656 968.742L716.141 970.308L712.827 971.751L709.184 973.300L705.223 974.952L701.278 976.566L697.775 977.966L695.023 979.043L692.398 980.054L689.689 981.081L686.608 982.231L683.506 983.360L680.784 984.329L678.266 985.209L676.066 985.969L673.643 986.801L671.436 987.548L668.909 988.384L666.279 989.221L662.812 990.306L658.773 991.539L654.209 992.901L649.525 994.245L644.836 995.542L640.275 996.760L636.178 997.819L632.574 998.715L629.307 999.496L625.747 1000.321L622.192 1001.129L618.640 1001.907L615.568 1002.552L612.505 1003.170L609.472 1003.762L606.260 1004.369L602.666 1005.019L599.141 1005.636L595.597 1006.230L592.568 1006.714L589.507 1007.181L586.472 1007.626L583.410 1008.067L580.260 1008.511L577.199 1008.923L574.497 1009.269L571.922 1009.568L569.806 1009.800L567.294 1010.067L564.639 1010.347L561.678 1010.660L558.553 1010.987L555.632 1011.276L552.500 1011.567L549.555 1011.812L546.884 1012.021L544.364 1012.191L542.191 1012.324L539.681 1012.454L537.530 1012.551L534.932 1012.646L532.430 1012.722L529.382 1012.802L526.446 1012.862L523.782 1012.904L521.269 1012.923L519.096 1012.927L516.624 1012.921L514.461 1012.908L511.907 1012.881L509.345 1012.844L506.340 1012.792L503.361 1012.733L500.715 1012.675L498.175 1012.612L496.002 1012.554L493.556 1012.484L491.383 1012.420L488.937 1012.346L486.764 1012.279L484.319 1012.185L482.146 1012.078L479.653 1011.914L477.475 1011.751L474.953 1011.546L472.834 1011.369L470.357 1011.155L468.267 1010.970L465.779 1010.744L463.624 1010.544L461.156 1010.306L459.066 1010.093L456.666 1009.829L454.505 1009.573L452.030 1009.264L449.824 1008.978L447.357 1008.649L445.203 1008.353L442.695 1007.995L440.110 1007.613L437.098 1007.157L433.999 1006.669L431.374 1006.236L428.751 1005.773L426.642 1005.384L424.097 1004.910L422.012 1004.520L419.473 1004.040L417.005 1003.559L414.038 1002.967L411.048 1002.346L408.370 1001.772L405.725 1001.184L403.561 1000.687L401.040 1000.101L398.972 999.612L396.472 999.013L393.921 998.391L390.444 997.517L386.378 996.458L381.793 995.213L377.100 993.896L372.420 992.542L367.756 991.150L363.230 989.753L359.169 988.455L355.728 987.326L353.043 986.428L350.450 985.547L347.649 984.581L344.073 983.318L339.966 981.825L335.491 980.149L330.943 978.405L326.417 976.630L322.004 974.858L318.004 973.210L314.434 971.697L311.688 970.509L309.095 969.366L307.006 968.437L304.406 967.275L301.729 966.060L298.617 964.630L295.642 963.226L293.037 961.975L290.539 960.752L288.402 959.699L286.018 958.522L283.977 957.504L281.476 956.243L279.318 955.140L276.824 953.847L274.800 952.776L272.334 951.450L270.164 950.268L267.542 948.826L265.011 947.420L262.035 945.760L259.099 944.106L256.415 942.571L253.867 941.075L251.598 939.712L249.077 938.183L246.838 936.817L244.307 935.266L241.698 933.643L238.213 931.437L234.174 928.825L229.697 925.872L225.558 923.093L221.942 920.635L219.139 918.709L216.616 916.950L214.455 915.403L211.978 913.596L209.304 911.615L206.241 909.336L203.180 907.040L200.529 905.032L198.091 903.163L195.994 901.525L193.595 899.618L191.012 897.523L188.070 895.114L185.036 892.614L182.331 890.377L179.720 888.195L177.534 886.332L175.123 884.228L172.637 882.002L169.823 879.450L166.939 876.800L164.388 874.429L161.843 872.021L159.641 869.900L157.173 867.477L154.993 865.310L152.549 862.863L150.379 860.687L147.940 858.234L145.778 856.050L143.356 853.580L141.226 851.387L138.791 848.865L136.377 846.338L133.675 843.479L131.002 840.587L128.621 837.969L126.372 835.434L124.499 833.281L122.484 830.921L120.644 828.735L118.590 826.283L116.759 824.090L114.775 821.693L112.970 819.478L110.975 816.976L109.219 814.734L107.276 812.221L105.225 809.534L102.642 806.118L99.984 802.559L97.436 799.104L95.440 796.345L93.669 793.851L92.153 791.674L90.519 789.300L89.020 787.095L87.303 784.539L85.543 781.882L83.566 778.856L81.670 775.911L79.975 773.249L78.388 770.724L76.978 768.451L75.473 765.981L74.103 763.696L72.626 761.208L71.291 758.943L69.821 756.417L68.352 753.843L66.712 750.924L65.041 747.906L63.537 745.167L62.058 742.426L60.705 739.873L59.198 736.983L57.752 734.172L56.438 731.594L55.176 729.076L53.903 726.483L52.464 723.508L50.976 720.379L49.510 717.249L48.065 714.117L46.651 710.985L45.240 707.798L43.710 704.255L42.227 700.776L40.798 697.357L39.703 694.689L38.624 691.994L37.541 689.235L36.175 685.690L34.665 681.671L33.037 677.228L31.410 672.659L29.822 668.057L28.286 663.458L26.844 658.994L25.605 655.065L24.551 651.614L23.764 648.974L22.993 646.311L22.350 644.057L21.622 641.476L20.992 639.185L20.318 636.684L19.738 634.458L19.100 631.964L18.439 629.316L17.624 625.973L16.814 622.565L16.026 619.135L15.346 616.071L14.690 613.028L14.046 609.949L13.409 606.771L12.716 603.158L12.066 599.641L11.432 596.106L10.910 593.052L10.398 589.927L9.936 586.959L9.538 584.322L9.154 581.733L8.771 579.141L8.330 576.169L7.896 573.067L7.511 570.029L7.157 566.893L6.862 563.920L6.610 561.309L6.372 558.665L6.150 556.079L5.890 552.981L5.630 549.986L5.378 547.308L5.111 544.697L4.866 542.121L4.611 539.150L4.429 536.215L4.304 533.608L4.234 531.093L4.186 528.920L4.139 526.474L4.103 524.301L4.069 521.855L4.045 519.682L4.024 517.237L4.010 515.064L4.002 512.618L4 510.445L4.005 507.999L4.014 505.826L4.031 503.380L4.051 501.207L4.079 498.761L4.110 496.588L4.151 494.142L4.193 491.969L4.245 489.523L4.297 487.350L4.361 484.904L4.423 482.731L4.524 480.297L4.648 478.189L4.858 475.777L5.077 473.682L5.356 471.176L5.589 469.012L5.845 466.452L6.044 464.310L6.269 461.837L6.453 459.788L6.672 457.361L6.861 455.239L7.104 452.712L7.330 450.507L7.630 448.006L7.911 445.916L8.267 443.487L8.596 441.417L8.994 438.927L9.351 436.776L9.762 434.221L10.102 432.093L10.500 429.581L10.835 427.480L11.248 424.944L11.597 422.848L12.033 420.341L12.412 418.246L12.884 415.722L13.283 413.634L13.769 411.135L14.283 408.563L14.994 405.123L15.759 401.521L16.547 397.939L17.163 395.211L17.768 392.624L18.393 390.024L19.247 386.584L20.162 382.992L21.094 379.444L21.820 376.745L22.525 374.186L23.248 371.625L24.247 368.188L25.459 364.154L26.815 359.765L28.091 355.725L29.183 352.343L30.066 349.669L30.905 347.212L31.686 344.983L32.595 342.437L33.585 339.701L34.906 336.115L36.437 332.057L38.163 327.612L39.759 323.592L41.228 319.974L42.323 317.303L43.396 314.744L44.274 312.699L45.382 310.171L46.365 307.964L47.542 305.334L48.742 302.703L50.329 299.273L51.964 295.818L53.645 292.324L54.916 289.729L56.182 287.183L57.204 285.146L58.508 282.581L59.586 280.491L60.916 277.962L62.188 275.590L63.797 272.614L65.463 269.569L66.984 266.815L68.479 264.169L69.884 261.738L71.574 258.848L73.288 255.952L74.904 253.237L76.454 250.670L77.846 248.399L79.379 245.948L80.808 243.702L82.369 241.270L83.813 239.033L85.390 236.612L86.858 234.392L88.453 232.017L89.943 229.833L91.664 227.344L93.578 224.614L95.769 221.518L98.013 218.389L99.968 215.707L101.825 213.209L103.435 211.073L105.174 208.780L106.782 206.675L108.616 204.311L110.291 202.182L112.232 199.750L113.885 197.691L115.857 195.244L117.553 193.147L119.526 190.741L121.316 188.600L123.436 186.126L125.428 183.844L127.707 181.274L129.773 178.972L132.172 176.339L134.611 173.714L137.329 170.840L140.049 168.006L142.463 165.516L144.906 163.024L147.053 160.863L149.508 158.425L151.698 156.270L154.169 153.849L156.367 151.701L158.850 149.292L161.067 147.163L163.546 144.794L165.733 142.707L168.074 140.481L170.101 138.579L172.265 136.608L174.257 134.850L176.551 132.876L178.756 131.004L181.221 128.932L183.418 127.104L185.838 125.116L188.068 123.308L190.733 121.171L193.462 119.012L196.543 116.599L199.515 114.306L202.149 112.294L204.565 110.470L206.686 108.887L209.003 107.178L211.165 105.606L213.674 103.805L216.263 101.968L219.214 99.894L222.083 97.905L224.692 96.120L227.166 94.450L229.394 92.963L231.805 91.371L234.036 89.919L236.468 88.359L238.717 86.932L241.163 85.394L243.398 84.002L245.908 82.464L248.624 80.832L251.975 78.850L255.486 76.800L258.935 74.817L262.061 73.056L265.092 71.380L268.075 69.756L270.775 68.305L273.472 66.887L276.134 65.511L279.102 64L282.168 62.461L285.246 60.948L288.353 59.449L291.460 57.981L294.597 56.526L297.668 55.127L300.658 53.791L303.194 52.667L305.838 51.506L308.531 50.334L311.551 49.030L314.545 47.762L317.096 46.697L319.602 45.669L321.801 44.780L324.327 43.779L327.063 42.721L330.545 41.409L334.113 40.085L337.644 38.802L340.442 37.809L343.139 36.878L345.868 35.961L349.188 34.867L353.133 33.603L357.373 32.284L361.319 31.084L364.802 30.059L367.957 29.162L371.515 28.185L375.116 27.219L378.723 26.277L381.938 25.462L384.960 24.725L387.974 24.010L390.919 23.333L393.993 22.640L397.064 21.974L400.246 21.308L403.840 20.588L407.353 19.902L410.886 19.236L413.967 18.682L417.056 18.149L420.155 17.633L423.228 17.135L426.361 16.641L429.433 16.172L432.480 15.720L435.545 15.279L438.518 14.859L441.101 14.495L443.728 14.129L446.298 13.785L449.365 13.394L452.346 13.053L454.998 12.786L457.512 12.583L459.690 12.435L462.204 12.279L464.457 12.150L467.097 12.007L469.687 11.882L472.610 11.749L475.500 11.634L478.078 11.538L480.606 11.457L482.779 11.394L485.225 11.332L487.398 11.283L489.844 11.234L492.017 11.197L494.463 11.162L496.635 11.136L499.081 11.113L501.254 11.097L503.700 11.083L505.873 11.076L508.319 11.073L510.492 11.073L512.938 11.078L515.111 11.084L517.557 11.095L519.730 11.111L522.176 11.138L524.349 11.173L526.795 11.218L528.968 11.260L531.413 11.305L533.586 11.343L536.032 11.387L538.205 11.430L540.651 11.485L542.824 11.541L545.270 11.617L547.443 11.698L549.906 11.807L552.052 11.919L554.539 12.079L556.670 12.240L559.231 12.468L561.349 12.680L563.886 12.966L565.961 13.224L568.442 13.537L570.532 13.795L573.004 14.083L575.152 14.324L577.686 14.609L579.841 14.858L582.353 15.157L584.444 15.421L586.910 15.747L589.012 16.042L591.515 16.400L593.642 16.714L596.190 17.097L598.293 17.422L600.811 17.820L602.870 18.156L605.362 18.573L607.440 18.933L609.948 19.377L612.072 19.766L614.616 20.238L616.712 20.638L619.230 21.132L621.779 21.656L624.784 22.285L627.890 22.952L630.486 23.517L633.107 24.106L635.668 24.707L639.145 25.544L643.075 26.520L647.074 27.531L650.648 28.467L653.436 29.220L656.095 29.955L658.756 30.709L662.213 31.711L666.250 32.920L670.787 34.315L675.428 35.788L680.045 37.303L684.565 38.834L688.672 40.259L692.243 41.530L695.037 42.546L697.549 43.480L699.745 44.311L702.098 45.213L704.289 46.066L706.612 46.981L708.779 47.847L711.187 48.825L713.385 49.729L715.831 50.753L717.933 51.642L720.543 52.764L723.323 53.983L726.911 55.586L730.794 57.359L734.645 59.141L738.141 60.791L740.878 62.107L743.584 63.440L746.171 64.736L749.218 66.277L752.223 67.819L754.980 69.257L757.674 70.695L760.350 72.145L763.309 73.762L766.251 75.394L768.886 76.881L771.529 78.403L774.160 79.941L777.064 81.653L779.946 83.378L782.521 84.942L785.030 86.493L787.272 87.893L789.717 89.434L791.961 90.868L794.384 92.442L796.605 93.909L799.008 95.514L801.215 97.002L803.593 98.624L805.778 100.133L808.285 101.891L810.992 103.825L814.085 106.060L817.172 108.322L819.845 110.300L822.298 112.149L824.408 113.768L826.826 115.651L829.436 117.714L832.416 120.086L835.484 122.550L838.220 124.758L840.855 126.904L843.057 128.728L845.427 130.747L847.573 132.636L850.052 134.855L852.335 136.908L854.901 139.220L857.175 141.274L859.628 143.509L861.734 145.438L864.021 147.548L866.117 149.496L868.537 151.779L870.745 153.908L873.201 156.340L875.353 158.534L877.740 161.032L879.836 163.268L882.097 165.703L884.043 167.797L886.172 170.067L888.137 172.142L890.421 174.553L892.516 176.790L894.849 179.341L896.894 181.634L899.220 184.286L901.521 186.952L904.080 189.947L906.540 192.868L908.669 195.430L910.614 197.807L912.282 199.873L914.139 202.211L915.893 204.459L917.842 206.995L919.569 209.274L921.475 211.832L923.485 214.577L926.001 218.052L928.592 221.663L931.076 225.164L933.027 227.953L934.765 230.482L936.255 232.681L937.860 235.072L939.333 237.290L940.916 239.707L942.352 241.932L943.943 244.432L945.642 247.145L947.699 250.472L949.829 253.965L951.848 257.322L953.484 260.084L955.019 262.721L956.521 265.356L958.170 268.288L959.843 271.309L961.489 274.323L963.124 277.362L964.734 280.414L966.315 283.459L967.883 286.531L969.433 289.619L970.991 292.783L972.667 296.261L974.314 299.741L975.901 303.143L977.143 305.849L978.321 308.477L979.431 311.003L980.736 314.013L982.066 317.132L983.409 320.347L984.716 323.544L985.947 326.611L987.015 329.301L987.978 331.781L988.811 333.963L989.738 336.452L990.762 339.252L992.039 342.822L993.477 346.941L995.009 351.459L996.485 355.951L997.784 360.009L998.863 363.483L999.686 366.202L1000.438 368.756L1001.083 370.987L1001.809 373.545L1002.540 376.208L1003.476 379.711L1004.512 383.724L1005.530 387.753L1006.417 391.388L1007.049 394.065L1007.641 396.678L1008.097 398.742L1008.645 401.259L1009.186 403.837L1009.882 407.243L1010.584 410.791L1011.270 414.322L1011.802 417.122L1012.296 419.826L1012.746 422.455L1013.238 425.452L1013.726 428.550L1014.193 431.559L1014.656 434.620L1015.086 437.594L1015.444 440.228L1015.781 442.898L1016.090 445.456L1016.449 448.439L1016.801 451.389L1017.110 454.021L1017.392 456.589L1017.611 458.756L1017.843 461.281L1018.025 463.432L1018.230 465.951L1018.397 468.040L1018.590 470.474L1018.750 472.585L1018.927 475.069L1019.069 477.243L1019.219 479.816L1019.347 482.378L1019.482 485.376L1019.602 488.337L1019.700 490.974L1019.779 493.509L1019.834 495.682L1019.888 498.128L1019.931 500.301L1019.970 502.747L1019.993 504.920L1020 507.365L1019.992 509.538L1019.967 511.986L1019.933 514.097L1019.884 516.632L1019.832 519.203L1019.768 522.292L1019.696 525.287L1019.610 527.949L1019.498 530.460L1019.380 532.633L1019.239 535.079L1019.110 537.252L1018.965 539.698L1018.835 541.871L1018.676 544.380L1018.528 546.531L1018.322 549.122L1018.099 551.619L1017.813 554.672L1017.524 557.629L1017.264 560.275L1017 562.872L1016.717 565.460L1016.379 568.452L1015.996 571.560L1015.599 574.610L1015.167 577.757L1014.745 580.735L1014.372 583.326L1013.982 585.920L1013.579 588.490L1013.098 591.508L1012.581 594.602L1012.047 597.666L1011.478 600.776L1010.892 603.860L1010.267 607.076L1009.515 610.812L1008.670 614.889L1007.818 618.850L1007.020 622.400L1006.309 625.441L1005.583 628.493L1004.849 631.543L1004.102 634.564L1003.299 637.717L1002.501 640.712L1001.761 643.437L1001.015 646.107L1000.207 648.962L999.160 652.594L997.970 656.601L996.792 660.462L995.697 663.936L994.685 667.067L993.485 670.706L992.104 674.800L990.528 679.349L988.885 683.925L987.231 688.397L985.686 692.467L984.266 696.148L982.976 699.420L981.689 702.623L980.437 705.652L979.313 708.313L978.195 710.898L977.042 713.544L975.722 716.562L974.320 719.725L972.892 722.859L971.427 725.983L969.935 729.092L968.438 732.178L966.924 735.275L965.384 738.360L963.813 741.409L962.187 744.453L960.519 747.484L958.754 750.642L956.783 754.130L954.754 757.693L952.793 761.090L951.151 763.883L949.608 766.442L948.226 768.700L946.675 771.216L944.987 773.930L942.798 777.396L940.180 781.461L937.259 785.894L934.466 790.059L931.994 793.683L930.043 796.513L928.199 799.140L926.523 801.478L924.633 804.065L922.942 806.343L921.038 808.880L919.059 811.488L916.729 814.529L914.401 817.518L912.324 820.137L910.403 822.499L908.707 824.555L906.730 826.930L904.594 829.485L902.116 832.432L899.657 835.352L897.491 837.909L895.405 840.340L893.505 842.513L891.272 845.015L889.196 847.297L886.836 849.837L884.719 852.067L882.316 854.555L880.164 856.749L877.726 859.204L875.549 861.372L873.086 863.801L870.884 865.945L868.387 868.340L866.148 870.447L863.610 872.800L861.343 874.879L858.783 877.211L856.499 879.273L853.917 881.577L851.613 883.607L849.105 885.800L846.944 887.681L844.680 889.645L842.669 891.378L840.397 893.312L838.212 895.144L835.747 897.179L833.523 898.988L831.027 900.987L829.387 902.292L827.627 903.678" stroke="url(&quot;#theme-accent-gradient-linear&quot;) rgb(128, 97, 255)" stroke-width="45" fill="none" stroke-linecap="round" stroke-linejoin="round"/><path id="path-extension-1" d="M818.034 910.962L823.840 906.660" stroke="url(&quot;#theme-accent-gradient-linear&quot;) rgb(128, 97, 255)" stroke-width="45" fill="none" stroke-linecap="round" stroke-linejoin="round"/><path id="path-extension-2" d="M827.627 903.678L823.840 906.660" stroke="url(&quot;#theme-accent-gradient-linear&quot;) rgb(128, 97, 255)" stroke-width="45" fill="none" stroke-linecap="round" stroke-linejoin="round"/><path id="path-connection-1" d="M823.840 906.660L823.840 906.660" stroke="url(&quot;#theme-accent-gradient-linear&quot;) rgb(128, 97, 255)" stroke-width="45" fill="none" stroke-linecap="round" stroke-linejoin="round"/></g><g id="skeleton-paths" stroke-width="45.0" fill="rgb(0, 0, 0)" stroke="none"><path id="path-0-0" d="M512.391 104.095L512.391 105.321L512.390 107.064L512.390 109.237L512.389 111.682L512.388 113.855L512.387 116.301L512.386 118.474L512.385 120.920L512.384 123.093L512.382 125.539L512.382 127.712L512.380 130.158L512.379 132.331L512.378 134.777L512.377 136.950L512.376 139.396L512.375 141.569L512.374 144.014L512.373 146.187L512.372 148.633L512.371 150.806L512.370 153.252L512.369 155.425L512.368 157.871L512.367 160.044L512.366 162.490L512.365 164.663L512.364 167.109L512.363 169.282L512.362 171.728L512.361 173.901L512.360 176.347L512.359 178.520L512.358 180.965L512.357 183.138L512.356 185.584L512.355 187.757L512.354 190.203L512.353 192.376L512.352 194.822L512.351 196.995L512.350 199.441L512.349 201.614L512.348 204.060L512.347 206.233L512.346 208.679L512.345 210.852L512.344 213.298L512.343 215.470L512.342 217.916L512.341 220.089L512.339 222.535L512.339 224.708L512.337 227.154L512.336 229.327L512.335 231.773L512.334 233.946L512.333 236.392L512.332 238.565L512.331 241.011L512.330 243.184L512.329 245.630L512.328 247.803L512.327 250.248L512.326 252.421L512.325 254.867L512.324 257.040L512.323 259.486L512.322 261.659L512.321 264.105L512.320 266.278L512.319 268.724L512.318 270.897L512.317 273.343L512.316 275.516L512.315 277.962L512.314 280.135L512.313 282.581L512.312 284.754L512.311 287.199L512.310 289.372L512.309 291.818L512.308 293.991L512.307 296.437L512.306 298.610L512.305 301.056L512.304 303.229L512.303 305.675L512.302 307.848L512.301 310.294L512.300 312.467L512.299 314.913L512.298 317.086L512.297 319.531L512.296 321.704L512.294 324.150L512.294 326.323L512.292 328.769L512.291 330.942L512.290 333.388L512.289 335.561L512.288 338.007L512.287 340.180L512.286 342.626L512.285 344.799L512.284 347.245L512.283 349.418L512.282 351.864L512.281 354.037L512.280 356.482L512.279 358.655L512.278 361.101L512.277 363.274L512.276 365.720L512.275 367.893L512.274 370.339L512.273 372.512L512.272 374.958L512.271 377.131L512.270 379.577L512.269 381.750L512.268 384.196L512.267 386.369L512.266 388.815L512.265 390.987L512.264 393.433L512.263 395.606L512.262 398.052L512.261 400.225L512.260 402.671L512.259 404.844L512.258 407.290L512.257 409.463L512.256 411.909L512.255 414.082L512.254 416.528L512.253 418.701L512.252 421.147L512.251 423.320L512.249 425.765L512.249 427.938L512.247 430.384L512.246 432.557L512.245 435.003L512.244 437.176L512.243 439.622L512.242 441.795L512.241 444.241L512.240 446.414L512.239 448.860L512.238 451.033L512.237 453.479L512.236 455.652L512.235 458.098L512.234 460.271L512.233 462.716L512.232 464.889L512.231 467.335L512.230 469.508L512.229 471.954L512.228 474.127L512.227 476.573L512.226 478.746L512.225 481.192L512.224 483.365L512.223 485.811L512.222 487.984L512.221 490.472L512.220 492.662L512.224 495.233L512.470 497.830L513.082 500.858L514.592 503.922L516.900 506.778L519.929 509.399L523.065 511.687L525.800 513.635L528.315 515.412L530.490 516.948L532.847 518.613L535.022 520.149L537.378 521.812L539.549 523.345L542.047 525.109L544.827 527.072L548.332 529.547L551.985 532.127L555.491 534.602L558.272 536.567L560.773 538.333L562.945 539.867L565.301 541.531L567.477 543.067L569.835 544.733L572.011 546.269L574.369 547.934L576.545 549.470L578.899 551.133L581.069 552.665L583.566 554.429L586.345 556.391L589.850 558.866L593.503 561.445L597.009 563.921L599.792 565.886L602.294 567.654L604.467 569.189L606.823 570.853L608.999 572.389L611.357 574.054L613.533 575.591L615.888 577.254L618.058 578.786L620.557 580.550L623.328 582.507L626.899 585.029L630.934 587.878L634.967 590.727L638.537 593.247L641.311 595.206L643.814 596.974L645.989 598.510L648.345 600.174L650.521 601.711L652.879 603.376L655.055 604.912L657.409 606.575L659.579 608.107L662.076 609.870L664.854 611.832L668.359 614.307L672.012 616.887L675.519 619.363L678.301 621.328L680.803 623.095L682.977 624.630L685.333 626.294L687.509 627.831L689.867 629.496L692.043 631.032L694.401 632.698L696.577 634.234L698.931 635.896L701.100 637.428L703.595 639.190L706.373 641.151L709.877 643.626L713.530 646.205L717.037 648.682L719.820 650.648L722.324 652.416L724.499 653.952L726.852 655.619L729.010 657.172L730.674 658.377L731.902 659.295" stroke="url(&quot;#theme-accent-gradient-linear&quot;) rgb(128, 97, 255)" stroke-width="45" fill="none" stroke-linecap="round" stroke-linejoin="round"/></g></svg>