<svg xmlns="http://www.w3.org/2000/svg" width="55" height="55" viewBox="114.81399536132812 -41 794.3720703125 1105.8930053710938" class="colorable-icon reset-top-left-margin" data-export-recolorable-svg="true" overflow="visible" xmlns:xlink="http://www.w3.org/1999/xlink" fill="rgb(0, 0, 0)" stroke="none" preserveAspectRatio="xMidYMid meet"><g fill="none" stroke="url(&quot;#theme-accent-gradient-linear&quot;) rgb(128, 97, 255)" stroke-width="45" stroke-linecap="round" stroke-linejoin="round"><path d="M 843.41,125.341 C 818.746,110.524 806.905,100.868 798.456,90.754 L 784.056,68.705" data-line="nan" stroke-width="45.0" fill="none" stroke="url(&quot;#theme-accent-gradient-linear&quot;) rgb(128, 97, 255)"/><path d="M 784.228,188.175 C 768.451,160.124 759.56,148.105 749.225,138.505 L 731.38,125.191" data-line="nan" stroke-width="45.0" fill="none" stroke="url(&quot;#theme-accent-gradient-linear&quot;) rgb(128, 97, 255)"/><path d="M 192.871,403.447 C 193.483,395.112 196.158,387.969 202.358,381.3 C 208.722,378.281 217.74,376.83 237.612,376.479 C 261.453,374.774 291.124,371.57 327.037,365.555 C 358.835,358.184 393.983,347.782 419.32,338.357 C 441.565,328.663 486.368,306.288 494.897,303.981 C 499.323,304.23 504.495,305.732 560.901,333.588 C 586.129,343.734 608.904,351.438 635.568,358.918 C 662.216,364.922 691.603,370.039 721.915,373.836" data-line="nan" stroke-width="45.0" fill="none" stroke="url(&quot;#theme-accent-gradient-linear&quot;) rgb(128, 97, 255)"/><path d="M 721.915,373.836 C 749.18,376.176 776.146,377.017 784.779,378.634 C 791.021,382.06 795.846,387.226 798.712,394.581 L 799.46,401.578" data-line="nan" stroke-width="45.0" fill="none" stroke="url(&quot;#theme-accent-gradient-linear&quot;) rgb(128, 97, 255)"/><path d="M 799.122,602.035 C 798.174,616.025 792.126,659.726 785.223,689.48 C 776.053,718.987 766.345,743.473 756.124,764.37 C 734.399,802.775 720.32,824.498 700.848,850.309 C 678.041,876.918 653.391,902.881 624.935,930.132 C 597.329,954.216 571.734,974.207 521.774,1010.004 C 513.701,1015.273 508.393,1017.771 499.992,1019.893 C 493.649,1019.813 484.834,1017.51 476.929,1013.599 C 454.345,998.525 422.711,975.792 383.206,943.713 C 341.588,905.371 309.561,871.261 280.654,836.006 Q 269.128,819.883 257.303,801.413" data-line="nan" stroke-width="45.0" fill="none" stroke="url(&quot;#theme-accent-gradient-linear&quot;) rgb(128, 97, 255)"/><path d="M 495.997,893.378 L 496.155,409.618" data-line="0.0" stroke-width="45.0" fill="none" stroke="url(&quot;#theme-accent-gradient-linear&quot;) rgb(128, 97, 255)"/><path d="M 843.2641781457739,125.02136693806999 A 110.03415585071464,110.03415585071464 0 0,0 785.1738236423537,188.50881261260426" data-line="2.0" stroke-width="45.0" fill="none" stroke="url(&quot;#theme-accent-gradient-linear&quot;) rgb(128, 97, 255)"/><path d="M 783.257,69.955 L 731.38,125.191" data-line="4.0" stroke-width="45.0" fill="none" stroke="url(&quot;#theme-accent-gradient-linear&quot;) rgb(128, 97, 255)"/><path d="M 783.425,27.178 L 783.281,67.508" data-line="5.0" stroke-width="45.0" fill="none" stroke="url(&quot;#theme-accent-gradient-linear&quot;) rgb(128, 97, 255)"/><path d="M 701.148,124.448 L 731.38,125.191" data-line="6.0" stroke-width="45.0" fill="none" stroke="url(&quot;#theme-accent-gradient-linear&quot;) rgb(128, 97, 255)"/><path d="M 783.394,224.596 L 784.228,188.175" data-line="7.0" stroke-width="45.0" fill="none" stroke="url(&quot;#theme-accent-gradient-linear&quot;) rgb(128, 97, 255)"/><path d="M 864.186,124.604 L 843.41,125.341" data-line="8.0" stroke-width="45.0" fill="none" stroke="url(&quot;#theme-accent-gradient-linear&quot;) rgb(128, 97, 255)"/><path d="M 533.894,93.546 L 496.86,4.0" data-line="15.0" stroke-width="45.0" fill="none" stroke="url(&quot;#theme-accent-gradient-linear&quot;) rgb(128, 97, 255)"/><path d="M 626.802,101.463 L 533.894,93.546" data-line="16.0" stroke-width="45.0" fill="none" stroke="url(&quot;#theme-accent-gradient-linear&quot;) rgb(128, 97, 255)"/><path d="M 626.802,101.463 L 555.757,161.726" data-line="17.0" stroke-width="45.0" fill="none" stroke="url(&quot;#theme-accent-gradient-linear&quot;) rgb(128, 97, 255)"/><path d="M 579.961,257.013 L 555.757,161.726" data-line="18.0" stroke-width="45.0" fill="none" stroke="url(&quot;#theme-accent-gradient-linear&quot;) rgb(128, 97, 255)"/><path d="M 579.961,257.013 L 495.676,209.707" data-line="19.0" stroke-width="45.0" fill="none" stroke="url(&quot;#theme-accent-gradient-linear&quot;) rgb(128, 97, 255)"/><path d="M 495.676,209.707 L 411.815,256.857" data-line="20.0" stroke-width="45.0" fill="none" stroke="url(&quot;#theme-accent-gradient-linear&quot;) rgb(128, 97, 255)"/><path d="M 437.745,162.195 L 411.815,256.857" data-line="21.0" stroke-width="45.0" fill="none" stroke="url(&quot;#theme-accent-gradient-linear&quot;) rgb(128, 97, 255)"/><path d="M 437.745,162.195 L 365.824,99.965" data-line="22.0" stroke-width="45.0" fill="none" stroke="url(&quot;#theme-accent-gradient-linear&quot;) rgb(128, 97, 255)"/><path d="M 459.084,93.569 L 365.824,99.965" data-line="23.0" stroke-width="45.0" fill="none" stroke="url(&quot;#theme-accent-gradient-linear&quot;) rgb(128, 97, 255)"/><path d="M 496.86,4.0 L 459.084,93.569" data-line="24.0" stroke-width="45.0" fill="none" stroke="url(&quot;#theme-accent-gradient-linear&quot;) rgb(128, 97, 255)"/><path d="M 799.46,401.578 L 799.122,602.035" data-line="25.0" stroke-width="45.0" fill="none" stroke="url(&quot;#theme-accent-gradient-linear&quot;) rgb(128, 97, 255)"/><path d="M 217.296,110.598 L 217.311,233.865" data-line="43.0" stroke-width="45.0" fill="none" stroke="url(&quot;#theme-accent-gradient-linear&quot;) rgb(128, 97, 255)"/><path d="M 159.814,173.655 L 275.137,173.378" data-line="44.0" stroke-width="45.0" fill="none" stroke="url(&quot;#theme-accent-gradient-linear&quot;) rgb(128, 97, 255)"/><path d="M 256.9707986883781,801.6195385402189 A 430.40236994634455,430.40236994634455 0 0,1 194.7210076579043,526.8107937782664" data-line="45.0" stroke-width="45.0" fill="none" stroke="url(&quot;#theme-accent-gradient-linear&quot;) rgb(128, 97, 255)"/><path d="M 192.735,526.59 L 192.871,403.447" data-line="46.0" stroke-width="45.0" fill="none" stroke="url(&quot;#theme-accent-gradient-linear&quot;) rgb(128, 97, 255)"/></g></svg>